<?xml version="1.0" encoding="utf-8" standalone="no"?>
<!DOCTYPE svg PUBLIC "-//W3C//DTD SVG 1.1//EN"
  "http://www.w3.org/Graphics/SVG/1.1/DTD/svg11.dtd">
<svg xmlns:xlink="http://www.w3.org/1999/xlink" width="460.8pt" height="345.6pt" viewBox="0 0 460.8 345.6" xmlns="http://www.w3.org/2000/svg" version="1.1">
 <metadata>
  <rdf:RDF xmlns:dc="http://purl.org/dc/elements/1.1/" xmlns:cc="http://creativecommons.org/ns#" xmlns:rdf="http://www.w3.org/1999/02/22-rdf-syntax-ns#">
   <cc:Work>
    <dc:type rdf:resource="http://purl.org/dc/dcmitype/StillImage"/>
    <dc:date>2023-06-22T16:13:33.626521</dc:date>
    <dc:format>image/svg+xml</dc:format>
    <dc:creator>
     <cc:Agent>
      <dc:title>Matplotlib v3.6.2, https://matplotlib.org/</dc:title>
     </cc:Agent>
    </dc:creator>
   </cc:Work>
  </rdf:RDF>
 </metadata>
 <defs>
  <style type="text/css">*{stroke-linejoin: round; stroke-linecap: butt}</style>
 </defs>
 <g id="figure_1">
  <g id="patch_1">
   <path d="M 0 345.6 
L 460.8 345.6 
L 460.8 0 
L 0 0 
z
" style="fill: #ffffff"/>
  </g>
  <g id="axes_1">
   <g id="patch_2">
    <path d="M 57.6 307.584 
L 414.72 307.584 
L 414.72 41.472 
L 57.6 41.472 
z
" style="fill: #ffffff"/>
   </g>
   <g id="patch_3">
    <path d="M 73.832727 307.584 
L 75.100909 307.584 
L 75.100909 85.390027 
L 73.832727 85.390027 
z
" clip-path="url(#p3bf3b0dc9a)" style="fill: #808080"/>
   </g>
   <g id="patch_4">
    <path d="M 75.100909 307.584 
L 76.369091 307.584 
L 76.369091 130.523178 
L 75.100909 130.523178 
z
" clip-path="url(#p3bf3b0dc9a)" style="fill: #808080"/>
   </g>
   <g id="patch_5">
    <path d="M 76.369091 307.584 
L 77.637273 307.584 
L 77.637273 101.013041 
L 76.369091 101.013041 
z
" clip-path="url(#p3bf3b0dc9a)" style="fill: #808080"/>
   </g>
   <g id="patch_6">
    <path d="M 77.637273 307.584 
L 78.905455 307.584 
L 78.905455 97.54126 
L 77.637273 97.54126 
z
" clip-path="url(#p3bf3b0dc9a)" style="fill: #808080"/>
   </g>
   <g id="patch_7">
    <path d="M 78.905455 307.584 
L 80.173636 307.584 
L 80.173636 139.20263 
L 78.905455 139.20263 
z
" clip-path="url(#p3bf3b0dc9a)" style="fill: #808080"/>
   </g>
   <g id="patch_8">
    <path d="M 80.173636 307.584 
L 81.441818 307.584 
L 81.441818 101.013041 
L 80.173636 101.013041 
z
" clip-path="url(#p3bf3b0dc9a)" style="fill: #808080"/>
   </g>
   <g id="patch_9">
    <path d="M 81.441818 307.584 
L 82.71 307.584 
L 82.71 118.371945 
L 81.441818 118.371945 
z
" clip-path="url(#p3bf3b0dc9a)" style="fill: #808080"/>
   </g>
   <g id="patch_10">
    <path d="M 82.71 307.584 
L 83.978182 307.584 
L 83.978182 92.333589 
L 82.71 92.333589 
z
" clip-path="url(#p3bf3b0dc9a)" style="fill: #808080"/>
   </g>
   <g id="patch_11">
    <path d="M 83.978182 307.584 
L 85.246364 307.584 
L 85.246364 106.220712 
L 83.978182 106.220712 
z
" clip-path="url(#p3bf3b0dc9a)" style="fill: #808080"/>
   </g>
   <g id="patch_12">
    <path d="M 85.246364 307.584 
L 86.514545 307.584 
L 86.514545 107.956603 
L 85.246364 107.956603 
z
" clip-path="url(#p3bf3b0dc9a)" style="fill: #808080"/>
   </g>
   <g id="patch_13">
    <path d="M 86.514545 307.584 
L 87.782727 307.584 
L 87.782727 62.823452 
L 86.514545 62.823452 
z
" clip-path="url(#p3bf3b0dc9a)" style="fill: #808080"/>
   </g>
   <g id="patch_14">
    <path d="M 87.782727 307.584 
L 89.050909 307.584 
L 89.050909 99.277151 
L 87.782727 99.277151 
z
" clip-path="url(#p3bf3b0dc9a)" style="fill: #808080"/>
   </g>
   <g id="patch_15">
    <path d="M 89.050909 307.584 
L 90.319091 307.584 
L 90.319091 135.730849 
L 89.050909 135.730849 
z
" clip-path="url(#p3bf3b0dc9a)" style="fill: #808080"/>
   </g>
   <g id="patch_16">
    <path d="M 90.319091 307.584 
L 91.587273 307.584 
L 91.587273 90.597699 
L 90.319091 90.597699 
z
" clip-path="url(#p3bf3b0dc9a)" style="fill: #808080"/>
   </g>
   <g id="patch_17">
    <path d="M 91.587273 307.584 
L 92.855455 307.584 
L 92.855455 62.823452 
L 91.587273 62.823452 
z
" clip-path="url(#p3bf3b0dc9a)" style="fill: #808080"/>
   </g>
   <g id="patch_18">
    <path d="M 92.855455 307.584 
L 94.123636 307.584 
L 94.123636 140.938521 
L 92.855455 140.938521 
z
" clip-path="url(#p3bf3b0dc9a)" style="fill: #808080"/>
   </g>
   <g id="patch_19">
    <path d="M 94.123636 307.584 
L 95.391818 307.584 
L 95.391818 90.597699 
L 94.123636 90.597699 
z
" clip-path="url(#p3bf3b0dc9a)" style="fill: #808080"/>
   </g>
   <g id="patch_20">
    <path d="M 95.391818 307.584 
L 96.66 307.584 
L 96.66 94.069479 
L 95.391818 94.069479 
z
" clip-path="url(#p3bf3b0dc9a)" style="fill: #808080"/>
   </g>
   <g id="patch_21">
    <path d="M 96.66 307.584 
L 97.928182 307.584 
L 97.928182 106.220712 
L 96.66 106.220712 
z
" clip-path="url(#p3bf3b0dc9a)" style="fill: #808080"/>
   </g>
   <g id="patch_22">
    <path d="M 97.928182 307.584 
L 99.196364 307.584 
L 99.196364 111.428384 
L 97.928182 111.428384 
z
" clip-path="url(#p3bf3b0dc9a)" style="fill: #808080"/>
   </g>
   <g id="patch_23">
    <path d="M 99.196364 307.584 
L 100.464545 307.584 
L 100.464545 90.597699 
L 99.196364 90.597699 
z
" clip-path="url(#p3bf3b0dc9a)" style="fill: #808080"/>
   </g>
   <g id="patch_24">
    <path d="M 100.464545 307.584 
L 101.732727 307.584 
L 101.732727 109.692493 
L 100.464545 109.692493 
z
" clip-path="url(#p3bf3b0dc9a)" style="fill: #808080"/>
   </g>
   <g id="patch_25">
    <path d="M 101.732727 307.584 
L 103.000909 307.584 
L 103.000909 125.315507 
L 101.732727 125.315507 
z
" clip-path="url(#p3bf3b0dc9a)" style="fill: #808080"/>
   </g>
   <g id="patch_26">
    <path d="M 103.000909 307.584 
L 104.269091 307.584 
L 104.269091 101.013041 
L 103.000909 101.013041 
z
" clip-path="url(#p3bf3b0dc9a)" style="fill: #808080"/>
   </g>
   <g id="patch_27">
    <path d="M 104.269091 307.584 
L 105.537273 307.584 
L 105.537273 94.069479 
L 104.269091 94.069479 
z
" clip-path="url(#p3bf3b0dc9a)" style="fill: #808080"/>
   </g>
   <g id="patch_28">
    <path d="M 105.537273 307.584 
L 106.805455 307.584 
L 106.805455 106.220712 
L 105.537273 106.220712 
z
" clip-path="url(#p3bf3b0dc9a)" style="fill: #808080"/>
   </g>
   <g id="patch_29">
    <path d="M 106.805455 307.584 
L 108.073636 307.584 
L 108.073636 88.861808 
L 106.805455 88.861808 
z
" clip-path="url(#p3bf3b0dc9a)" style="fill: #808080"/>
   </g>
   <g id="patch_30">
    <path d="M 108.073636 307.584 
L 109.341818 307.584 
L 109.341818 95.80537 
L 108.073636 95.80537 
z
" clip-path="url(#p3bf3b0dc9a)" style="fill: #808080"/>
   </g>
   <g id="patch_31">
    <path d="M 109.341818 307.584 
L 110.61 307.584 
L 110.61 107.956603 
L 109.341818 107.956603 
z
" clip-path="url(#p3bf3b0dc9a)" style="fill: #808080"/>
   </g>
   <g id="patch_32">
    <path d="M 110.61 307.584 
L 111.878182 307.584 
L 111.878182 97.54126 
L 110.61 97.54126 
z
" clip-path="url(#p3bf3b0dc9a)" style="fill: #808080"/>
   </g>
   <g id="patch_33">
    <path d="M 111.878182 307.584 
L 113.146364 307.584 
L 113.146364 106.220712 
L 111.878182 106.220712 
z
" clip-path="url(#p3bf3b0dc9a)" style="fill: #808080"/>
   </g>
   <g id="patch_34">
    <path d="M 113.146364 307.584 
L 114.414545 307.584 
L 114.414545 132.259068 
L 113.146364 132.259068 
z
" clip-path="url(#p3bf3b0dc9a)" style="fill: #808080"/>
   </g>
   <g id="patch_35">
    <path d="M 114.414545 307.584 
L 115.682727 307.584 
L 115.682727 118.371945 
L 114.414545 118.371945 
z
" clip-path="url(#p3bf3b0dc9a)" style="fill: #808080"/>
   </g>
   <g id="patch_36">
    <path d="M 115.682727 307.584 
L 116.950909 307.584 
L 116.950909 109.692493 
L 115.682727 109.692493 
z
" clip-path="url(#p3bf3b0dc9a)" style="fill: #808080"/>
   </g>
   <g id="patch_37">
    <path d="M 116.950909 307.584 
L 118.219091 307.584 
L 118.219091 118.371945 
L 116.950909 118.371945 
z
" clip-path="url(#p3bf3b0dc9a)" style="fill: #808080"/>
   </g>
   <g id="patch_38">
    <path d="M 118.219091 307.584 
L 119.487273 307.584 
L 119.487273 101.013041 
L 118.219091 101.013041 
z
" clip-path="url(#p3bf3b0dc9a)" style="fill: #808080"/>
   </g>
   <g id="patch_39">
    <path d="M 119.487273 307.584 
L 120.755455 307.584 
L 120.755455 125.315507 
L 119.487273 125.315507 
z
" clip-path="url(#p3bf3b0dc9a)" style="fill: #808080"/>
   </g>
   <g id="patch_40">
    <path d="M 120.755455 307.584 
L 122.023636 307.584 
L 122.023636 135.730849 
L 120.755455 135.730849 
z
" clip-path="url(#p3bf3b0dc9a)" style="fill: #808080"/>
   </g>
   <g id="patch_41">
    <path d="M 122.023636 307.584 
L 123.291818 307.584 
L 123.291818 102.748932 
L 122.023636 102.748932 
z
" clip-path="url(#p3bf3b0dc9a)" style="fill: #808080"/>
   </g>
   <g id="patch_42">
    <path d="M 123.291818 307.584 
L 124.56 307.584 
L 124.56 121.843726 
L 123.291818 121.843726 
z
" clip-path="url(#p3bf3b0dc9a)" style="fill: #808080"/>
   </g>
   <g id="patch_43">
    <path d="M 124.56 307.584 
L 125.828182 307.584 
L 125.828182 92.333589 
L 124.56 92.333589 
z
" clip-path="url(#p3bf3b0dc9a)" style="fill: #808080"/>
   </g>
   <g id="patch_44">
    <path d="M 125.828182 307.584 
L 127.096364 307.584 
L 127.096364 127.051397 
L 125.828182 127.051397 
z
" clip-path="url(#p3bf3b0dc9a)" style="fill: #808080"/>
   </g>
   <g id="patch_45">
    <path d="M 127.096364 307.584 
L 128.364545 307.584 
L 128.364545 109.692493 
L 127.096364 109.692493 
z
" clip-path="url(#p3bf3b0dc9a)" style="fill: #808080"/>
   </g>
   <g id="patch_46">
    <path d="M 128.364545 307.584 
L 129.632727 307.584 
L 129.632727 97.54126 
L 128.364545 97.54126 
z
" clip-path="url(#p3bf3b0dc9a)" style="fill: #808080"/>
   </g>
   <g id="patch_47">
    <path d="M 129.632727 307.584 
L 130.900909 307.584 
L 130.900909 95.80537 
L 129.632727 95.80537 
z
" clip-path="url(#p3bf3b0dc9a)" style="fill: #808080"/>
   </g>
   <g id="patch_48">
    <path d="M 130.900909 307.584 
L 132.169091 307.584 
L 132.169091 109.692493 
L 130.900909 109.692493 
z
" clip-path="url(#p3bf3b0dc9a)" style="fill: #808080"/>
   </g>
   <g id="patch_49">
    <path d="M 132.169091 307.584 
L 133.437273 307.584 
L 133.437273 127.051397 
L 132.169091 127.051397 
z
" clip-path="url(#p3bf3b0dc9a)" style="fill: #808080"/>
   </g>
   <g id="patch_50">
    <path d="M 133.437273 307.584 
L 134.705455 307.584 
L 134.705455 97.54126 
L 133.437273 97.54126 
z
" clip-path="url(#p3bf3b0dc9a)" style="fill: #808080"/>
   </g>
   <g id="patch_51">
    <path d="M 134.705455 307.584 
L 135.973636 307.584 
L 135.973636 94.069479 
L 134.705455 94.069479 
z
" clip-path="url(#p3bf3b0dc9a)" style="fill: #808080"/>
   </g>
   <g id="patch_52">
    <path d="M 135.973636 307.584 
L 137.241818 307.584 
L 137.241818 80.182356 
L 135.973636 80.182356 
z
" clip-path="url(#p3bf3b0dc9a)" style="fill: #808080"/>
   </g>
   <g id="patch_53">
    <path d="M 137.241818 307.584 
L 138.51 307.584 
L 138.51 95.80537 
L 137.241818 95.80537 
z
" clip-path="url(#p3bf3b0dc9a)" style="fill: #808080"/>
   </g>
   <g id="patch_54">
    <path d="M 138.51 307.584 
L 139.778182 307.584 
L 139.778182 99.277151 
L 138.51 99.277151 
z
" clip-path="url(#p3bf3b0dc9a)" style="fill: #808080"/>
   </g>
   <g id="patch_55">
    <path d="M 139.778182 307.584 
L 141.046364 307.584 
L 141.046364 120.107836 
L 139.778182 120.107836 
z
" clip-path="url(#p3bf3b0dc9a)" style="fill: #808080"/>
   </g>
   <g id="patch_56">
    <path d="M 141.046364 307.584 
L 142.314545 307.584 
L 142.314545 111.428384 
L 141.046364 111.428384 
z
" clip-path="url(#p3bf3b0dc9a)" style="fill: #808080"/>
   </g>
   <g id="patch_57">
    <path d="M 142.314545 307.584 
L 143.582727 307.584 
L 143.582727 111.428384 
L 142.314545 111.428384 
z
" clip-path="url(#p3bf3b0dc9a)" style="fill: #808080"/>
   </g>
   <g id="patch_58">
    <path d="M 143.582727 307.584 
L 144.850909 307.584 
L 144.850909 92.333589 
L 143.582727 92.333589 
z
" clip-path="url(#p3bf3b0dc9a)" style="fill: #808080"/>
   </g>
   <g id="patch_59">
    <path d="M 144.850909 307.584 
L 146.119091 307.584 
L 146.119091 127.051397 
L 144.850909 127.051397 
z
" clip-path="url(#p3bf3b0dc9a)" style="fill: #808080"/>
   </g>
   <g id="patch_60">
    <path d="M 146.119091 307.584 
L 147.387273 307.584 
L 147.387273 87.125918 
L 146.119091 87.125918 
z
" clip-path="url(#p3bf3b0dc9a)" style="fill: #808080"/>
   </g>
   <g id="patch_61">
    <path d="M 147.387273 307.584 
L 148.655455 307.584 
L 148.655455 121.843726 
L 147.387273 121.843726 
z
" clip-path="url(#p3bf3b0dc9a)" style="fill: #808080"/>
   </g>
   <g id="patch_62">
    <path d="M 148.655455 307.584 
L 149.923636 307.584 
L 149.923636 73.238795 
L 148.655455 73.238795 
z
" clip-path="url(#p3bf3b0dc9a)" style="fill: #808080"/>
   </g>
   <g id="patch_63">
    <path d="M 149.923636 307.584 
L 151.191818 307.584 
L 151.191818 66.295233 
L 149.923636 66.295233 
z
" clip-path="url(#p3bf3b0dc9a)" style="fill: #808080"/>
   </g>
   <g id="patch_64">
    <path d="M 151.191818 307.584 
L 152.46 307.584 
L 152.46 118.371945 
L 151.191818 118.371945 
z
" clip-path="url(#p3bf3b0dc9a)" style="fill: #808080"/>
   </g>
   <g id="patch_65">
    <path d="M 152.46 307.584 
L 153.728182 307.584 
L 153.728182 106.220712 
L 152.46 106.220712 
z
" clip-path="url(#p3bf3b0dc9a)" style="fill: #808080"/>
   </g>
   <g id="patch_66">
    <path d="M 153.728182 307.584 
L 154.996364 307.584 
L 154.996364 87.125918 
L 153.728182 87.125918 
z
" clip-path="url(#p3bf3b0dc9a)" style="fill: #808080"/>
   </g>
   <g id="patch_67">
    <path d="M 154.996364 307.584 
L 156.264545 307.584 
L 156.264545 87.125918 
L 154.996364 87.125918 
z
" clip-path="url(#p3bf3b0dc9a)" style="fill: #808080"/>
   </g>
   <g id="patch_68">
    <path d="M 156.264545 307.584 
L 157.532727 307.584 
L 157.532727 104.484822 
L 156.264545 104.484822 
z
" clip-path="url(#p3bf3b0dc9a)" style="fill: #808080"/>
   </g>
   <g id="patch_69">
    <path d="M 157.532727 307.584 
L 158.800909 307.584 
L 158.800909 102.748932 
L 157.532727 102.748932 
z
" clip-path="url(#p3bf3b0dc9a)" style="fill: #808080"/>
   </g>
   <g id="patch_70">
    <path d="M 158.800909 307.584 
L 160.069091 307.584 
L 160.069091 104.484822 
L 158.800909 104.484822 
z
" clip-path="url(#p3bf3b0dc9a)" style="fill: #808080"/>
   </g>
   <g id="patch_71">
    <path d="M 160.069091 307.584 
L 161.337273 307.584 
L 161.337273 123.579616 
L 160.069091 123.579616 
z
" clip-path="url(#p3bf3b0dc9a)" style="fill: #808080"/>
   </g>
   <g id="patch_72">
    <path d="M 161.337273 307.584 
L 162.605455 307.584 
L 162.605455 71.502904 
L 161.337273 71.502904 
z
" clip-path="url(#p3bf3b0dc9a)" style="fill: #808080"/>
   </g>
   <g id="patch_73">
    <path d="M 162.605455 307.584 
L 163.873636 307.584 
L 163.873636 85.390027 
L 162.605455 85.390027 
z
" clip-path="url(#p3bf3b0dc9a)" style="fill: #808080"/>
   </g>
   <g id="patch_74">
    <path d="M 163.873636 307.584 
L 165.141818 307.584 
L 165.141818 118.371945 
L 163.873636 118.371945 
z
" clip-path="url(#p3bf3b0dc9a)" style="fill: #808080"/>
   </g>
   <g id="patch_75">
    <path d="M 165.141818 307.584 
L 166.41 307.584 
L 166.41 120.107836 
L 165.141818 120.107836 
z
" clip-path="url(#p3bf3b0dc9a)" style="fill: #808080"/>
   </g>
   <g id="patch_76">
    <path d="M 166.41 307.584 
L 167.678182 307.584 
L 167.678182 121.843726 
L 166.41 121.843726 
z
" clip-path="url(#p3bf3b0dc9a)" style="fill: #808080"/>
   </g>
   <g id="patch_77">
    <path d="M 167.678182 307.584 
L 168.946364 307.584 
L 168.946364 127.051397 
L 167.678182 127.051397 
z
" clip-path="url(#p3bf3b0dc9a)" style="fill: #808080"/>
   </g>
   <g id="patch_78">
    <path d="M 168.946364 307.584 
L 170.214545 307.584 
L 170.214545 113.164274 
L 168.946364 113.164274 
z
" clip-path="url(#p3bf3b0dc9a)" style="fill: #808080"/>
   </g>
   <g id="patch_79">
    <path d="M 170.214545 307.584 
L 171.482727 307.584 
L 171.482727 140.938521 
L 170.214545 140.938521 
z
" clip-path="url(#p3bf3b0dc9a)" style="fill: #808080"/>
   </g>
   <g id="patch_80">
    <path d="M 171.482727 307.584 
L 172.750909 307.584 
L 172.750909 101.013041 
L 171.482727 101.013041 
z
" clip-path="url(#p3bf3b0dc9a)" style="fill: #808080"/>
   </g>
   <g id="patch_81">
    <path d="M 172.750909 307.584 
L 174.019091 307.584 
L 174.019091 114.900164 
L 172.750909 114.900164 
z
" clip-path="url(#p3bf3b0dc9a)" style="fill: #808080"/>
   </g>
   <g id="patch_82">
    <path d="M 174.019091 307.584 
L 175.287273 307.584 
L 175.287273 104.484822 
L 174.019091 104.484822 
z
" clip-path="url(#p3bf3b0dc9a)" style="fill: #808080"/>
   </g>
   <g id="patch_83">
    <path d="M 175.287273 307.584 
L 176.555455 307.584 
L 176.555455 102.748932 
L 175.287273 102.748932 
z
" clip-path="url(#p3bf3b0dc9a)" style="fill: #808080"/>
   </g>
   <g id="patch_84">
    <path d="M 176.555455 307.584 
L 177.823636 307.584 
L 177.823636 113.164274 
L 176.555455 113.164274 
z
" clip-path="url(#p3bf3b0dc9a)" style="fill: #808080"/>
   </g>
   <g id="patch_85">
    <path d="M 177.823636 307.584 
L 179.091818 307.584 
L 179.091818 118.371945 
L 177.823636 118.371945 
z
" clip-path="url(#p3bf3b0dc9a)" style="fill: #808080"/>
   </g>
   <g id="patch_86">
    <path d="M 179.091818 307.584 
L 180.36 307.584 
L 180.36 111.428384 
L 179.091818 111.428384 
z
" clip-path="url(#p3bf3b0dc9a)" style="fill: #808080"/>
   </g>
   <g id="patch_87">
    <path d="M 180.36 307.584 
L 181.628182 307.584 
L 181.628182 107.956603 
L 180.36 107.956603 
z
" clip-path="url(#p3bf3b0dc9a)" style="fill: #808080"/>
   </g>
   <g id="patch_88">
    <path d="M 181.628182 307.584 
L 182.896364 307.584 
L 182.896364 107.956603 
L 181.628182 107.956603 
z
" clip-path="url(#p3bf3b0dc9a)" style="fill: #808080"/>
   </g>
   <g id="patch_89">
    <path d="M 182.896364 307.584 
L 184.164545 307.584 
L 184.164545 104.484822 
L 182.896364 104.484822 
z
" clip-path="url(#p3bf3b0dc9a)" style="fill: #808080"/>
   </g>
   <g id="patch_90">
    <path d="M 184.164545 307.584 
L 185.432727 307.584 
L 185.432727 74.974685 
L 184.164545 74.974685 
z
" clip-path="url(#p3bf3b0dc9a)" style="fill: #808080"/>
   </g>
   <g id="patch_91">
    <path d="M 185.432727 307.584 
L 186.700909 307.584 
L 186.700909 97.54126 
L 185.432727 97.54126 
z
" clip-path="url(#p3bf3b0dc9a)" style="fill: #808080"/>
   </g>
   <g id="patch_92">
    <path d="M 186.700909 307.584 
L 187.969091 307.584 
L 187.969091 109.692493 
L 186.700909 109.692493 
z
" clip-path="url(#p3bf3b0dc9a)" style="fill: #808080"/>
   </g>
   <g id="patch_93">
    <path d="M 187.969091 307.584 
L 189.237273 307.584 
L 189.237273 92.333589 
L 187.969091 92.333589 
z
" clip-path="url(#p3bf3b0dc9a)" style="fill: #808080"/>
   </g>
   <g id="patch_94">
    <path d="M 189.237273 307.584 
L 190.505455 307.584 
L 190.505455 113.164274 
L 189.237273 113.164274 
z
" clip-path="url(#p3bf3b0dc9a)" style="fill: #808080"/>
   </g>
   <g id="patch_95">
    <path d="M 190.505455 307.584 
L 191.773636 307.584 
L 191.773636 114.900164 
L 190.505455 114.900164 
z
" clip-path="url(#p3bf3b0dc9a)" style="fill: #808080"/>
   </g>
   <g id="patch_96">
    <path d="M 191.773636 307.584 
L 193.041818 307.584 
L 193.041818 114.900164 
L 191.773636 114.900164 
z
" clip-path="url(#p3bf3b0dc9a)" style="fill: #808080"/>
   </g>
   <g id="patch_97">
    <path d="M 193.041818 307.584 
L 194.31 307.584 
L 194.31 92.333589 
L 193.041818 92.333589 
z
" clip-path="url(#p3bf3b0dc9a)" style="fill: #808080"/>
   </g>
   <g id="patch_98">
    <path d="M 194.31 307.584 
L 195.578182 307.584 
L 195.578182 104.484822 
L 194.31 104.484822 
z
" clip-path="url(#p3bf3b0dc9a)" style="fill: #808080"/>
   </g>
   <g id="patch_99">
    <path d="M 195.578182 307.584 
L 196.846364 307.584 
L 196.846364 88.861808 
L 195.578182 88.861808 
z
" clip-path="url(#p3bf3b0dc9a)" style="fill: #808080"/>
   </g>
   <g id="patch_100">
    <path d="M 196.846364 307.584 
L 198.114545 307.584 
L 198.114545 128.787288 
L 196.846364 128.787288 
z
" clip-path="url(#p3bf3b0dc9a)" style="fill: #808080"/>
   </g>
   <g id="patch_101">
    <path d="M 198.114545 307.584 
L 199.382727 307.584 
L 199.382727 78.446466 
L 198.114545 78.446466 
z
" clip-path="url(#p3bf3b0dc9a)" style="fill: #808080"/>
   </g>
   <g id="patch_102">
    <path d="M 199.382727 307.584 
L 200.650909 307.584 
L 200.650909 104.484822 
L 199.382727 104.484822 
z
" clip-path="url(#p3bf3b0dc9a)" style="fill: #808080"/>
   </g>
   <g id="patch_103">
    <path d="M 200.650909 307.584 
L 201.919091 307.584 
L 201.919091 99.277151 
L 200.650909 99.277151 
z
" clip-path="url(#p3bf3b0dc9a)" style="fill: #808080"/>
   </g>
   <g id="patch_104">
    <path d="M 201.919091 307.584 
L 203.187273 307.584 
L 203.187273 118.371945 
L 201.919091 118.371945 
z
" clip-path="url(#p3bf3b0dc9a)" style="fill: #808080"/>
   </g>
   <g id="patch_105">
    <path d="M 203.187273 307.584 
L 204.455455 307.584 
L 204.455455 99.277151 
L 203.187273 99.277151 
z
" clip-path="url(#p3bf3b0dc9a)" style="fill: #808080"/>
   </g>
   <g id="patch_106">
    <path d="M 204.455455 307.584 
L 205.723636 307.584 
L 205.723636 92.333589 
L 204.455455 92.333589 
z
" clip-path="url(#p3bf3b0dc9a)" style="fill: #808080"/>
   </g>
   <g id="patch_107">
    <path d="M 205.723636 307.584 
L 206.991818 307.584 
L 206.991818 85.390027 
L 205.723636 85.390027 
z
" clip-path="url(#p3bf3b0dc9a)" style="fill: #808080"/>
   </g>
   <g id="patch_108">
    <path d="M 206.991818 307.584 
L 208.26 307.584 
L 208.26 97.54126 
L 206.991818 97.54126 
z
" clip-path="url(#p3bf3b0dc9a)" style="fill: #808080"/>
   </g>
   <g id="patch_109">
    <path d="M 208.26 307.584 
L 209.528182 307.584 
L 209.528182 88.861808 
L 208.26 88.861808 
z
" clip-path="url(#p3bf3b0dc9a)" style="fill: #808080"/>
   </g>
   <g id="patch_110">
    <path d="M 209.528182 307.584 
L 210.796364 307.584 
L 210.796364 54.144 
L 209.528182 54.144 
z
" clip-path="url(#p3bf3b0dc9a)" style="fill: #808080"/>
   </g>
   <g id="patch_111">
    <path d="M 210.796364 307.584 
L 212.064545 307.584 
L 212.064545 142.674411 
L 210.796364 142.674411 
z
" clip-path="url(#p3bf3b0dc9a)" style="fill: #808080"/>
   </g>
   <g id="patch_112">
    <path d="M 212.064545 307.584 
L 213.332727 307.584 
L 213.332727 85.390027 
L 212.064545 85.390027 
z
" clip-path="url(#p3bf3b0dc9a)" style="fill: #808080"/>
   </g>
   <g id="patch_113">
    <path d="M 213.332727 307.584 
L 214.600909 307.584 
L 214.600909 114.900164 
L 213.332727 114.900164 
z
" clip-path="url(#p3bf3b0dc9a)" style="fill: #808080"/>
   </g>
   <g id="patch_114">
    <path d="M 214.600909 307.584 
L 215.869091 307.584 
L 215.869091 120.107836 
L 214.600909 120.107836 
z
" clip-path="url(#p3bf3b0dc9a)" style="fill: #808080"/>
   </g>
   <g id="patch_115">
    <path d="M 215.869091 307.584 
L 217.137273 307.584 
L 217.137273 83.654137 
L 215.869091 83.654137 
z
" clip-path="url(#p3bf3b0dc9a)" style="fill: #808080"/>
   </g>
   <g id="patch_116">
    <path d="M 217.137273 307.584 
L 218.405455 307.584 
L 218.405455 118.371945 
L 217.137273 118.371945 
z
" clip-path="url(#p3bf3b0dc9a)" style="fill: #808080"/>
   </g>
   <g id="patch_117">
    <path d="M 218.405455 307.584 
L 219.673636 307.584 
L 219.673636 127.051397 
L 218.405455 127.051397 
z
" clip-path="url(#p3bf3b0dc9a)" style="fill: #808080"/>
   </g>
   <g id="patch_118">
    <path d="M 219.673636 307.584 
L 220.941818 307.584 
L 220.941818 81.918247 
L 219.673636 81.918247 
z
" clip-path="url(#p3bf3b0dc9a)" style="fill: #808080"/>
   </g>
   <g id="patch_119">
    <path d="M 220.941818 307.584 
L 222.21 307.584 
L 222.21 95.80537 
L 220.941818 95.80537 
z
" clip-path="url(#p3bf3b0dc9a)" style="fill: #808080"/>
   </g>
   <g id="patch_120">
    <path d="M 222.21 307.584 
L 223.478182 307.584 
L 223.478182 107.956603 
L 222.21 107.956603 
z
" clip-path="url(#p3bf3b0dc9a)" style="fill: #808080"/>
   </g>
   <g id="patch_121">
    <path d="M 223.478182 307.584 
L 224.746364 307.584 
L 224.746364 99.277151 
L 223.478182 99.277151 
z
" clip-path="url(#p3bf3b0dc9a)" style="fill: #808080"/>
   </g>
   <g id="patch_122">
    <path d="M 224.746364 307.584 
L 226.014545 307.584 
L 226.014545 111.428384 
L 224.746364 111.428384 
z
" clip-path="url(#p3bf3b0dc9a)" style="fill: #808080"/>
   </g>
   <g id="patch_123">
    <path d="M 226.014545 307.584 
L 227.282727 307.584 
L 227.282727 76.710575 
L 226.014545 76.710575 
z
" clip-path="url(#p3bf3b0dc9a)" style="fill: #808080"/>
   </g>
   <g id="patch_124">
    <path d="M 227.282727 307.584 
L 228.550909 307.584 
L 228.550909 123.579616 
L 227.282727 123.579616 
z
" clip-path="url(#p3bf3b0dc9a)" style="fill: #808080"/>
   </g>
   <g id="patch_125">
    <path d="M 228.550909 307.584 
L 229.819091 307.584 
L 229.819091 95.80537 
L 228.550909 95.80537 
z
" clip-path="url(#p3bf3b0dc9a)" style="fill: #808080"/>
   </g>
   <g id="patch_126">
    <path d="M 229.819091 307.584 
L 231.087273 307.584 
L 231.087273 114.900164 
L 229.819091 114.900164 
z
" clip-path="url(#p3bf3b0dc9a)" style="fill: #808080"/>
   </g>
   <g id="patch_127">
    <path d="M 231.087273 307.584 
L 232.355455 307.584 
L 232.355455 95.80537 
L 231.087273 95.80537 
z
" clip-path="url(#p3bf3b0dc9a)" style="fill: #808080"/>
   </g>
   <g id="patch_128">
    <path d="M 232.355455 307.584 
L 233.623636 307.584 
L 233.623636 125.315507 
L 232.355455 125.315507 
z
" clip-path="url(#p3bf3b0dc9a)" style="fill: #808080"/>
   </g>
   <g id="patch_129">
    <path d="M 233.623636 307.584 
L 234.891818 307.584 
L 234.891818 102.748932 
L 233.623636 102.748932 
z
" clip-path="url(#p3bf3b0dc9a)" style="fill: #808080"/>
   </g>
   <g id="patch_130">
    <path d="M 234.891818 307.584 
L 236.16 307.584 
L 236.16 130.523178 
L 234.891818 130.523178 
z
" clip-path="url(#p3bf3b0dc9a)" style="fill: #808080"/>
   </g>
   <g id="patch_131">
    <path d="M 236.16 307.584 
L 237.428182 307.584 
L 237.428182 92.333589 
L 236.16 92.333589 
z
" clip-path="url(#p3bf3b0dc9a)" style="fill: #808080"/>
   </g>
   <g id="patch_132">
    <path d="M 237.428182 307.584 
L 238.696364 307.584 
L 238.696364 114.900164 
L 237.428182 114.900164 
z
" clip-path="url(#p3bf3b0dc9a)" style="fill: #808080"/>
   </g>
   <g id="patch_133">
    <path d="M 238.696364 307.584 
L 239.964545 307.584 
L 239.964545 61.087562 
L 238.696364 61.087562 
z
" clip-path="url(#p3bf3b0dc9a)" style="fill: #808080"/>
   </g>
   <g id="patch_134">
    <path d="M 239.964545 307.584 
L 241.232727 307.584 
L 241.232727 123.579616 
L 239.964545 123.579616 
z
" clip-path="url(#p3bf3b0dc9a)" style="fill: #808080"/>
   </g>
   <g id="patch_135">
    <path d="M 241.232727 307.584 
L 242.500909 307.584 
L 242.500909 97.54126 
L 241.232727 97.54126 
z
" clip-path="url(#p3bf3b0dc9a)" style="fill: #808080"/>
   </g>
   <g id="patch_136">
    <path d="M 242.500909 307.584 
L 243.769091 307.584 
L 243.769091 120.107836 
L 242.500909 120.107836 
z
" clip-path="url(#p3bf3b0dc9a)" style="fill: #808080"/>
   </g>
   <g id="patch_137">
    <path d="M 243.769091 307.584 
L 245.037273 307.584 
L 245.037273 109.692493 
L 243.769091 109.692493 
z
" clip-path="url(#p3bf3b0dc9a)" style="fill: #808080"/>
   </g>
   <g id="patch_138">
    <path d="M 245.037273 307.584 
L 246.305455 307.584 
L 246.305455 142.674411 
L 245.037273 142.674411 
z
" clip-path="url(#p3bf3b0dc9a)" style="fill: #808080"/>
   </g>
   <g id="patch_139">
    <path d="M 246.305455 307.584 
L 247.573636 307.584 
L 247.573636 116.636055 
L 246.305455 116.636055 
z
" clip-path="url(#p3bf3b0dc9a)" style="fill: #808080"/>
   </g>
   <g id="patch_140">
    <path d="M 247.573636 307.584 
L 248.841818 307.584 
L 248.841818 85.390027 
L 247.573636 85.390027 
z
" clip-path="url(#p3bf3b0dc9a)" style="fill: #808080"/>
   </g>
   <g id="patch_141">
    <path d="M 248.841818 307.584 
L 250.11 307.584 
L 250.11 144.410301 
L 248.841818 144.410301 
z
" clip-path="url(#p3bf3b0dc9a)" style="fill: #808080"/>
   </g>
   <g id="patch_142">
    <path d="M 250.11 307.584 
L 251.378182 307.584 
L 251.378182 81.918247 
L 250.11 81.918247 
z
" clip-path="url(#p3bf3b0dc9a)" style="fill: #808080"/>
   </g>
   <g id="patch_143">
    <path d="M 251.378182 307.584 
L 252.646364 307.584 
L 252.646364 101.013041 
L 251.378182 101.013041 
z
" clip-path="url(#p3bf3b0dc9a)" style="fill: #808080"/>
   </g>
   <g id="patch_144">
    <path d="M 252.646364 307.584 
L 253.914545 307.584 
L 253.914545 76.710575 
L 252.646364 76.710575 
z
" clip-path="url(#p3bf3b0dc9a)" style="fill: #808080"/>
   </g>
   <g id="patch_145">
    <path d="M 253.914545 307.584 
L 255.182727 307.584 
L 255.182727 120.107836 
L 253.914545 120.107836 
z
" clip-path="url(#p3bf3b0dc9a)" style="fill: #808080"/>
   </g>
   <g id="patch_146">
    <path d="M 255.182727 307.584 
L 256.450909 307.584 
L 256.450909 107.956603 
L 255.182727 107.956603 
z
" clip-path="url(#p3bf3b0dc9a)" style="fill: #808080"/>
   </g>
   <g id="patch_147">
    <path d="M 256.450909 307.584 
L 257.719091 307.584 
L 257.719091 97.54126 
L 256.450909 97.54126 
z
" clip-path="url(#p3bf3b0dc9a)" style="fill: #808080"/>
   </g>
   <g id="patch_148">
    <path d="M 257.719091 307.584 
L 258.987273 307.584 
L 258.987273 127.051397 
L 257.719091 127.051397 
z
" clip-path="url(#p3bf3b0dc9a)" style="fill: #808080"/>
   </g>
   <g id="patch_149">
    <path d="M 258.987273 307.584 
L 260.255455 307.584 
L 260.255455 106.220712 
L 258.987273 106.220712 
z
" clip-path="url(#p3bf3b0dc9a)" style="fill: #808080"/>
   </g>
   <g id="patch_150">
    <path d="M 260.255455 307.584 
L 261.523636 307.584 
L 261.523636 99.277151 
L 260.255455 99.277151 
z
" clip-path="url(#p3bf3b0dc9a)" style="fill: #808080"/>
   </g>
   <g id="patch_151">
    <path d="M 261.523636 307.584 
L 262.791818 307.584 
L 262.791818 78.446466 
L 261.523636 78.446466 
z
" clip-path="url(#p3bf3b0dc9a)" style="fill: #808080"/>
   </g>
   <g id="patch_152">
    <path d="M 262.791818 307.584 
L 264.06 307.584 
L 264.06 102.748932 
L 262.791818 102.748932 
z
" clip-path="url(#p3bf3b0dc9a)" style="fill: #808080"/>
   </g>
   <g id="patch_153">
    <path d="M 264.06 307.584 
L 265.328182 307.584 
L 265.328182 114.900164 
L 264.06 114.900164 
z
" clip-path="url(#p3bf3b0dc9a)" style="fill: #808080"/>
   </g>
   <g id="patch_154">
    <path d="M 265.328182 307.584 
L 266.596364 307.584 
L 266.596364 111.428384 
L 265.328182 111.428384 
z
" clip-path="url(#p3bf3b0dc9a)" style="fill: #808080"/>
   </g>
   <g id="patch_155">
    <path d="M 266.596364 307.584 
L 267.864545 307.584 
L 267.864545 78.446466 
L 266.596364 78.446466 
z
" clip-path="url(#p3bf3b0dc9a)" style="fill: #808080"/>
   </g>
   <g id="patch_156">
    <path d="M 267.864545 307.584 
L 269.132727 307.584 
L 269.132727 78.446466 
L 267.864545 78.446466 
z
" clip-path="url(#p3bf3b0dc9a)" style="fill: #808080"/>
   </g>
   <g id="patch_157">
    <path d="M 269.132727 307.584 
L 270.400909 307.584 
L 270.400909 156.561534 
L 269.132727 156.561534 
z
" clip-path="url(#p3bf3b0dc9a)" style="fill: #808080"/>
   </g>
   <g id="patch_158">
    <path d="M 270.400909 307.584 
L 271.669091 307.584 
L 271.669091 78.446466 
L 270.400909 78.446466 
z
" clip-path="url(#p3bf3b0dc9a)" style="fill: #808080"/>
   </g>
   <g id="patch_159">
    <path d="M 271.669091 307.584 
L 272.937273 307.584 
L 272.937273 123.579616 
L 271.669091 123.579616 
z
" clip-path="url(#p3bf3b0dc9a)" style="fill: #808080"/>
   </g>
   <g id="patch_160">
    <path d="M 272.937273 307.584 
L 274.205455 307.584 
L 274.205455 101.013041 
L 272.937273 101.013041 
z
" clip-path="url(#p3bf3b0dc9a)" style="fill: #808080"/>
   </g>
   <g id="patch_161">
    <path d="M 274.205455 307.584 
L 275.473636 307.584 
L 275.473636 97.54126 
L 274.205455 97.54126 
z
" clip-path="url(#p3bf3b0dc9a)" style="fill: #808080"/>
   </g>
   <g id="patch_162">
    <path d="M 275.473636 307.584 
L 276.741818 307.584 
L 276.741818 97.54126 
L 275.473636 97.54126 
z
" clip-path="url(#p3bf3b0dc9a)" style="fill: #808080"/>
   </g>
   <g id="patch_163">
    <path d="M 276.741818 307.584 
L 278.01 307.584 
L 278.01 106.220712 
L 276.741818 106.220712 
z
" clip-path="url(#p3bf3b0dc9a)" style="fill: #808080"/>
   </g>
   <g id="patch_164">
    <path d="M 278.01 307.584 
L 279.278182 307.584 
L 279.278182 102.748932 
L 278.01 102.748932 
z
" clip-path="url(#p3bf3b0dc9a)" style="fill: #808080"/>
   </g>
   <g id="patch_165">
    <path d="M 279.278182 307.584 
L 280.546364 307.584 
L 280.546364 88.861808 
L 279.278182 88.861808 
z
" clip-path="url(#p3bf3b0dc9a)" style="fill: #808080"/>
   </g>
   <g id="patch_166">
    <path d="M 280.546364 307.584 
L 281.814545 307.584 
L 281.814545 114.900164 
L 280.546364 114.900164 
z
" clip-path="url(#p3bf3b0dc9a)" style="fill: #808080"/>
   </g>
   <g id="patch_167">
    <path d="M 281.814545 307.584 
L 283.082727 307.584 
L 283.082727 101.013041 
L 281.814545 101.013041 
z
" clip-path="url(#p3bf3b0dc9a)" style="fill: #808080"/>
   </g>
   <g id="patch_168">
    <path d="M 283.082727 307.584 
L 284.350909 307.584 
L 284.350909 88.861808 
L 283.082727 88.861808 
z
" clip-path="url(#p3bf3b0dc9a)" style="fill: #808080"/>
   </g>
   <g id="patch_169">
    <path d="M 284.350909 307.584 
L 285.619091 307.584 
L 285.619091 97.54126 
L 284.350909 97.54126 
z
" clip-path="url(#p3bf3b0dc9a)" style="fill: #808080"/>
   </g>
   <g id="patch_170">
    <path d="M 285.619091 307.584 
L 286.887273 307.584 
L 286.887273 127.051397 
L 285.619091 127.051397 
z
" clip-path="url(#p3bf3b0dc9a)" style="fill: #808080"/>
   </g>
   <g id="patch_171">
    <path d="M 286.887273 307.584 
L 288.155455 307.584 
L 288.155455 106.220712 
L 286.887273 106.220712 
z
" clip-path="url(#p3bf3b0dc9a)" style="fill: #808080"/>
   </g>
   <g id="patch_172">
    <path d="M 288.155455 307.584 
L 289.423636 307.584 
L 289.423636 120.107836 
L 288.155455 120.107836 
z
" clip-path="url(#p3bf3b0dc9a)" style="fill: #808080"/>
   </g>
   <g id="patch_173">
    <path d="M 289.423636 307.584 
L 290.691818 307.584 
L 290.691818 104.484822 
L 289.423636 104.484822 
z
" clip-path="url(#p3bf3b0dc9a)" style="fill: #808080"/>
   </g>
   <g id="patch_174">
    <path d="M 290.691818 307.584 
L 291.96 307.584 
L 291.96 125.315507 
L 290.691818 125.315507 
z
" clip-path="url(#p3bf3b0dc9a)" style="fill: #808080"/>
   </g>
   <g id="patch_175">
    <path d="M 291.96 307.584 
L 293.228182 307.584 
L 293.228182 107.956603 
L 291.96 107.956603 
z
" clip-path="url(#p3bf3b0dc9a)" style="fill: #808080"/>
   </g>
   <g id="patch_176">
    <path d="M 293.228182 307.584 
L 294.496364 307.584 
L 294.496364 88.861808 
L 293.228182 88.861808 
z
" clip-path="url(#p3bf3b0dc9a)" style="fill: #808080"/>
   </g>
   <g id="patch_177">
    <path d="M 294.496364 307.584 
L 295.764545 307.584 
L 295.764545 97.54126 
L 294.496364 97.54126 
z
" clip-path="url(#p3bf3b0dc9a)" style="fill: #808080"/>
   </g>
   <g id="patch_178">
    <path d="M 295.764545 307.584 
L 297.032727 307.584 
L 297.032727 102.748932 
L 295.764545 102.748932 
z
" clip-path="url(#p3bf3b0dc9a)" style="fill: #808080"/>
   </g>
   <g id="patch_179">
    <path d="M 297.032727 307.584 
L 298.300909 307.584 
L 298.300909 90.597699 
L 297.032727 90.597699 
z
" clip-path="url(#p3bf3b0dc9a)" style="fill: #808080"/>
   </g>
   <g id="patch_180">
    <path d="M 298.300909 307.584 
L 299.569091 307.584 
L 299.569091 74.974685 
L 298.300909 74.974685 
z
" clip-path="url(#p3bf3b0dc9a)" style="fill: #808080"/>
   </g>
   <g id="patch_181">
    <path d="M 299.569091 307.584 
L 300.837273 307.584 
L 300.837273 113.164274 
L 299.569091 113.164274 
z
" clip-path="url(#p3bf3b0dc9a)" style="fill: #808080"/>
   </g>
   <g id="patch_182">
    <path d="M 300.837273 307.584 
L 302.105455 307.584 
L 302.105455 64.559342 
L 300.837273 64.559342 
z
" clip-path="url(#p3bf3b0dc9a)" style="fill: #808080"/>
   </g>
   <g id="patch_183">
    <path d="M 302.105455 307.584 
L 303.373636 307.584 
L 303.373636 104.484822 
L 302.105455 104.484822 
z
" clip-path="url(#p3bf3b0dc9a)" style="fill: #808080"/>
   </g>
   <g id="patch_184">
    <path d="M 303.373636 307.584 
L 304.641818 307.584 
L 304.641818 107.956603 
L 303.373636 107.956603 
z
" clip-path="url(#p3bf3b0dc9a)" style="fill: #808080"/>
   </g>
   <g id="patch_185">
    <path d="M 304.641818 307.584 
L 305.91 307.584 
L 305.91 123.579616 
L 304.641818 123.579616 
z
" clip-path="url(#p3bf3b0dc9a)" style="fill: #808080"/>
   </g>
   <g id="patch_186">
    <path d="M 305.91 307.584 
L 307.178182 307.584 
L 307.178182 97.54126 
L 305.91 97.54126 
z
" clip-path="url(#p3bf3b0dc9a)" style="fill: #808080"/>
   </g>
   <g id="patch_187">
    <path d="M 307.178182 307.584 
L 308.446364 307.584 
L 308.446364 81.918247 
L 307.178182 81.918247 
z
" clip-path="url(#p3bf3b0dc9a)" style="fill: #808080"/>
   </g>
   <g id="patch_188">
    <path d="M 308.446364 307.584 
L 309.714545 307.584 
L 309.714545 83.654137 
L 308.446364 83.654137 
z
" clip-path="url(#p3bf3b0dc9a)" style="fill: #808080"/>
   </g>
   <g id="patch_189">
    <path d="M 309.714545 307.584 
L 310.982727 307.584 
L 310.982727 94.069479 
L 309.714545 94.069479 
z
" clip-path="url(#p3bf3b0dc9a)" style="fill: #808080"/>
   </g>
   <g id="patch_190">
    <path d="M 310.982727 307.584 
L 312.250909 307.584 
L 312.250909 118.371945 
L 310.982727 118.371945 
z
" clip-path="url(#p3bf3b0dc9a)" style="fill: #808080"/>
   </g>
   <g id="patch_191">
    <path d="M 312.250909 307.584 
L 313.519091 307.584 
L 313.519091 101.013041 
L 312.250909 101.013041 
z
" clip-path="url(#p3bf3b0dc9a)" style="fill: #808080"/>
   </g>
   <g id="patch_192">
    <path d="M 313.519091 307.584 
L 314.787273 307.584 
L 314.787273 120.107836 
L 313.519091 120.107836 
z
" clip-path="url(#p3bf3b0dc9a)" style="fill: #808080"/>
   </g>
   <g id="patch_193">
    <path d="M 314.787273 307.584 
L 316.055455 307.584 
L 316.055455 88.861808 
L 314.787273 88.861808 
z
" clip-path="url(#p3bf3b0dc9a)" style="fill: #808080"/>
   </g>
   <g id="patch_194">
    <path d="M 316.055455 307.584 
L 317.323636 307.584 
L 317.323636 107.956603 
L 316.055455 107.956603 
z
" clip-path="url(#p3bf3b0dc9a)" style="fill: #808080"/>
   </g>
   <g id="patch_195">
    <path d="M 317.323636 307.584 
L 318.591818 307.584 
L 318.591818 114.900164 
L 317.323636 114.900164 
z
" clip-path="url(#p3bf3b0dc9a)" style="fill: #808080"/>
   </g>
   <g id="patch_196">
    <path d="M 318.591818 307.584 
L 319.86 307.584 
L 319.86 113.164274 
L 318.591818 113.164274 
z
" clip-path="url(#p3bf3b0dc9a)" style="fill: #808080"/>
   </g>
   <g id="patch_197">
    <path d="M 319.86 307.584 
L 321.128182 307.584 
L 321.128182 113.164274 
L 319.86 113.164274 
z
" clip-path="url(#p3bf3b0dc9a)" style="fill: #808080"/>
   </g>
   <g id="patch_198">
    <path d="M 321.128182 307.584 
L 322.396364 307.584 
L 322.396364 107.956603 
L 321.128182 107.956603 
z
" clip-path="url(#p3bf3b0dc9a)" style="fill: #808080"/>
   </g>
   <g id="patch_199">
    <path d="M 322.396364 307.584 
L 323.664545 307.584 
L 323.664545 87.125918 
L 322.396364 87.125918 
z
" clip-path="url(#p3bf3b0dc9a)" style="fill: #808080"/>
   </g>
   <g id="patch_200">
    <path d="M 323.664545 307.584 
L 324.932727 307.584 
L 324.932727 87.125918 
L 323.664545 87.125918 
z
" clip-path="url(#p3bf3b0dc9a)" style="fill: #808080"/>
   </g>
   <g id="patch_201">
    <path d="M 324.932727 307.584 
L 326.200909 307.584 
L 326.200909 114.900164 
L 324.932727 114.900164 
z
" clip-path="url(#p3bf3b0dc9a)" style="fill: #808080"/>
   </g>
   <g id="patch_202">
    <path d="M 326.200909 307.584 
L 327.469091 307.584 
L 327.469091 62.823452 
L 326.200909 62.823452 
z
" clip-path="url(#p3bf3b0dc9a)" style="fill: #808080"/>
   </g>
   <g id="patch_203">
    <path d="M 327.469091 307.584 
L 328.737273 307.584 
L 328.737273 118.371945 
L 327.469091 118.371945 
z
" clip-path="url(#p3bf3b0dc9a)" style="fill: #808080"/>
   </g>
   <g id="patch_204">
    <path d="M 328.737273 307.584 
L 330.005455 307.584 
L 330.005455 101.013041 
L 328.737273 101.013041 
z
" clip-path="url(#p3bf3b0dc9a)" style="fill: #808080"/>
   </g>
   <g id="patch_205">
    <path d="M 330.005455 307.584 
L 331.273636 307.584 
L 331.273636 88.861808 
L 330.005455 88.861808 
z
" clip-path="url(#p3bf3b0dc9a)" style="fill: #808080"/>
   </g>
   <g id="patch_206">
    <path d="M 331.273636 307.584 
L 332.541818 307.584 
L 332.541818 121.843726 
L 331.273636 121.843726 
z
" clip-path="url(#p3bf3b0dc9a)" style="fill: #808080"/>
   </g>
   <g id="patch_207">
    <path d="M 332.541818 307.584 
L 333.81 307.584 
L 333.81 99.277151 
L 332.541818 99.277151 
z
" clip-path="url(#p3bf3b0dc9a)" style="fill: #808080"/>
   </g>
   <g id="patch_208">
    <path d="M 333.81 307.584 
L 335.078182 307.584 
L 335.078182 120.107836 
L 333.81 120.107836 
z
" clip-path="url(#p3bf3b0dc9a)" style="fill: #808080"/>
   </g>
   <g id="patch_209">
    <path d="M 335.078182 307.584 
L 336.346364 307.584 
L 336.346364 73.238795 
L 335.078182 73.238795 
z
" clip-path="url(#p3bf3b0dc9a)" style="fill: #808080"/>
   </g>
   <g id="patch_210">
    <path d="M 336.346364 307.584 
L 337.614545 307.584 
L 337.614545 120.107836 
L 336.346364 120.107836 
z
" clip-path="url(#p3bf3b0dc9a)" style="fill: #808080"/>
   </g>
   <g id="patch_211">
    <path d="M 337.614545 307.584 
L 338.882727 307.584 
L 338.882727 111.428384 
L 337.614545 111.428384 
z
" clip-path="url(#p3bf3b0dc9a)" style="fill: #808080"/>
   </g>
   <g id="patch_212">
    <path d="M 338.882727 307.584 
L 340.150909 307.584 
L 340.150909 97.54126 
L 338.882727 97.54126 
z
" clip-path="url(#p3bf3b0dc9a)" style="fill: #808080"/>
   </g>
   <g id="patch_213">
    <path d="M 340.150909 307.584 
L 341.419091 307.584 
L 341.419091 132.259068 
L 340.150909 132.259068 
z
" clip-path="url(#p3bf3b0dc9a)" style="fill: #808080"/>
   </g>
   <g id="patch_214">
    <path d="M 341.419091 307.584 
L 342.687273 307.584 
L 342.687273 92.333589 
L 341.419091 92.333589 
z
" clip-path="url(#p3bf3b0dc9a)" style="fill: #808080"/>
   </g>
   <g id="patch_215">
    <path d="M 342.687273 307.584 
L 343.955455 307.584 
L 343.955455 128.787288 
L 342.687273 128.787288 
z
" clip-path="url(#p3bf3b0dc9a)" style="fill: #808080"/>
   </g>
   <g id="patch_216">
    <path d="M 343.955455 307.584 
L 345.223636 307.584 
L 345.223636 128.787288 
L 343.955455 128.787288 
z
" clip-path="url(#p3bf3b0dc9a)" style="fill: #808080"/>
   </g>
   <g id="patch_217">
    <path d="M 345.223636 307.584 
L 346.491818 307.584 
L 346.491818 123.579616 
L 345.223636 123.579616 
z
" clip-path="url(#p3bf3b0dc9a)" style="fill: #808080"/>
   </g>
   <g id="patch_218">
    <path d="M 346.491818 307.584 
L 347.76 307.584 
L 347.76 118.371945 
L 346.491818 118.371945 
z
" clip-path="url(#p3bf3b0dc9a)" style="fill: #808080"/>
   </g>
   <g id="patch_219">
    <path d="M 347.76 307.584 
L 349.028182 307.584 
L 349.028182 66.295233 
L 347.76 66.295233 
z
" clip-path="url(#p3bf3b0dc9a)" style="fill: #808080"/>
   </g>
   <g id="patch_220">
    <path d="M 349.028182 307.584 
L 350.296364 307.584 
L 350.296364 104.484822 
L 349.028182 104.484822 
z
" clip-path="url(#p3bf3b0dc9a)" style="fill: #808080"/>
   </g>
   <g id="patch_221">
    <path d="M 350.296364 307.584 
L 351.564545 307.584 
L 351.564545 99.277151 
L 350.296364 99.277151 
z
" clip-path="url(#p3bf3b0dc9a)" style="fill: #808080"/>
   </g>
   <g id="patch_222">
    <path d="M 351.564545 307.584 
L 352.832727 307.584 
L 352.832727 125.315507 
L 351.564545 125.315507 
z
" clip-path="url(#p3bf3b0dc9a)" style="fill: #808080"/>
   </g>
   <g id="patch_223">
    <path d="M 352.832727 307.584 
L 354.100909 307.584 
L 354.100909 90.597699 
L 352.832727 90.597699 
z
" clip-path="url(#p3bf3b0dc9a)" style="fill: #808080"/>
   </g>
   <g id="patch_224">
    <path d="M 354.100909 307.584 
L 355.369091 307.584 
L 355.369091 62.823452 
L 354.100909 62.823452 
z
" clip-path="url(#p3bf3b0dc9a)" style="fill: #808080"/>
   </g>
   <g id="patch_225">
    <path d="M 355.369091 307.584 
L 356.637273 307.584 
L 356.637273 116.636055 
L 355.369091 116.636055 
z
" clip-path="url(#p3bf3b0dc9a)" style="fill: #808080"/>
   </g>
   <g id="patch_226">
    <path d="M 356.637273 307.584 
L 357.905455 307.584 
L 357.905455 102.748932 
L 356.637273 102.748932 
z
" clip-path="url(#p3bf3b0dc9a)" style="fill: #808080"/>
   </g>
   <g id="patch_227">
    <path d="M 357.905455 307.584 
L 359.173636 307.584 
L 359.173636 97.54126 
L 357.905455 97.54126 
z
" clip-path="url(#p3bf3b0dc9a)" style="fill: #808080"/>
   </g>
   <g id="patch_228">
    <path d="M 359.173636 307.584 
L 360.441818 307.584 
L 360.441818 123.579616 
L 359.173636 123.579616 
z
" clip-path="url(#p3bf3b0dc9a)" style="fill: #808080"/>
   </g>
   <g id="patch_229">
    <path d="M 360.441818 307.584 
L 361.71 307.584 
L 361.71 64.559342 
L 360.441818 64.559342 
z
" clip-path="url(#p3bf3b0dc9a)" style="fill: #808080"/>
   </g>
   <g id="patch_230">
    <path d="M 361.71 307.584 
L 362.978182 307.584 
L 362.978182 120.107836 
L 361.71 120.107836 
z
" clip-path="url(#p3bf3b0dc9a)" style="fill: #808080"/>
   </g>
   <g id="patch_231">
    <path d="M 362.978182 307.584 
L 364.246364 307.584 
L 364.246364 80.182356 
L 362.978182 80.182356 
z
" clip-path="url(#p3bf3b0dc9a)" style="fill: #808080"/>
   </g>
   <g id="patch_232">
    <path d="M 364.246364 307.584 
L 365.514545 307.584 
L 365.514545 118.371945 
L 364.246364 118.371945 
z
" clip-path="url(#p3bf3b0dc9a)" style="fill: #808080"/>
   </g>
   <g id="patch_233">
    <path d="M 365.514545 307.584 
L 366.782727 307.584 
L 366.782727 80.182356 
L 365.514545 80.182356 
z
" clip-path="url(#p3bf3b0dc9a)" style="fill: #808080"/>
   </g>
   <g id="patch_234">
    <path d="M 366.782727 307.584 
L 368.050909 307.584 
L 368.050909 109.692493 
L 366.782727 109.692493 
z
" clip-path="url(#p3bf3b0dc9a)" style="fill: #808080"/>
   </g>
   <g id="patch_235">
    <path d="M 368.050909 307.584 
L 369.319091 307.584 
L 369.319091 107.956603 
L 368.050909 107.956603 
z
" clip-path="url(#p3bf3b0dc9a)" style="fill: #808080"/>
   </g>
   <g id="patch_236">
    <path d="M 369.319091 307.584 
L 370.587273 307.584 
L 370.587273 106.220712 
L 369.319091 106.220712 
z
" clip-path="url(#p3bf3b0dc9a)" style="fill: #808080"/>
   </g>
   <g id="patch_237">
    <path d="M 370.587273 307.584 
L 371.855455 307.584 
L 371.855455 97.54126 
L 370.587273 97.54126 
z
" clip-path="url(#p3bf3b0dc9a)" style="fill: #808080"/>
   </g>
   <g id="patch_238">
    <path d="M 371.855455 307.584 
L 373.123636 307.584 
L 373.123636 146.146192 
L 371.855455 146.146192 
z
" clip-path="url(#p3bf3b0dc9a)" style="fill: #808080"/>
   </g>
   <g id="patch_239">
    <path d="M 373.123636 307.584 
L 374.391818 307.584 
L 374.391818 107.956603 
L 373.123636 107.956603 
z
" clip-path="url(#p3bf3b0dc9a)" style="fill: #808080"/>
   </g>
   <g id="patch_240">
    <path d="M 374.391818 307.584 
L 375.66 307.584 
L 375.66 118.371945 
L 374.391818 118.371945 
z
" clip-path="url(#p3bf3b0dc9a)" style="fill: #808080"/>
   </g>
   <g id="patch_241">
    <path d="M 375.66 307.584 
L 376.928182 307.584 
L 376.928182 99.277151 
L 375.66 99.277151 
z
" clip-path="url(#p3bf3b0dc9a)" style="fill: #808080"/>
   </g>
   <g id="patch_242">
    <path d="M 376.928182 307.584 
L 378.196364 307.584 
L 378.196364 104.484822 
L 376.928182 104.484822 
z
" clip-path="url(#p3bf3b0dc9a)" style="fill: #808080"/>
   </g>
   <g id="patch_243">
    <path d="M 378.196364 307.584 
L 379.464545 307.584 
L 379.464545 94.069479 
L 378.196364 94.069479 
z
" clip-path="url(#p3bf3b0dc9a)" style="fill: #808080"/>
   </g>
   <g id="patch_244">
    <path d="M 379.464545 307.584 
L 380.732727 307.584 
L 380.732727 61.087562 
L 379.464545 61.087562 
z
" clip-path="url(#p3bf3b0dc9a)" style="fill: #808080"/>
   </g>
   <g id="patch_245">
    <path d="M 380.732727 307.584 
L 382.000909 307.584 
L 382.000909 95.80537 
L 380.732727 95.80537 
z
" clip-path="url(#p3bf3b0dc9a)" style="fill: #808080"/>
   </g>
   <g id="patch_246">
    <path d="M 382.000909 307.584 
L 383.269091 307.584 
L 383.269091 128.787288 
L 382.000909 128.787288 
z
" clip-path="url(#p3bf3b0dc9a)" style="fill: #808080"/>
   </g>
   <g id="patch_247">
    <path d="M 383.269091 307.584 
L 384.537273 307.584 
L 384.537273 113.164274 
L 383.269091 113.164274 
z
" clip-path="url(#p3bf3b0dc9a)" style="fill: #808080"/>
   </g>
   <g id="patch_248">
    <path d="M 384.537273 307.584 
L 385.805455 307.584 
L 385.805455 85.390027 
L 384.537273 85.390027 
z
" clip-path="url(#p3bf3b0dc9a)" style="fill: #808080"/>
   </g>
   <g id="patch_249">
    <path d="M 385.805455 307.584 
L 387.073636 307.584 
L 387.073636 104.484822 
L 385.805455 104.484822 
z
" clip-path="url(#p3bf3b0dc9a)" style="fill: #808080"/>
   </g>
   <g id="patch_250">
    <path d="M 387.073636 307.584 
L 388.341818 307.584 
L 388.341818 113.164274 
L 387.073636 113.164274 
z
" clip-path="url(#p3bf3b0dc9a)" style="fill: #808080"/>
   </g>
   <g id="patch_251">
    <path d="M 388.341818 307.584 
L 389.61 307.584 
L 389.61 88.861808 
L 388.341818 88.861808 
z
" clip-path="url(#p3bf3b0dc9a)" style="fill: #808080"/>
   </g>
   <g id="patch_252">
    <path d="M 389.61 307.584 
L 390.878182 307.584 
L 390.878182 69.767014 
L 389.61 69.767014 
z
" clip-path="url(#p3bf3b0dc9a)" style="fill: #808080"/>
   </g>
   <g id="patch_253">
    <path d="M 390.878182 307.584 
L 392.146364 307.584 
L 392.146364 94.069479 
L 390.878182 94.069479 
z
" clip-path="url(#p3bf3b0dc9a)" style="fill: #808080"/>
   </g>
   <g id="patch_254">
    <path d="M 392.146364 307.584 
L 393.414545 307.584 
L 393.414545 101.013041 
L 392.146364 101.013041 
z
" clip-path="url(#p3bf3b0dc9a)" style="fill: #808080"/>
   </g>
   <g id="patch_255">
    <path d="M 393.414545 307.584 
L 394.682727 307.584 
L 394.682727 109.692493 
L 393.414545 109.692493 
z
" clip-path="url(#p3bf3b0dc9a)" style="fill: #808080"/>
   </g>
   <g id="patch_256">
    <path d="M 394.682727 307.584 
L 395.950909 307.584 
L 395.950909 106.220712 
L 394.682727 106.220712 
z
" clip-path="url(#p3bf3b0dc9a)" style="fill: #808080"/>
   </g>
   <g id="patch_257">
    <path d="M 395.950909 307.584 
L 397.219091 307.584 
L 397.219091 92.333589 
L 395.950909 92.333589 
z
" clip-path="url(#p3bf3b0dc9a)" style="fill: #808080"/>
   </g>
   <g id="patch_258">
    <path d="M 397.219091 307.584 
L 398.487273 307.584 
L 398.487273 130.523178 
L 397.219091 130.523178 
z
" clip-path="url(#p3bf3b0dc9a)" style="fill: #808080"/>
   </g>
   <g id="matplotlib.axis_1">
    <g id="xtick_1">
     <g id="line2d_1">
      <defs>
       <path id="m4088ef894c" d="M 0 0 
L 0 3.5 
" style="stroke: #000000; stroke-width: 0.8"/>
      </defs>
      <g>
       <use xlink:href="#m4088ef894c" x="73.832727" y="307.584" style="stroke: #000000; stroke-width: 0.8"/>
      </g>
     </g>
     <g id="text_1">
      <!-- 0 -->
      <g transform="translate(70.651477 322.182437) scale(0.1 -0.1)">
       <defs>
        <path id="DejaVuSans-30" d="M 2034 4250 
Q 1547 4250 1301 3770 
Q 1056 3291 1056 2328 
Q 1056 1369 1301 889 
Q 1547 409 2034 409 
Q 2525 409 2770 889 
Q 3016 1369 3016 2328 
Q 3016 3291 2770 3770 
Q 2525 4250 2034 4250 
z
M 2034 4750 
Q 2819 4750 3233 4129 
Q 3647 3509 3647 2328 
Q 3647 1150 3233 529 
Q 2819 -91 2034 -91 
Q 1250 -91 836 529 
Q 422 1150 422 2328 
Q 422 3509 836 4129 
Q 1250 4750 2034 4750 
z
" transform="scale(0.015625)"/>
       </defs>
       <use xlink:href="#DejaVuSans-30"/>
      </g>
     </g>
    </g>
    <g id="xtick_2">
     <g id="line2d_2">
      <g>
       <use xlink:href="#m4088ef894c" x="137.490481" y="307.584" style="stroke: #000000; stroke-width: 0.8"/>
      </g>
     </g>
     <g id="text_2">
      <!-- 50 -->
      <g transform="translate(131.127981 322.182437) scale(0.1 -0.1)">
       <defs>
        <path id="DejaVuSans-35" d="M 691 4666 
L 3169 4666 
L 3169 4134 
L 1269 4134 
L 1269 2991 
Q 1406 3038 1543 3061 
Q 1681 3084 1819 3084 
Q 2600 3084 3056 2656 
Q 3513 2228 3513 1497 
Q 3513 744 3044 326 
Q 2575 -91 1722 -91 
Q 1428 -91 1123 -41 
Q 819 9 494 109 
L 494 744 
Q 775 591 1075 516 
Q 1375 441 1709 441 
Q 2250 441 2565 725 
Q 2881 1009 2881 1497 
Q 2881 1984 2565 2268 
Q 2250 2553 1709 2553 
Q 1456 2553 1204 2497 
Q 953 2441 691 2322 
L 691 4666 
z
" transform="scale(0.015625)"/>
       </defs>
       <use xlink:href="#DejaVuSans-35"/>
       <use xlink:href="#DejaVuSans-30" x="63.623047"/>
      </g>
     </g>
    </g>
    <g id="xtick_3">
     <g id="line2d_3">
      <g>
       <use xlink:href="#m4088ef894c" x="201.148235" y="307.584" style="stroke: #000000; stroke-width: 0.8"/>
      </g>
     </g>
     <g id="text_3">
      <!-- 100 -->
      <g transform="translate(191.604485 322.182437) scale(0.1 -0.1)">
       <defs>
        <path id="DejaVuSans-31" d="M 794 531 
L 1825 531 
L 1825 4091 
L 703 3866 
L 703 4441 
L 1819 4666 
L 2450 4666 
L 2450 531 
L 3481 531 
L 3481 0 
L 794 0 
L 794 531 
z
" transform="scale(0.015625)"/>
       </defs>
       <use xlink:href="#DejaVuSans-31"/>
       <use xlink:href="#DejaVuSans-30" x="63.623047"/>
       <use xlink:href="#DejaVuSans-30" x="127.246094"/>
      </g>
     </g>
    </g>
    <g id="xtick_4">
     <g id="line2d_4">
      <g>
       <use xlink:href="#m4088ef894c" x="264.805989" y="307.584" style="stroke: #000000; stroke-width: 0.8"/>
      </g>
     </g>
     <g id="text_4">
      <!-- 150 -->
      <g transform="translate(255.262239 322.182437) scale(0.1 -0.1)">
       <use xlink:href="#DejaVuSans-31"/>
       <use xlink:href="#DejaVuSans-35" x="63.623047"/>
       <use xlink:href="#DejaVuSans-30" x="127.246094"/>
      </g>
     </g>
    </g>
    <g id="xtick_5">
     <g id="line2d_5">
      <g>
       <use xlink:href="#m4088ef894c" x="328.463743" y="307.584" style="stroke: #000000; stroke-width: 0.8"/>
      </g>
     </g>
     <g id="text_5">
      <!-- 200 -->
      <g transform="translate(318.919993 322.182437) scale(0.1 -0.1)">
       <defs>
        <path id="DejaVuSans-32" d="M 1228 531 
L 3431 531 
L 3431 0 
L 469 0 
L 469 531 
Q 828 903 1448 1529 
Q 2069 2156 2228 2338 
Q 2531 2678 2651 2914 
Q 2772 3150 2772 3378 
Q 2772 3750 2511 3984 
Q 2250 4219 1831 4219 
Q 1534 4219 1204 4116 
Q 875 4013 500 3803 
L 500 4441 
Q 881 4594 1212 4672 
Q 1544 4750 1819 4750 
Q 2544 4750 2975 4387 
Q 3406 4025 3406 3419 
Q 3406 3131 3298 2873 
Q 3191 2616 2906 2266 
Q 2828 2175 2409 1742 
Q 1991 1309 1228 531 
z
" transform="scale(0.015625)"/>
       </defs>
       <use xlink:href="#DejaVuSans-32"/>
       <use xlink:href="#DejaVuSans-30" x="63.623047"/>
       <use xlink:href="#DejaVuSans-30" x="127.246094"/>
      </g>
     </g>
    </g>
    <g id="xtick_6">
     <g id="line2d_6">
      <g>
       <use xlink:href="#m4088ef894c" x="392.121497" y="307.584" style="stroke: #000000; stroke-width: 0.8"/>
      </g>
     </g>
     <g id="text_6">
      <!-- 250 -->
      <g transform="translate(382.577747 322.182437) scale(0.1 -0.1)">
       <use xlink:href="#DejaVuSans-32"/>
       <use xlink:href="#DejaVuSans-35" x="63.623047"/>
       <use xlink:href="#DejaVuSans-30" x="127.246094"/>
      </g>
     </g>
    </g>
    <g id="text_7">
     <!-- Pixel Value -->
     <g transform="translate(209.279531 335.860562) scale(0.1 -0.1)">
      <defs>
       <path id="DejaVuSans-50" d="M 1259 4147 
L 1259 2394 
L 2053 2394 
Q 2494 2394 2734 2622 
Q 2975 2850 2975 3272 
Q 2975 3691 2734 3919 
Q 2494 4147 2053 4147 
L 1259 4147 
z
M 628 4666 
L 2053 4666 
Q 2838 4666 3239 4311 
Q 3641 3956 3641 3272 
Q 3641 2581 3239 2228 
Q 2838 1875 2053 1875 
L 1259 1875 
L 1259 0 
L 628 0 
L 628 4666 
z
" transform="scale(0.015625)"/>
       <path id="DejaVuSans-69" d="M 603 3500 
L 1178 3500 
L 1178 0 
L 603 0 
L 603 3500 
z
M 603 4863 
L 1178 4863 
L 1178 4134 
L 603 4134 
L 603 4863 
z
" transform="scale(0.015625)"/>
       <path id="DejaVuSans-78" d="M 3513 3500 
L 2247 1797 
L 3578 0 
L 2900 0 
L 1881 1375 
L 863 0 
L 184 0 
L 1544 1831 
L 300 3500 
L 978 3500 
L 1906 2253 
L 2834 3500 
L 3513 3500 
z
" transform="scale(0.015625)"/>
       <path id="DejaVuSans-65" d="M 3597 1894 
L 3597 1613 
L 953 1613 
Q 991 1019 1311 708 
Q 1631 397 2203 397 
Q 2534 397 2845 478 
Q 3156 559 3463 722 
L 3463 178 
Q 3153 47 2828 -22 
Q 2503 -91 2169 -91 
Q 1331 -91 842 396 
Q 353 884 353 1716 
Q 353 2575 817 3079 
Q 1281 3584 2069 3584 
Q 2775 3584 3186 3129 
Q 3597 2675 3597 1894 
z
M 3022 2063 
Q 3016 2534 2758 2815 
Q 2500 3097 2075 3097 
Q 1594 3097 1305 2825 
Q 1016 2553 972 2059 
L 3022 2063 
z
" transform="scale(0.015625)"/>
       <path id="DejaVuSans-6c" d="M 603 4863 
L 1178 4863 
L 1178 0 
L 603 0 
L 603 4863 
z
" transform="scale(0.015625)"/>
       <path id="DejaVuSans-20" transform="scale(0.015625)"/>
       <path id="DejaVuSans-56" d="M 1831 0 
L 50 4666 
L 709 4666 
L 2188 738 
L 3669 4666 
L 4325 4666 
L 2547 0 
L 1831 0 
z
" transform="scale(0.015625)"/>
       <path id="DejaVuSans-61" d="M 2194 1759 
Q 1497 1759 1228 1600 
Q 959 1441 959 1056 
Q 959 750 1161 570 
Q 1363 391 1709 391 
Q 2188 391 2477 730 
Q 2766 1069 2766 1631 
L 2766 1759 
L 2194 1759 
z
M 3341 1997 
L 3341 0 
L 2766 0 
L 2766 531 
Q 2569 213 2275 61 
Q 1981 -91 1556 -91 
Q 1019 -91 701 211 
Q 384 513 384 1019 
Q 384 1609 779 1909 
Q 1175 2209 1959 2209 
L 2766 2209 
L 2766 2266 
Q 2766 2663 2505 2880 
Q 2244 3097 1772 3097 
Q 1472 3097 1187 3025 
Q 903 2953 641 2809 
L 641 3341 
Q 956 3463 1253 3523 
Q 1550 3584 1831 3584 
Q 2591 3584 2966 3190 
Q 3341 2797 3341 1997 
z
" transform="scale(0.015625)"/>
       <path id="DejaVuSans-75" d="M 544 1381 
L 544 3500 
L 1119 3500 
L 1119 1403 
Q 1119 906 1312 657 
Q 1506 409 1894 409 
Q 2359 409 2629 706 
Q 2900 1003 2900 1516 
L 2900 3500 
L 3475 3500 
L 3475 0 
L 2900 0 
L 2900 538 
Q 2691 219 2414 64 
Q 2138 -91 1772 -91 
Q 1169 -91 856 284 
Q 544 659 544 1381 
z
M 1991 3584 
L 1991 3584 
z
" transform="scale(0.015625)"/>
      </defs>
      <use xlink:href="#DejaVuSans-50"/>
      <use xlink:href="#DejaVuSans-69" x="58.052734"/>
      <use xlink:href="#DejaVuSans-78" x="85.835938"/>
      <use xlink:href="#DejaVuSans-65" x="141.890625"/>
      <use xlink:href="#DejaVuSans-6c" x="203.414062"/>
      <use xlink:href="#DejaVuSans-20" x="231.197266"/>
      <use xlink:href="#DejaVuSans-56" x="262.984375"/>
      <use xlink:href="#DejaVuSans-61" x="323.642578"/>
      <use xlink:href="#DejaVuSans-6c" x="384.921875"/>
      <use xlink:href="#DejaVuSans-75" x="412.705078"/>
      <use xlink:href="#DejaVuSans-65" x="476.083984"/>
     </g>
    </g>
   </g>
   <g id="matplotlib.axis_2">
    <g id="ytick_1">
     <g id="line2d_7">
      <defs>
       <path id="mb615674d8a" d="M 0 0 
L -3.5 0 
" style="stroke: #000000; stroke-width: 0.8"/>
      </defs>
      <g>
       <use xlink:href="#mb615674d8a" x="57.6" y="307.584" style="stroke: #000000; stroke-width: 0.8"/>
      </g>
     </g>
     <g id="text_8">
      <!-- 0 -->
      <g transform="translate(44.2375 311.383219) scale(0.1 -0.1)">
       <use xlink:href="#DejaVuSans-30"/>
      </g>
     </g>
    </g>
    <g id="ytick_2">
     <g id="line2d_8">
      <g>
       <use xlink:href="#mb615674d8a" x="57.6" y="272.866192" style="stroke: #000000; stroke-width: 0.8"/>
      </g>
     </g>
     <g id="text_9">
      <!-- 20 -->
      <g transform="translate(37.875 276.665411) scale(0.1 -0.1)">
       <use xlink:href="#DejaVuSans-32"/>
       <use xlink:href="#DejaVuSans-30" x="63.623047"/>
      </g>
     </g>
    </g>
    <g id="ytick_3">
     <g id="line2d_9">
      <g>
       <use xlink:href="#mb615674d8a" x="57.6" y="238.148384" style="stroke: #000000; stroke-width: 0.8"/>
      </g>
     </g>
     <g id="text_10">
      <!-- 40 -->
      <g transform="translate(37.875 241.947602) scale(0.1 -0.1)">
       <defs>
        <path id="DejaVuSans-34" d="M 2419 4116 
L 825 1625 
L 2419 1625 
L 2419 4116 
z
M 2253 4666 
L 3047 4666 
L 3047 1625 
L 3713 1625 
L 3713 1100 
L 3047 1100 
L 3047 0 
L 2419 0 
L 2419 1100 
L 313 1100 
L 313 1709 
L 2253 4666 
z
" transform="scale(0.015625)"/>
       </defs>
       <use xlink:href="#DejaVuSans-34"/>
       <use xlink:href="#DejaVuSans-30" x="63.623047"/>
      </g>
     </g>
    </g>
    <g id="ytick_4">
     <g id="line2d_10">
      <g>
       <use xlink:href="#mb615674d8a" x="57.6" y="203.430575" style="stroke: #000000; stroke-width: 0.8"/>
      </g>
     </g>
     <g id="text_11">
      <!-- 60 -->
      <g transform="translate(37.875 207.229794) scale(0.1 -0.1)">
       <defs>
        <path id="DejaVuSans-36" d="M 2113 2584 
Q 1688 2584 1439 2293 
Q 1191 2003 1191 1497 
Q 1191 994 1439 701 
Q 1688 409 2113 409 
Q 2538 409 2786 701 
Q 3034 994 3034 1497 
Q 3034 2003 2786 2293 
Q 2538 2584 2113 2584 
z
M 3366 4563 
L 3366 3988 
Q 3128 4100 2886 4159 
Q 2644 4219 2406 4219 
Q 1781 4219 1451 3797 
Q 1122 3375 1075 2522 
Q 1259 2794 1537 2939 
Q 1816 3084 2150 3084 
Q 2853 3084 3261 2657 
Q 3669 2231 3669 1497 
Q 3669 778 3244 343 
Q 2819 -91 2113 -91 
Q 1303 -91 875 529 
Q 447 1150 447 2328 
Q 447 3434 972 4092 
Q 1497 4750 2381 4750 
Q 2619 4750 2861 4703 
Q 3103 4656 3366 4563 
z
" transform="scale(0.015625)"/>
       </defs>
       <use xlink:href="#DejaVuSans-36"/>
       <use xlink:href="#DejaVuSans-30" x="63.623047"/>
      </g>
     </g>
    </g>
    <g id="ytick_5">
     <g id="line2d_11">
      <g>
       <use xlink:href="#mb615674d8a" x="57.6" y="168.712767" style="stroke: #000000; stroke-width: 0.8"/>
      </g>
     </g>
     <g id="text_12">
      <!-- 80 -->
      <g transform="translate(37.875 172.511986) scale(0.1 -0.1)">
       <defs>
        <path id="DejaVuSans-38" d="M 2034 2216 
Q 1584 2216 1326 1975 
Q 1069 1734 1069 1313 
Q 1069 891 1326 650 
Q 1584 409 2034 409 
Q 2484 409 2743 651 
Q 3003 894 3003 1313 
Q 3003 1734 2745 1975 
Q 2488 2216 2034 2216 
z
M 1403 2484 
Q 997 2584 770 2862 
Q 544 3141 544 3541 
Q 544 4100 942 4425 
Q 1341 4750 2034 4750 
Q 2731 4750 3128 4425 
Q 3525 4100 3525 3541 
Q 3525 3141 3298 2862 
Q 3072 2584 2669 2484 
Q 3125 2378 3379 2068 
Q 3634 1759 3634 1313 
Q 3634 634 3220 271 
Q 2806 -91 2034 -91 
Q 1263 -91 848 271 
Q 434 634 434 1313 
Q 434 1759 690 2068 
Q 947 2378 1403 2484 
z
M 1172 3481 
Q 1172 3119 1398 2916 
Q 1625 2713 2034 2713 
Q 2441 2713 2670 2916 
Q 2900 3119 2900 3481 
Q 2900 3844 2670 4047 
Q 2441 4250 2034 4250 
Q 1625 4250 1398 4047 
Q 1172 3844 1172 3481 
z
" transform="scale(0.015625)"/>
       </defs>
       <use xlink:href="#DejaVuSans-38"/>
       <use xlink:href="#DejaVuSans-30" x="63.623047"/>
      </g>
     </g>
    </g>
    <g id="ytick_6">
     <g id="line2d_12">
      <g>
       <use xlink:href="#mb615674d8a" x="57.6" y="133.994959" style="stroke: #000000; stroke-width: 0.8"/>
      </g>
     </g>
     <g id="text_13">
      <!-- 100 -->
      <g transform="translate(31.5125 137.794178) scale(0.1 -0.1)">
       <use xlink:href="#DejaVuSans-31"/>
       <use xlink:href="#DejaVuSans-30" x="63.623047"/>
       <use xlink:href="#DejaVuSans-30" x="127.246094"/>
      </g>
     </g>
    </g>
    <g id="ytick_7">
     <g id="line2d_13">
      <g>
       <use xlink:href="#mb615674d8a" x="57.6" y="99.277151" style="stroke: #000000; stroke-width: 0.8"/>
      </g>
     </g>
     <g id="text_14">
      <!-- 120 -->
      <g transform="translate(31.5125 103.076369) scale(0.1 -0.1)">
       <use xlink:href="#DejaVuSans-31"/>
       <use xlink:href="#DejaVuSans-32" x="63.623047"/>
       <use xlink:href="#DejaVuSans-30" x="127.246094"/>
      </g>
     </g>
    </g>
    <g id="ytick_8">
     <g id="line2d_14">
      <g>
       <use xlink:href="#mb615674d8a" x="57.6" y="64.559342" style="stroke: #000000; stroke-width: 0.8"/>
      </g>
     </g>
     <g id="text_15">
      <!-- 140 -->
      <g transform="translate(31.5125 68.358561) scale(0.1 -0.1)">
       <use xlink:href="#DejaVuSans-31"/>
       <use xlink:href="#DejaVuSans-34" x="63.623047"/>
       <use xlink:href="#DejaVuSans-30" x="127.246094"/>
      </g>
     </g>
    </g>
    <g id="text_16">
     <!-- Frequency -->
     <g transform="translate(25.432812 200.357687) rotate(-90) scale(0.1 -0.1)">
      <defs>
       <path id="DejaVuSans-46" d="M 628 4666 
L 3309 4666 
L 3309 4134 
L 1259 4134 
L 1259 2759 
L 3109 2759 
L 3109 2228 
L 1259 2228 
L 1259 0 
L 628 0 
L 628 4666 
z
" transform="scale(0.015625)"/>
       <path id="DejaVuSans-72" d="M 2631 2963 
Q 2534 3019 2420 3045 
Q 2306 3072 2169 3072 
Q 1681 3072 1420 2755 
Q 1159 2438 1159 1844 
L 1159 0 
L 581 0 
L 581 3500 
L 1159 3500 
L 1159 2956 
Q 1341 3275 1631 3429 
Q 1922 3584 2338 3584 
Q 2397 3584 2469 3576 
Q 2541 3569 2628 3553 
L 2631 2963 
z
" transform="scale(0.015625)"/>
       <path id="DejaVuSans-71" d="M 947 1747 
Q 947 1113 1208 752 
Q 1469 391 1925 391 
Q 2381 391 2643 752 
Q 2906 1113 2906 1747 
Q 2906 2381 2643 2742 
Q 2381 3103 1925 3103 
Q 1469 3103 1208 2742 
Q 947 2381 947 1747 
z
M 2906 525 
Q 2725 213 2448 61 
Q 2172 -91 1784 -91 
Q 1150 -91 751 415 
Q 353 922 353 1747 
Q 353 2572 751 3078 
Q 1150 3584 1784 3584 
Q 2172 3584 2448 3432 
Q 2725 3281 2906 2969 
L 2906 3500 
L 3481 3500 
L 3481 -1331 
L 2906 -1331 
L 2906 525 
z
" transform="scale(0.015625)"/>
       <path id="DejaVuSans-6e" d="M 3513 2113 
L 3513 0 
L 2938 0 
L 2938 2094 
Q 2938 2591 2744 2837 
Q 2550 3084 2163 3084 
Q 1697 3084 1428 2787 
Q 1159 2491 1159 1978 
L 1159 0 
L 581 0 
L 581 3500 
L 1159 3500 
L 1159 2956 
Q 1366 3272 1645 3428 
Q 1925 3584 2291 3584 
Q 2894 3584 3203 3211 
Q 3513 2838 3513 2113 
z
" transform="scale(0.015625)"/>
       <path id="DejaVuSans-63" d="M 3122 3366 
L 3122 2828 
Q 2878 2963 2633 3030 
Q 2388 3097 2138 3097 
Q 1578 3097 1268 2742 
Q 959 2388 959 1747 
Q 959 1106 1268 751 
Q 1578 397 2138 397 
Q 2388 397 2633 464 
Q 2878 531 3122 666 
L 3122 134 
Q 2881 22 2623 -34 
Q 2366 -91 2075 -91 
Q 1284 -91 818 406 
Q 353 903 353 1747 
Q 353 2603 823 3093 
Q 1294 3584 2113 3584 
Q 2378 3584 2631 3529 
Q 2884 3475 3122 3366 
z
" transform="scale(0.015625)"/>
       <path id="DejaVuSans-79" d="M 2059 -325 
Q 1816 -950 1584 -1140 
Q 1353 -1331 966 -1331 
L 506 -1331 
L 506 -850 
L 844 -850 
Q 1081 -850 1212 -737 
Q 1344 -625 1503 -206 
L 1606 56 
L 191 3500 
L 800 3500 
L 1894 763 
L 2988 3500 
L 3597 3500 
L 2059 -325 
z
" transform="scale(0.015625)"/>
      </defs>
      <use xlink:href="#DejaVuSans-46"/>
      <use xlink:href="#DejaVuSans-72" x="50.269531"/>
      <use xlink:href="#DejaVuSans-65" x="89.132812"/>
      <use xlink:href="#DejaVuSans-71" x="150.65625"/>
      <use xlink:href="#DejaVuSans-75" x="214.132812"/>
      <use xlink:href="#DejaVuSans-65" x="277.511719"/>
      <use xlink:href="#DejaVuSans-6e" x="339.035156"/>
      <use xlink:href="#DejaVuSans-63" x="402.414062"/>
      <use xlink:href="#DejaVuSans-79" x="457.394531"/>
     </g>
    </g>
   </g>
   <g id="patch_259">
    <path d="M 57.6 307.584 
L 57.6 41.472 
" style="fill: none; stroke: #000000; stroke-width: 0.8; stroke-linejoin: miter; stroke-linecap: square"/>
   </g>
   <g id="patch_260">
    <path d="M 414.72 307.584 
L 414.72 41.472 
" style="fill: none; stroke: #000000; stroke-width: 0.8; stroke-linejoin: miter; stroke-linecap: square"/>
   </g>
   <g id="patch_261">
    <path d="M 57.6 307.584 
L 414.72 307.584 
" style="fill: none; stroke: #000000; stroke-width: 0.8; stroke-linejoin: miter; stroke-linecap: square"/>
   </g>
   <g id="patch_262">
    <path d="M 57.6 41.472 
L 414.72 41.472 
" style="fill: none; stroke: #000000; stroke-width: 0.8; stroke-linejoin: miter; stroke-linecap: square"/>
   </g>
   <g id="text_17">
    <!-- Histogram of Encrypted Image -->
    <g transform="translate(144.165937 35.472) scale(0.12 -0.12)">
     <defs>
      <path id="DejaVuSans-48" d="M 628 4666 
L 1259 4666 
L 1259 2753 
L 3553 2753 
L 3553 4666 
L 4184 4666 
L 4184 0 
L 3553 0 
L 3553 2222 
L 1259 2222 
L 1259 0 
L 628 0 
L 628 4666 
z
" transform="scale(0.015625)"/>
      <path id="DejaVuSans-73" d="M 2834 3397 
L 2834 2853 
Q 2591 2978 2328 3040 
Q 2066 3103 1784 3103 
Q 1356 3103 1142 2972 
Q 928 2841 928 2578 
Q 928 2378 1081 2264 
Q 1234 2150 1697 2047 
L 1894 2003 
Q 2506 1872 2764 1633 
Q 3022 1394 3022 966 
Q 3022 478 2636 193 
Q 2250 -91 1575 -91 
Q 1294 -91 989 -36 
Q 684 19 347 128 
L 347 722 
Q 666 556 975 473 
Q 1284 391 1588 391 
Q 1994 391 2212 530 
Q 2431 669 2431 922 
Q 2431 1156 2273 1281 
Q 2116 1406 1581 1522 
L 1381 1569 
Q 847 1681 609 1914 
Q 372 2147 372 2553 
Q 372 3047 722 3315 
Q 1072 3584 1716 3584 
Q 2034 3584 2315 3537 
Q 2597 3491 2834 3397 
z
" transform="scale(0.015625)"/>
      <path id="DejaVuSans-74" d="M 1172 4494 
L 1172 3500 
L 2356 3500 
L 2356 3053 
L 1172 3053 
L 1172 1153 
Q 1172 725 1289 603 
Q 1406 481 1766 481 
L 2356 481 
L 2356 0 
L 1766 0 
Q 1100 0 847 248 
Q 594 497 594 1153 
L 594 3053 
L 172 3053 
L 172 3500 
L 594 3500 
L 594 4494 
L 1172 4494 
z
" transform="scale(0.015625)"/>
      <path id="DejaVuSans-6f" d="M 1959 3097 
Q 1497 3097 1228 2736 
Q 959 2375 959 1747 
Q 959 1119 1226 758 
Q 1494 397 1959 397 
Q 2419 397 2687 759 
Q 2956 1122 2956 1747 
Q 2956 2369 2687 2733 
Q 2419 3097 1959 3097 
z
M 1959 3584 
Q 2709 3584 3137 3096 
Q 3566 2609 3566 1747 
Q 3566 888 3137 398 
Q 2709 -91 1959 -91 
Q 1206 -91 779 398 
Q 353 888 353 1747 
Q 353 2609 779 3096 
Q 1206 3584 1959 3584 
z
" transform="scale(0.015625)"/>
      <path id="DejaVuSans-67" d="M 2906 1791 
Q 2906 2416 2648 2759 
Q 2391 3103 1925 3103 
Q 1463 3103 1205 2759 
Q 947 2416 947 1791 
Q 947 1169 1205 825 
Q 1463 481 1925 481 
Q 2391 481 2648 825 
Q 2906 1169 2906 1791 
z
M 3481 434 
Q 3481 -459 3084 -895 
Q 2688 -1331 1869 -1331 
Q 1566 -1331 1297 -1286 
Q 1028 -1241 775 -1147 
L 775 -588 
Q 1028 -725 1275 -790 
Q 1522 -856 1778 -856 
Q 2344 -856 2625 -561 
Q 2906 -266 2906 331 
L 2906 616 
Q 2728 306 2450 153 
Q 2172 0 1784 0 
Q 1141 0 747 490 
Q 353 981 353 1791 
Q 353 2603 747 3093 
Q 1141 3584 1784 3584 
Q 2172 3584 2450 3431 
Q 2728 3278 2906 2969 
L 2906 3500 
L 3481 3500 
L 3481 434 
z
" transform="scale(0.015625)"/>
      <path id="DejaVuSans-6d" d="M 3328 2828 
Q 3544 3216 3844 3400 
Q 4144 3584 4550 3584 
Q 5097 3584 5394 3201 
Q 5691 2819 5691 2113 
L 5691 0 
L 5113 0 
L 5113 2094 
Q 5113 2597 4934 2840 
Q 4756 3084 4391 3084 
Q 3944 3084 3684 2787 
Q 3425 2491 3425 1978 
L 3425 0 
L 2847 0 
L 2847 2094 
Q 2847 2600 2669 2842 
Q 2491 3084 2119 3084 
Q 1678 3084 1418 2786 
Q 1159 2488 1159 1978 
L 1159 0 
L 581 0 
L 581 3500 
L 1159 3500 
L 1159 2956 
Q 1356 3278 1631 3431 
Q 1906 3584 2284 3584 
Q 2666 3584 2933 3390 
Q 3200 3197 3328 2828 
z
" transform="scale(0.015625)"/>
      <path id="DejaVuSans-66" d="M 2375 4863 
L 2375 4384 
L 1825 4384 
Q 1516 4384 1395 4259 
Q 1275 4134 1275 3809 
L 1275 3500 
L 2222 3500 
L 2222 3053 
L 1275 3053 
L 1275 0 
L 697 0 
L 697 3053 
L 147 3053 
L 147 3500 
L 697 3500 
L 697 3744 
Q 697 4328 969 4595 
Q 1241 4863 1831 4863 
L 2375 4863 
z
" transform="scale(0.015625)"/>
      <path id="DejaVuSans-45" d="M 628 4666 
L 3578 4666 
L 3578 4134 
L 1259 4134 
L 1259 2753 
L 3481 2753 
L 3481 2222 
L 1259 2222 
L 1259 531 
L 3634 531 
L 3634 0 
L 628 0 
L 628 4666 
z
" transform="scale(0.015625)"/>
      <path id="DejaVuSans-70" d="M 1159 525 
L 1159 -1331 
L 581 -1331 
L 581 3500 
L 1159 3500 
L 1159 2969 
Q 1341 3281 1617 3432 
Q 1894 3584 2278 3584 
Q 2916 3584 3314 3078 
Q 3713 2572 3713 1747 
Q 3713 922 3314 415 
Q 2916 -91 2278 -91 
Q 1894 -91 1617 61 
Q 1341 213 1159 525 
z
M 3116 1747 
Q 3116 2381 2855 2742 
Q 2594 3103 2138 3103 
Q 1681 3103 1420 2742 
Q 1159 2381 1159 1747 
Q 1159 1113 1420 752 
Q 1681 391 2138 391 
Q 2594 391 2855 752 
Q 3116 1113 3116 1747 
z
" transform="scale(0.015625)"/>
      <path id="DejaVuSans-64" d="M 2906 2969 
L 2906 4863 
L 3481 4863 
L 3481 0 
L 2906 0 
L 2906 525 
Q 2725 213 2448 61 
Q 2172 -91 1784 -91 
Q 1150 -91 751 415 
Q 353 922 353 1747 
Q 353 2572 751 3078 
Q 1150 3584 1784 3584 
Q 2172 3584 2448 3432 
Q 2725 3281 2906 2969 
z
M 947 1747 
Q 947 1113 1208 752 
Q 1469 391 1925 391 
Q 2381 391 2643 752 
Q 2906 1113 2906 1747 
Q 2906 2381 2643 2742 
Q 2381 3103 1925 3103 
Q 1469 3103 1208 2742 
Q 947 2381 947 1747 
z
" transform="scale(0.015625)"/>
      <path id="DejaVuSans-49" d="M 628 4666 
L 1259 4666 
L 1259 0 
L 628 0 
L 628 4666 
z
" transform="scale(0.015625)"/>
     </defs>
     <use xlink:href="#DejaVuSans-48"/>
     <use xlink:href="#DejaVuSans-69" x="75.195312"/>
     <use xlink:href="#DejaVuSans-73" x="102.978516"/>
     <use xlink:href="#DejaVuSans-74" x="155.078125"/>
     <use xlink:href="#DejaVuSans-6f" x="194.287109"/>
     <use xlink:href="#DejaVuSans-67" x="255.46875"/>
     <use xlink:href="#DejaVuSans-72" x="318.945312"/>
     <use xlink:href="#DejaVuSans-61" x="360.058594"/>
     <use xlink:href="#DejaVuSans-6d" x="421.337891"/>
     <use xlink:href="#DejaVuSans-20" x="518.75"/>
     <use xlink:href="#DejaVuSans-6f" x="550.537109"/>
     <use xlink:href="#DejaVuSans-66" x="611.71875"/>
     <use xlink:href="#DejaVuSans-20" x="646.923828"/>
     <use xlink:href="#DejaVuSans-45" x="678.710938"/>
     <use xlink:href="#DejaVuSans-6e" x="741.894531"/>
     <use xlink:href="#DejaVuSans-63" x="805.273438"/>
     <use xlink:href="#DejaVuSans-72" x="860.253906"/>
     <use xlink:href="#DejaVuSans-79" x="901.367188"/>
     <use xlink:href="#DejaVuSans-70" x="960.546875"/>
     <use xlink:href="#DejaVuSans-74" x="1024.023438"/>
     <use xlink:href="#DejaVuSans-65" x="1063.232422"/>
     <use xlink:href="#DejaVuSans-64" x="1124.755859"/>
     <use xlink:href="#DejaVuSans-20" x="1188.232422"/>
     <use xlink:href="#DejaVuSans-49" x="1220.019531"/>
     <use xlink:href="#DejaVuSans-6d" x="1249.511719"/>
     <use xlink:href="#DejaVuSans-61" x="1346.923828"/>
     <use xlink:href="#DejaVuSans-67" x="1408.203125"/>
     <use xlink:href="#DejaVuSans-65" x="1471.679688"/>
    </g>
   </g>
  </g>
 </g>
 <defs>
  <clipPath id="p3bf3b0dc9a">
   <rect x="57.6" y="41.472" width="357.12" height="266.112"/>
  </clipPath>
 </defs>
</svg>
