<?xml version="1.0" encoding="utf-8" standalone="no"?>
<!DOCTYPE svg PUBLIC "-//W3C//DTD SVG 1.1//EN"
  "http://www.w3.org/Graphics/SVG/1.1/DTD/svg11.dtd">
<svg xmlns:xlink="http://www.w3.org/1999/xlink" width="460.8pt" height="345.6pt" viewBox="0 0 460.8 345.6" xmlns="http://www.w3.org/2000/svg" version="1.1">
 <metadata>
  <rdf:RDF xmlns:dc="http://purl.org/dc/elements/1.1/" xmlns:cc="http://creativecommons.org/ns#" xmlns:rdf="http://www.w3.org/1999/02/22-rdf-syntax-ns#">
   <cc:Work>
    <dc:type rdf:resource="http://purl.org/dc/dcmitype/StillImage"/>
    <dc:date>2023-06-22T16:16:04.907007</dc:date>
    <dc:format>image/svg+xml</dc:format>
    <dc:creator>
     <cc:Agent>
      <dc:title>Matplotlib v3.6.2, https://matplotlib.org/</dc:title>
     </cc:Agent>
    </dc:creator>
   </cc:Work>
  </rdf:RDF>
 </metadata>
 <defs>
  <style type="text/css">*{stroke-linejoin: round; stroke-linecap: butt}</style>
 </defs>
 <g id="figure_1">
  <g id="patch_1">
   <path d="M 0 345.6 
L 460.8 345.6 
L 460.8 0 
L 0 0 
z
" style="fill: #ffffff"/>
  </g>
  <g id="axes_1">
   <g id="patch_2">
    <path d="M 57.6 307.584 
L 414.72 307.584 
L 414.72 41.472 
L 57.6 41.472 
z
" style="fill: #ffffff"/>
   </g>
   <g id="patch_3">
    <path d="M 73.832727 307.584 
L 75.100909 307.584 
L 75.100909 88.418743 
L 73.832727 88.418743 
z
" clip-path="url(#p56a81d3970)" style="fill: #808080"/>
   </g>
   <g id="patch_4">
    <path d="M 75.100909 307.584 
L 76.369091 307.584 
L 76.369091 84.074057 
L 75.100909 84.074057 
z
" clip-path="url(#p56a81d3970)" style="fill: #808080"/>
   </g>
   <g id="patch_5">
    <path d="M 76.369091 307.584 
L 77.637273 307.584 
L 77.637273 92.280686 
L 76.369091 92.280686 
z
" clip-path="url(#p56a81d3970)" style="fill: #808080"/>
   </g>
   <g id="patch_6">
    <path d="M 77.637273 307.584 
L 78.905455 307.584 
L 78.905455 86.005029 
L 77.637273 86.005029 
z
" clip-path="url(#p56a81d3970)" style="fill: #808080"/>
   </g>
   <g id="patch_7">
    <path d="M 78.905455 307.584 
L 80.173636 307.584 
L 80.173636 99.521829 
L 78.905455 99.521829 
z
" clip-path="url(#p56a81d3970)" style="fill: #808080"/>
   </g>
   <g id="patch_8">
    <path d="M 80.173636 307.584 
L 81.441818 307.584 
L 81.441818 80.212114 
L 80.173636 80.212114 
z
" clip-path="url(#p56a81d3970)" style="fill: #808080"/>
   </g>
   <g id="patch_9">
    <path d="M 81.441818 307.584 
L 82.71 307.584 
L 82.71 82.625829 
L 81.441818 82.625829 
z
" clip-path="url(#p56a81d3970)" style="fill: #808080"/>
   </g>
   <g id="patch_10">
    <path d="M 82.71 307.584 
L 83.978182 307.584 
L 83.978182 88.901486 
L 82.71 88.901486 
z
" clip-path="url(#p56a81d3970)" style="fill: #808080"/>
   </g>
   <g id="patch_11">
    <path d="M 83.978182 307.584 
L 85.246364 307.584 
L 85.246364 69.109029 
L 83.978182 69.109029 
z
" clip-path="url(#p56a81d3970)" style="fill: #808080"/>
   </g>
   <g id="patch_12">
    <path d="M 85.246364 307.584 
L 86.514545 307.584 
L 86.514545 100.004571 
L 85.246364 100.004571 
z
" clip-path="url(#p56a81d3970)" style="fill: #808080"/>
   </g>
   <g id="patch_13">
    <path d="M 86.514545 307.584 
L 87.782727 307.584 
L 87.782727 79.246629 
L 86.514545 79.246629 
z
" clip-path="url(#p56a81d3970)" style="fill: #808080"/>
   </g>
   <g id="patch_14">
    <path d="M 87.782727 307.584 
L 89.050909 307.584 
L 89.050909 96.625371 
L 87.782727 96.625371 
z
" clip-path="url(#p56a81d3970)" style="fill: #808080"/>
   </g>
   <g id="patch_15">
    <path d="M 89.050909 307.584 
L 90.319091 307.584 
L 90.319091 89.866971 
L 89.050909 89.866971 
z
" clip-path="url(#p56a81d3970)" style="fill: #808080"/>
   </g>
   <g id="patch_16">
    <path d="M 90.319091 307.584 
L 91.587273 307.584 
L 91.587273 79.729371 
L 90.319091 79.729371 
z
" clip-path="url(#p56a81d3970)" style="fill: #808080"/>
   </g>
   <g id="patch_17">
    <path d="M 91.587273 307.584 
L 92.855455 307.584 
L 92.855455 82.625829 
L 91.587273 82.625829 
z
" clip-path="url(#p56a81d3970)" style="fill: #808080"/>
   </g>
   <g id="patch_18">
    <path d="M 92.855455 307.584 
L 94.123636 307.584 
L 94.123636 80.212114 
L 92.855455 80.212114 
z
" clip-path="url(#p56a81d3970)" style="fill: #808080"/>
   </g>
   <g id="patch_19">
    <path d="M 94.123636 307.584 
L 95.391818 307.584 
L 95.391818 83.108571 
L 94.123636 83.108571 
z
" clip-path="url(#p56a81d3970)" style="fill: #808080"/>
   </g>
   <g id="patch_20">
    <path d="M 95.391818 307.584 
L 96.66 307.584 
L 96.66 71.522743 
L 95.391818 71.522743 
z
" clip-path="url(#p56a81d3970)" style="fill: #808080"/>
   </g>
   <g id="patch_21">
    <path d="M 96.66 307.584 
L 97.928182 307.584 
L 97.928182 74.4192 
L 96.66 74.4192 
z
" clip-path="url(#p56a81d3970)" style="fill: #808080"/>
   </g>
   <g id="patch_22">
    <path d="M 97.928182 307.584 
L 99.196364 307.584 
L 99.196364 83.108571 
L 97.928182 83.108571 
z
" clip-path="url(#p56a81d3970)" style="fill: #808080"/>
   </g>
   <g id="patch_23">
    <path d="M 99.196364 307.584 
L 100.464545 307.584 
L 100.464545 100.970057 
L 99.196364 100.970057 
z
" clip-path="url(#p56a81d3970)" style="fill: #808080"/>
   </g>
   <g id="patch_24">
    <path d="M 100.464545 307.584 
L 101.732727 307.584 
L 101.732727 85.522286 
L 100.464545 85.522286 
z
" clip-path="url(#p56a81d3970)" style="fill: #808080"/>
   </g>
   <g id="patch_25">
    <path d="M 101.732727 307.584 
L 103.000909 307.584 
L 103.000909 71.04 
L 101.732727 71.04 
z
" clip-path="url(#p56a81d3970)" style="fill: #808080"/>
   </g>
   <g id="patch_26">
    <path d="M 103.000909 307.584 
L 104.269091 307.584 
L 104.269091 85.039543 
L 103.000909 85.039543 
z
" clip-path="url(#p56a81d3970)" style="fill: #808080"/>
   </g>
   <g id="patch_27">
    <path d="M 104.269091 307.584 
L 105.537273 307.584 
L 105.537273 70.557257 
L 104.269091 70.557257 
z
" clip-path="url(#p56a81d3970)" style="fill: #808080"/>
   </g>
   <g id="patch_28">
    <path d="M 105.537273 307.584 
L 106.805455 307.584 
L 106.805455 63.316114 
L 105.537273 63.316114 
z
" clip-path="url(#p56a81d3970)" style="fill: #808080"/>
   </g>
   <g id="patch_29">
    <path d="M 106.805455 307.584 
L 108.073636 307.584 
L 108.073636 78.281143 
L 106.805455 78.281143 
z
" clip-path="url(#p56a81d3970)" style="fill: #808080"/>
   </g>
   <g id="patch_30">
    <path d="M 108.073636 307.584 
L 109.341818 307.584 
L 109.341818 86.487771 
L 108.073636 86.487771 
z
" clip-path="url(#p56a81d3970)" style="fill: #808080"/>
   </g>
   <g id="patch_31">
    <path d="M 109.341818 307.584 
L 110.61 307.584 
L 110.61 90.832457 
L 109.341818 90.832457 
z
" clip-path="url(#p56a81d3970)" style="fill: #808080"/>
   </g>
   <g id="patch_32">
    <path d="M 110.61 307.584 
L 111.878182 307.584 
L 111.878182 65.247086 
L 110.61 65.247086 
z
" clip-path="url(#p56a81d3970)" style="fill: #808080"/>
   </g>
   <g id="patch_33">
    <path d="M 111.878182 307.584 
L 113.146364 307.584 
L 113.146364 81.1776 
L 111.878182 81.1776 
z
" clip-path="url(#p56a81d3970)" style="fill: #808080"/>
   </g>
   <g id="patch_34">
    <path d="M 113.146364 307.584 
L 114.414545 307.584 
L 114.414545 78.281143 
L 113.146364 78.281143 
z
" clip-path="url(#p56a81d3970)" style="fill: #808080"/>
   </g>
   <g id="patch_35">
    <path d="M 114.414545 307.584 
L 115.682727 307.584 
L 115.682727 75.867429 
L 114.414545 75.867429 
z
" clip-path="url(#p56a81d3970)" style="fill: #808080"/>
   </g>
   <g id="patch_36">
    <path d="M 115.682727 307.584 
L 116.950909 307.584 
L 116.950909 86.487771 
L 115.682727 86.487771 
z
" clip-path="url(#p56a81d3970)" style="fill: #808080"/>
   </g>
   <g id="patch_37">
    <path d="M 116.950909 307.584 
L 118.219091 307.584 
L 118.219091 83.108571 
L 116.950909 83.108571 
z
" clip-path="url(#p56a81d3970)" style="fill: #808080"/>
   </g>
   <g id="patch_38">
    <path d="M 118.219091 307.584 
L 119.487273 307.584 
L 119.487273 93.728914 
L 118.219091 93.728914 
z
" clip-path="url(#p56a81d3970)" style="fill: #808080"/>
   </g>
   <g id="patch_39">
    <path d="M 119.487273 307.584 
L 120.755455 307.584 
L 120.755455 67.178057 
L 119.487273 67.178057 
z
" clip-path="url(#p56a81d3970)" style="fill: #808080"/>
   </g>
   <g id="patch_40">
    <path d="M 120.755455 307.584 
L 122.023636 307.584 
L 122.023636 76.350171 
L 120.755455 76.350171 
z
" clip-path="url(#p56a81d3970)" style="fill: #808080"/>
   </g>
   <g id="patch_41">
    <path d="M 122.023636 307.584 
L 123.291818 307.584 
L 123.291818 79.729371 
L 122.023636 79.729371 
z
" clip-path="url(#p56a81d3970)" style="fill: #808080"/>
   </g>
   <g id="patch_42">
    <path d="M 123.291818 307.584 
L 124.56 307.584 
L 124.56 95.177143 
L 123.291818 95.177143 
z
" clip-path="url(#p56a81d3970)" style="fill: #808080"/>
   </g>
   <g id="patch_43">
    <path d="M 124.56 307.584 
L 125.828182 307.584 
L 125.828182 74.901943 
L 124.56 74.901943 
z
" clip-path="url(#p56a81d3970)" style="fill: #808080"/>
   </g>
   <g id="patch_44">
    <path d="M 125.828182 307.584 
L 127.096364 307.584 
L 127.096364 93.728914 
L 125.828182 93.728914 
z
" clip-path="url(#p56a81d3970)" style="fill: #808080"/>
   </g>
   <g id="patch_45">
    <path d="M 127.096364 307.584 
L 128.364545 307.584 
L 128.364545 83.591314 
L 127.096364 83.591314 
z
" clip-path="url(#p56a81d3970)" style="fill: #808080"/>
   </g>
   <g id="patch_46">
    <path d="M 128.364545 307.584 
L 129.632727 307.584 
L 129.632727 104.349257 
L 128.364545 104.349257 
z
" clip-path="url(#p56a81d3970)" style="fill: #808080"/>
   </g>
   <g id="patch_47">
    <path d="M 129.632727 307.584 
L 130.900909 307.584 
L 130.900909 111.107657 
L 129.632727 111.107657 
z
" clip-path="url(#p56a81d3970)" style="fill: #808080"/>
   </g>
   <g id="patch_48">
    <path d="M 130.900909 307.584 
L 132.169091 307.584 
L 132.169091 92.280686 
L 130.900909 92.280686 
z
" clip-path="url(#p56a81d3970)" style="fill: #808080"/>
   </g>
   <g id="patch_49">
    <path d="M 132.169091 307.584 
L 133.437273 307.584 
L 133.437273 54.144 
L 132.169091 54.144 
z
" clip-path="url(#p56a81d3970)" style="fill: #808080"/>
   </g>
   <g id="patch_50">
    <path d="M 133.437273 307.584 
L 134.705455 307.584 
L 134.705455 58.005943 
L 133.437273 58.005943 
z
" clip-path="url(#p56a81d3970)" style="fill: #808080"/>
   </g>
   <g id="patch_51">
    <path d="M 134.705455 307.584 
L 135.973636 307.584 
L 135.973636 90.832457 
L 134.705455 90.832457 
z
" clip-path="url(#p56a81d3970)" style="fill: #808080"/>
   </g>
   <g id="patch_52">
    <path d="M 135.973636 307.584 
L 137.241818 307.584 
L 137.241818 78.281143 
L 135.973636 78.281143 
z
" clip-path="url(#p56a81d3970)" style="fill: #808080"/>
   </g>
   <g id="patch_53">
    <path d="M 137.241818 307.584 
L 138.51 307.584 
L 138.51 68.143543 
L 137.241818 68.143543 
z
" clip-path="url(#p56a81d3970)" style="fill: #808080"/>
   </g>
   <g id="patch_54">
    <path d="M 138.51 307.584 
L 139.778182 307.584 
L 139.778182 96.625371 
L 138.51 96.625371 
z
" clip-path="url(#p56a81d3970)" style="fill: #808080"/>
   </g>
   <g id="patch_55">
    <path d="M 139.778182 307.584 
L 141.046364 307.584 
L 141.046364 84.5568 
L 139.778182 84.5568 
z
" clip-path="url(#p56a81d3970)" style="fill: #808080"/>
   </g>
   <g id="patch_56">
    <path d="M 141.046364 307.584 
L 142.314545 307.584 
L 142.314545 81.660343 
L 141.046364 81.660343 
z
" clip-path="url(#p56a81d3970)" style="fill: #808080"/>
   </g>
   <g id="patch_57">
    <path d="M 142.314545 307.584 
L 143.582727 307.584 
L 143.582727 93.728914 
L 142.314545 93.728914 
z
" clip-path="url(#p56a81d3970)" style="fill: #808080"/>
   </g>
   <g id="patch_58">
    <path d="M 143.582727 307.584 
L 144.850909 307.584 
L 144.850909 76.350171 
L 143.582727 76.350171 
z
" clip-path="url(#p56a81d3970)" style="fill: #808080"/>
   </g>
   <g id="patch_59">
    <path d="M 144.850909 307.584 
L 146.119091 307.584 
L 146.119091 56.557714 
L 144.850909 56.557714 
z
" clip-path="url(#p56a81d3970)" style="fill: #808080"/>
   </g>
   <g id="patch_60">
    <path d="M 146.119091 307.584 
L 147.387273 307.584 
L 147.387273 89.866971 
L 146.119091 89.866971 
z
" clip-path="url(#p56a81d3970)" style="fill: #808080"/>
   </g>
   <g id="patch_61">
    <path d="M 147.387273 307.584 
L 148.655455 307.584 
L 148.655455 85.522286 
L 147.387273 85.522286 
z
" clip-path="url(#p56a81d3970)" style="fill: #808080"/>
   </g>
   <g id="patch_62">
    <path d="M 148.655455 307.584 
L 149.923636 307.584 
L 149.923636 82.625829 
L 148.655455 82.625829 
z
" clip-path="url(#p56a81d3970)" style="fill: #808080"/>
   </g>
   <g id="patch_63">
    <path d="M 149.923636 307.584 
L 151.191818 307.584 
L 151.191818 82.625829 
L 149.923636 82.625829 
z
" clip-path="url(#p56a81d3970)" style="fill: #808080"/>
   </g>
   <g id="patch_64">
    <path d="M 151.191818 307.584 
L 152.46 307.584 
L 152.46 89.866971 
L 151.191818 89.866971 
z
" clip-path="url(#p56a81d3970)" style="fill: #808080"/>
   </g>
   <g id="patch_65">
    <path d="M 152.46 307.584 
L 153.728182 307.584 
L 153.728182 94.6944 
L 152.46 94.6944 
z
" clip-path="url(#p56a81d3970)" style="fill: #808080"/>
   </g>
   <g id="patch_66">
    <path d="M 153.728182 307.584 
L 154.996364 307.584 
L 154.996364 88.901486 
L 153.728182 88.901486 
z
" clip-path="url(#p56a81d3970)" style="fill: #808080"/>
   </g>
   <g id="patch_67">
    <path d="M 154.996364 307.584 
L 156.264545 307.584 
L 156.264545 79.246629 
L 154.996364 79.246629 
z
" clip-path="url(#p56a81d3970)" style="fill: #808080"/>
   </g>
   <g id="patch_68">
    <path d="M 156.264545 307.584 
L 157.532727 307.584 
L 157.532727 78.281143 
L 156.264545 78.281143 
z
" clip-path="url(#p56a81d3970)" style="fill: #808080"/>
   </g>
   <g id="patch_69">
    <path d="M 157.532727 307.584 
L 158.800909 307.584 
L 158.800909 77.7984 
L 157.532727 77.7984 
z
" clip-path="url(#p56a81d3970)" style="fill: #808080"/>
   </g>
   <g id="patch_70">
    <path d="M 158.800909 307.584 
L 160.069091 307.584 
L 160.069091 61.867886 
L 158.800909 61.867886 
z
" clip-path="url(#p56a81d3970)" style="fill: #808080"/>
   </g>
   <g id="patch_71">
    <path d="M 160.069091 307.584 
L 161.337273 307.584 
L 161.337273 91.797943 
L 160.069091 91.797943 
z
" clip-path="url(#p56a81d3970)" style="fill: #808080"/>
   </g>
   <g id="patch_72">
    <path d="M 161.337273 307.584 
L 162.605455 307.584 
L 162.605455 86.005029 
L 161.337273 86.005029 
z
" clip-path="url(#p56a81d3970)" style="fill: #808080"/>
   </g>
   <g id="patch_73">
    <path d="M 162.605455 307.584 
L 163.873636 307.584 
L 163.873636 74.4192 
L 162.605455 74.4192 
z
" clip-path="url(#p56a81d3970)" style="fill: #808080"/>
   </g>
   <g id="patch_74">
    <path d="M 163.873636 307.584 
L 165.141818 307.584 
L 165.141818 89.384229 
L 163.873636 89.384229 
z
" clip-path="url(#p56a81d3970)" style="fill: #808080"/>
   </g>
   <g id="patch_75">
    <path d="M 165.141818 307.584 
L 166.41 307.584 
L 166.41 99.521829 
L 165.141818 99.521829 
z
" clip-path="url(#p56a81d3970)" style="fill: #808080"/>
   </g>
   <g id="patch_76">
    <path d="M 166.41 307.584 
L 167.678182 307.584 
L 167.678182 83.108571 
L 166.41 83.108571 
z
" clip-path="url(#p56a81d3970)" style="fill: #808080"/>
   </g>
   <g id="patch_77">
    <path d="M 167.678182 307.584 
L 168.946364 307.584 
L 168.946364 100.970057 
L 167.678182 100.970057 
z
" clip-path="url(#p56a81d3970)" style="fill: #808080"/>
   </g>
   <g id="patch_78">
    <path d="M 168.946364 307.584 
L 170.214545 307.584 
L 170.214545 77.7984 
L 168.946364 77.7984 
z
" clip-path="url(#p56a81d3970)" style="fill: #808080"/>
   </g>
   <g id="patch_79">
    <path d="M 170.214545 307.584 
L 171.482727 307.584 
L 171.482727 69.109029 
L 170.214545 69.109029 
z
" clip-path="url(#p56a81d3970)" style="fill: #808080"/>
   </g>
   <g id="patch_80">
    <path d="M 171.482727 307.584 
L 172.750909 307.584 
L 172.750909 75.867429 
L 171.482727 75.867429 
z
" clip-path="url(#p56a81d3970)" style="fill: #808080"/>
   </g>
   <g id="patch_81">
    <path d="M 172.750909 307.584 
L 174.019091 307.584 
L 174.019091 69.109029 
L 172.750909 69.109029 
z
" clip-path="url(#p56a81d3970)" style="fill: #808080"/>
   </g>
   <g id="patch_82">
    <path d="M 174.019091 307.584 
L 175.287273 307.584 
L 175.287273 80.212114 
L 174.019091 80.212114 
z
" clip-path="url(#p56a81d3970)" style="fill: #808080"/>
   </g>
   <g id="patch_83">
    <path d="M 175.287273 307.584 
L 176.555455 307.584 
L 176.555455 97.108114 
L 175.287273 97.108114 
z
" clip-path="url(#p56a81d3970)" style="fill: #808080"/>
   </g>
   <g id="patch_84">
    <path d="M 176.555455 307.584 
L 177.823636 307.584 
L 177.823636 61.867886 
L 176.555455 61.867886 
z
" clip-path="url(#p56a81d3970)" style="fill: #808080"/>
   </g>
   <g id="patch_85">
    <path d="M 177.823636 307.584 
L 179.091818 307.584 
L 179.091818 84.074057 
L 177.823636 84.074057 
z
" clip-path="url(#p56a81d3970)" style="fill: #808080"/>
   </g>
   <g id="patch_86">
    <path d="M 179.091818 307.584 
L 180.36 307.584 
L 180.36 81.660343 
L 179.091818 81.660343 
z
" clip-path="url(#p56a81d3970)" style="fill: #808080"/>
   </g>
   <g id="patch_87">
    <path d="M 180.36 307.584 
L 181.628182 307.584 
L 181.628182 75.867429 
L 180.36 75.867429 
z
" clip-path="url(#p56a81d3970)" style="fill: #808080"/>
   </g>
   <g id="patch_88">
    <path d="M 181.628182 307.584 
L 182.896364 307.584 
L 182.896364 76.350171 
L 181.628182 76.350171 
z
" clip-path="url(#p56a81d3970)" style="fill: #808080"/>
   </g>
   <g id="patch_89">
    <path d="M 182.896364 307.584 
L 184.164545 307.584 
L 184.164545 100.970057 
L 182.896364 100.970057 
z
" clip-path="url(#p56a81d3970)" style="fill: #808080"/>
   </g>
   <g id="patch_90">
    <path d="M 184.164545 307.584 
L 185.432727 307.584 
L 185.432727 87.453257 
L 184.164545 87.453257 
z
" clip-path="url(#p56a81d3970)" style="fill: #808080"/>
   </g>
   <g id="patch_91">
    <path d="M 185.432727 307.584 
L 186.700909 307.584 
L 186.700909 80.694857 
L 185.432727 80.694857 
z
" clip-path="url(#p56a81d3970)" style="fill: #808080"/>
   </g>
   <g id="patch_92">
    <path d="M 186.700909 307.584 
L 187.969091 307.584 
L 187.969091 83.591314 
L 186.700909 83.591314 
z
" clip-path="url(#p56a81d3970)" style="fill: #808080"/>
   </g>
   <g id="patch_93">
    <path d="M 187.969091 307.584 
L 189.237273 307.584 
L 189.237273 70.074514 
L 187.969091 70.074514 
z
" clip-path="url(#p56a81d3970)" style="fill: #808080"/>
   </g>
   <g id="patch_94">
    <path d="M 189.237273 307.584 
L 190.505455 307.584 
L 190.505455 97.108114 
L 189.237273 97.108114 
z
" clip-path="url(#p56a81d3970)" style="fill: #808080"/>
   </g>
   <g id="patch_95">
    <path d="M 190.505455 307.584 
L 191.773636 307.584 
L 191.773636 86.005029 
L 190.505455 86.005029 
z
" clip-path="url(#p56a81d3970)" style="fill: #808080"/>
   </g>
   <g id="patch_96">
    <path d="M 191.773636 307.584 
L 193.041818 307.584 
L 193.041818 94.6944 
L 191.773636 94.6944 
z
" clip-path="url(#p56a81d3970)" style="fill: #808080"/>
   </g>
   <g id="patch_97">
    <path d="M 193.041818 307.584 
L 194.31 307.584 
L 194.31 88.418743 
L 193.041818 88.418743 
z
" clip-path="url(#p56a81d3970)" style="fill: #808080"/>
   </g>
   <g id="patch_98">
    <path d="M 194.31 307.584 
L 195.578182 307.584 
L 195.578182 95.177143 
L 194.31 95.177143 
z
" clip-path="url(#p56a81d3970)" style="fill: #808080"/>
   </g>
   <g id="patch_99">
    <path d="M 195.578182 307.584 
L 196.846364 307.584 
L 196.846364 77.315657 
L 195.578182 77.315657 
z
" clip-path="url(#p56a81d3970)" style="fill: #808080"/>
   </g>
   <g id="patch_100">
    <path d="M 196.846364 307.584 
L 198.114545 307.584 
L 198.114545 96.142629 
L 196.846364 96.142629 
z
" clip-path="url(#p56a81d3970)" style="fill: #808080"/>
   </g>
   <g id="patch_101">
    <path d="M 198.114545 307.584 
L 199.382727 307.584 
L 199.382727 85.039543 
L 198.114545 85.039543 
z
" clip-path="url(#p56a81d3970)" style="fill: #808080"/>
   </g>
   <g id="patch_102">
    <path d="M 199.382727 307.584 
L 200.650909 307.584 
L 200.650909 70.074514 
L 199.382727 70.074514 
z
" clip-path="url(#p56a81d3970)" style="fill: #808080"/>
   </g>
   <g id="patch_103">
    <path d="M 200.650909 307.584 
L 201.919091 307.584 
L 201.919091 84.5568 
L 200.650909 84.5568 
z
" clip-path="url(#p56a81d3970)" style="fill: #808080"/>
   </g>
   <g id="patch_104">
    <path d="M 201.919091 307.584 
L 203.187273 307.584 
L 203.187273 80.694857 
L 201.919091 80.694857 
z
" clip-path="url(#p56a81d3970)" style="fill: #808080"/>
   </g>
   <g id="patch_105">
    <path d="M 203.187273 307.584 
L 204.455455 307.584 
L 204.455455 83.108571 
L 203.187273 83.108571 
z
" clip-path="url(#p56a81d3970)" style="fill: #808080"/>
   </g>
   <g id="patch_106">
    <path d="M 204.455455 307.584 
L 205.723636 307.584 
L 205.723636 93.728914 
L 204.455455 93.728914 
z
" clip-path="url(#p56a81d3970)" style="fill: #808080"/>
   </g>
   <g id="patch_107">
    <path d="M 205.723636 307.584 
L 206.991818 307.584 
L 206.991818 74.4192 
L 205.723636 74.4192 
z
" clip-path="url(#p56a81d3970)" style="fill: #808080"/>
   </g>
   <g id="patch_108">
    <path d="M 206.991818 307.584 
L 208.26 307.584 
L 208.26 100.004571 
L 206.991818 100.004571 
z
" clip-path="url(#p56a81d3970)" style="fill: #808080"/>
   </g>
   <g id="patch_109">
    <path d="M 208.26 307.584 
L 209.528182 307.584 
L 209.528182 82.625829 
L 208.26 82.625829 
z
" clip-path="url(#p56a81d3970)" style="fill: #808080"/>
   </g>
   <g id="patch_110">
    <path d="M 209.528182 307.584 
L 210.796364 307.584 
L 210.796364 89.384229 
L 209.528182 89.384229 
z
" clip-path="url(#p56a81d3970)" style="fill: #808080"/>
   </g>
   <g id="patch_111">
    <path d="M 210.796364 307.584 
L 212.064545 307.584 
L 212.064545 76.350171 
L 210.796364 76.350171 
z
" clip-path="url(#p56a81d3970)" style="fill: #808080"/>
   </g>
   <g id="patch_112">
    <path d="M 212.064545 307.584 
L 213.332727 307.584 
L 213.332727 80.694857 
L 212.064545 80.694857 
z
" clip-path="url(#p56a81d3970)" style="fill: #808080"/>
   </g>
   <g id="patch_113">
    <path d="M 213.332727 307.584 
L 214.600909 307.584 
L 214.600909 68.143543 
L 213.332727 68.143543 
z
" clip-path="url(#p56a81d3970)" style="fill: #808080"/>
   </g>
   <g id="patch_114">
    <path d="M 214.600909 307.584 
L 215.869091 307.584 
L 215.869091 81.1776 
L 214.600909 81.1776 
z
" clip-path="url(#p56a81d3970)" style="fill: #808080"/>
   </g>
   <g id="patch_115">
    <path d="M 215.869091 307.584 
L 217.137273 307.584 
L 217.137273 97.590857 
L 215.869091 97.590857 
z
" clip-path="url(#p56a81d3970)" style="fill: #808080"/>
   </g>
   <g id="patch_116">
    <path d="M 217.137273 307.584 
L 218.405455 307.584 
L 218.405455 74.4192 
L 217.137273 74.4192 
z
" clip-path="url(#p56a81d3970)" style="fill: #808080"/>
   </g>
   <g id="patch_117">
    <path d="M 218.405455 307.584 
L 219.673636 307.584 
L 219.673636 98.0736 
L 218.405455 98.0736 
z
" clip-path="url(#p56a81d3970)" style="fill: #808080"/>
   </g>
   <g id="patch_118">
    <path d="M 219.673636 307.584 
L 220.941818 307.584 
L 220.941818 86.005029 
L 219.673636 86.005029 
z
" clip-path="url(#p56a81d3970)" style="fill: #808080"/>
   </g>
   <g id="patch_119">
    <path d="M 220.941818 307.584 
L 222.21 307.584 
L 222.21 83.108571 
L 220.941818 83.108571 
z
" clip-path="url(#p56a81d3970)" style="fill: #808080"/>
   </g>
   <g id="patch_120">
    <path d="M 222.21 307.584 
L 223.478182 307.584 
L 223.478182 92.763429 
L 222.21 92.763429 
z
" clip-path="url(#p56a81d3970)" style="fill: #808080"/>
   </g>
   <g id="patch_121">
    <path d="M 223.478182 307.584 
L 224.746364 307.584 
L 224.746364 78.763886 
L 223.478182 78.763886 
z
" clip-path="url(#p56a81d3970)" style="fill: #808080"/>
   </g>
   <g id="patch_122">
    <path d="M 224.746364 307.584 
L 226.014545 307.584 
L 226.014545 63.316114 
L 224.746364 63.316114 
z
" clip-path="url(#p56a81d3970)" style="fill: #808080"/>
   </g>
   <g id="patch_123">
    <path d="M 226.014545 307.584 
L 227.282727 307.584 
L 227.282727 87.936 
L 226.014545 87.936 
z
" clip-path="url(#p56a81d3970)" style="fill: #808080"/>
   </g>
   <g id="patch_124">
    <path d="M 227.282727 307.584 
L 228.550909 307.584 
L 228.550909 72.970971 
L 227.282727 72.970971 
z
" clip-path="url(#p56a81d3970)" style="fill: #808080"/>
   </g>
   <g id="patch_125">
    <path d="M 228.550909 307.584 
L 229.819091 307.584 
L 229.819091 82.143086 
L 228.550909 82.143086 
z
" clip-path="url(#p56a81d3970)" style="fill: #808080"/>
   </g>
   <g id="patch_126">
    <path d="M 229.819091 307.584 
L 231.087273 307.584 
L 231.087273 73.453714 
L 229.819091 73.453714 
z
" clip-path="url(#p56a81d3970)" style="fill: #808080"/>
   </g>
   <g id="patch_127">
    <path d="M 231.087273 307.584 
L 232.355455 307.584 
L 232.355455 88.901486 
L 231.087273 88.901486 
z
" clip-path="url(#p56a81d3970)" style="fill: #808080"/>
   </g>
   <g id="patch_128">
    <path d="M 232.355455 307.584 
L 233.623636 307.584 
L 233.623636 80.694857 
L 232.355455 80.694857 
z
" clip-path="url(#p56a81d3970)" style="fill: #808080"/>
   </g>
   <g id="patch_129">
    <path d="M 233.623636 307.584 
L 234.891818 307.584 
L 234.891818 74.901943 
L 233.623636 74.901943 
z
" clip-path="url(#p56a81d3970)" style="fill: #808080"/>
   </g>
   <g id="patch_130">
    <path d="M 234.891818 307.584 
L 236.16 307.584 
L 236.16 79.729371 
L 234.891818 79.729371 
z
" clip-path="url(#p56a81d3970)" style="fill: #808080"/>
   </g>
   <g id="patch_131">
    <path d="M 236.16 307.584 
L 237.428182 307.584 
L 237.428182 84.074057 
L 236.16 84.074057 
z
" clip-path="url(#p56a81d3970)" style="fill: #808080"/>
   </g>
   <g id="patch_132">
    <path d="M 237.428182 307.584 
L 238.696364 307.584 
L 238.696364 84.074057 
L 237.428182 84.074057 
z
" clip-path="url(#p56a81d3970)" style="fill: #808080"/>
   </g>
   <g id="patch_133">
    <path d="M 238.696364 307.584 
L 239.964545 307.584 
L 239.964545 90.832457 
L 238.696364 90.832457 
z
" clip-path="url(#p56a81d3970)" style="fill: #808080"/>
   </g>
   <g id="patch_134">
    <path d="M 239.964545 307.584 
L 241.232727 307.584 
L 241.232727 79.729371 
L 239.964545 79.729371 
z
" clip-path="url(#p56a81d3970)" style="fill: #808080"/>
   </g>
   <g id="patch_135">
    <path d="M 241.232727 307.584 
L 242.500909 307.584 
L 242.500909 83.108571 
L 241.232727 83.108571 
z
" clip-path="url(#p56a81d3970)" style="fill: #808080"/>
   </g>
   <g id="patch_136">
    <path d="M 242.500909 307.584 
L 243.769091 307.584 
L 243.769091 69.591771 
L 242.500909 69.591771 
z
" clip-path="url(#p56a81d3970)" style="fill: #808080"/>
   </g>
   <g id="patch_137">
    <path d="M 243.769091 307.584 
L 245.037273 307.584 
L 245.037273 59.936914 
L 243.769091 59.936914 
z
" clip-path="url(#p56a81d3970)" style="fill: #808080"/>
   </g>
   <g id="patch_138">
    <path d="M 245.037273 307.584 
L 246.305455 307.584 
L 246.305455 88.901486 
L 245.037273 88.901486 
z
" clip-path="url(#p56a81d3970)" style="fill: #808080"/>
   </g>
   <g id="patch_139">
    <path d="M 246.305455 307.584 
L 247.573636 307.584 
L 247.573636 83.591314 
L 246.305455 83.591314 
z
" clip-path="url(#p56a81d3970)" style="fill: #808080"/>
   </g>
   <g id="patch_140">
    <path d="M 247.573636 307.584 
L 248.841818 307.584 
L 248.841818 87.936 
L 247.573636 87.936 
z
" clip-path="url(#p56a81d3970)" style="fill: #808080"/>
   </g>
   <g id="patch_141">
    <path d="M 248.841818 307.584 
L 250.11 307.584 
L 250.11 77.315657 
L 248.841818 77.315657 
z
" clip-path="url(#p56a81d3970)" style="fill: #808080"/>
   </g>
   <g id="patch_142">
    <path d="M 250.11 307.584 
L 251.378182 307.584 
L 251.378182 74.901943 
L 250.11 74.901943 
z
" clip-path="url(#p56a81d3970)" style="fill: #808080"/>
   </g>
   <g id="patch_143">
    <path d="M 251.378182 307.584 
L 252.646364 307.584 
L 252.646364 88.901486 
L 251.378182 88.901486 
z
" clip-path="url(#p56a81d3970)" style="fill: #808080"/>
   </g>
   <g id="patch_144">
    <path d="M 252.646364 307.584 
L 253.914545 307.584 
L 253.914545 76.350171 
L 252.646364 76.350171 
z
" clip-path="url(#p56a81d3970)" style="fill: #808080"/>
   </g>
   <g id="patch_145">
    <path d="M 253.914545 307.584 
L 255.182727 307.584 
L 255.182727 80.694857 
L 253.914545 80.694857 
z
" clip-path="url(#p56a81d3970)" style="fill: #808080"/>
   </g>
   <g id="patch_146">
    <path d="M 255.182727 307.584 
L 256.450909 307.584 
L 256.450909 72.005486 
L 255.182727 72.005486 
z
" clip-path="url(#p56a81d3970)" style="fill: #808080"/>
   </g>
   <g id="patch_147">
    <path d="M 256.450909 307.584 
L 257.719091 307.584 
L 257.719091 88.901486 
L 256.450909 88.901486 
z
" clip-path="url(#p56a81d3970)" style="fill: #808080"/>
   </g>
   <g id="patch_148">
    <path d="M 257.719091 307.584 
L 258.987273 307.584 
L 258.987273 83.591314 
L 257.719091 83.591314 
z
" clip-path="url(#p56a81d3970)" style="fill: #808080"/>
   </g>
   <g id="patch_149">
    <path d="M 258.987273 307.584 
L 260.255455 307.584 
L 260.255455 77.315657 
L 258.987273 77.315657 
z
" clip-path="url(#p56a81d3970)" style="fill: #808080"/>
   </g>
   <g id="patch_150">
    <path d="M 260.255455 307.584 
L 261.523636 307.584 
L 261.523636 77.315657 
L 260.255455 77.315657 
z
" clip-path="url(#p56a81d3970)" style="fill: #808080"/>
   </g>
   <g id="patch_151">
    <path d="M 261.523636 307.584 
L 262.791818 307.584 
L 262.791818 72.970971 
L 261.523636 72.970971 
z
" clip-path="url(#p56a81d3970)" style="fill: #808080"/>
   </g>
   <g id="patch_152">
    <path d="M 262.791818 307.584 
L 264.06 307.584 
L 264.06 66.695314 
L 262.791818 66.695314 
z
" clip-path="url(#p56a81d3970)" style="fill: #808080"/>
   </g>
   <g id="patch_153">
    <path d="M 264.06 307.584 
L 265.328182 307.584 
L 265.328182 90.349714 
L 264.06 90.349714 
z
" clip-path="url(#p56a81d3970)" style="fill: #808080"/>
   </g>
   <g id="patch_154">
    <path d="M 265.328182 307.584 
L 266.596364 307.584 
L 266.596364 79.729371 
L 265.328182 79.729371 
z
" clip-path="url(#p56a81d3970)" style="fill: #808080"/>
   </g>
   <g id="patch_155">
    <path d="M 266.596364 307.584 
L 267.864545 307.584 
L 267.864545 85.522286 
L 266.596364 85.522286 
z
" clip-path="url(#p56a81d3970)" style="fill: #808080"/>
   </g>
   <g id="patch_156">
    <path d="M 267.864545 307.584 
L 269.132727 307.584 
L 269.132727 92.280686 
L 267.864545 92.280686 
z
" clip-path="url(#p56a81d3970)" style="fill: #808080"/>
   </g>
   <g id="patch_157">
    <path d="M 269.132727 307.584 
L 270.400909 307.584 
L 270.400909 65.247086 
L 269.132727 65.247086 
z
" clip-path="url(#p56a81d3970)" style="fill: #808080"/>
   </g>
   <g id="patch_158">
    <path d="M 270.400909 307.584 
L 271.669091 307.584 
L 271.669091 77.315657 
L 270.400909 77.315657 
z
" clip-path="url(#p56a81d3970)" style="fill: #808080"/>
   </g>
   <g id="patch_159">
    <path d="M 271.669091 307.584 
L 272.937273 307.584 
L 272.937273 73.453714 
L 271.669091 73.453714 
z
" clip-path="url(#p56a81d3970)" style="fill: #808080"/>
   </g>
   <g id="patch_160">
    <path d="M 272.937273 307.584 
L 274.205455 307.584 
L 274.205455 74.4192 
L 272.937273 74.4192 
z
" clip-path="url(#p56a81d3970)" style="fill: #808080"/>
   </g>
   <g id="patch_161">
    <path d="M 274.205455 307.584 
L 275.473636 307.584 
L 275.473636 54.626743 
L 274.205455 54.626743 
z
" clip-path="url(#p56a81d3970)" style="fill: #808080"/>
   </g>
   <g id="patch_162">
    <path d="M 275.473636 307.584 
L 276.741818 307.584 
L 276.741818 87.453257 
L 275.473636 87.453257 
z
" clip-path="url(#p56a81d3970)" style="fill: #808080"/>
   </g>
   <g id="patch_163">
    <path d="M 276.741818 307.584 
L 278.01 307.584 
L 278.01 68.626286 
L 276.741818 68.626286 
z
" clip-path="url(#p56a81d3970)" style="fill: #808080"/>
   </g>
   <g id="patch_164">
    <path d="M 278.01 307.584 
L 279.278182 307.584 
L 279.278182 67.178057 
L 278.01 67.178057 
z
" clip-path="url(#p56a81d3970)" style="fill: #808080"/>
   </g>
   <g id="patch_165">
    <path d="M 279.278182 307.584 
L 280.546364 307.584 
L 280.546364 87.936 
L 279.278182 87.936 
z
" clip-path="url(#p56a81d3970)" style="fill: #808080"/>
   </g>
   <g id="patch_166">
    <path d="M 280.546364 307.584 
L 281.814545 307.584 
L 281.814545 80.694857 
L 280.546364 80.694857 
z
" clip-path="url(#p56a81d3970)" style="fill: #808080"/>
   </g>
   <g id="patch_167">
    <path d="M 281.814545 307.584 
L 283.082727 307.584 
L 283.082727 75.867429 
L 281.814545 75.867429 
z
" clip-path="url(#p56a81d3970)" style="fill: #808080"/>
   </g>
   <g id="patch_168">
    <path d="M 283.082727 307.584 
L 284.350909 307.584 
L 284.350909 93.246171 
L 283.082727 93.246171 
z
" clip-path="url(#p56a81d3970)" style="fill: #808080"/>
   </g>
   <g id="patch_169">
    <path d="M 284.350909 307.584 
L 285.619091 307.584 
L 285.619091 84.5568 
L 284.350909 84.5568 
z
" clip-path="url(#p56a81d3970)" style="fill: #808080"/>
   </g>
   <g id="patch_170">
    <path d="M 285.619091 307.584 
L 286.887273 307.584 
L 286.887273 83.108571 
L 285.619091 83.108571 
z
" clip-path="url(#p56a81d3970)" style="fill: #808080"/>
   </g>
   <g id="patch_171">
    <path d="M 286.887273 307.584 
L 288.155455 307.584 
L 288.155455 81.660343 
L 286.887273 81.660343 
z
" clip-path="url(#p56a81d3970)" style="fill: #808080"/>
   </g>
   <g id="patch_172">
    <path d="M 288.155455 307.584 
L 289.423636 307.584 
L 289.423636 81.660343 
L 288.155455 81.660343 
z
" clip-path="url(#p56a81d3970)" style="fill: #808080"/>
   </g>
   <g id="patch_173">
    <path d="M 289.423636 307.584 
L 290.691818 307.584 
L 290.691818 69.591771 
L 289.423636 69.591771 
z
" clip-path="url(#p56a81d3970)" style="fill: #808080"/>
   </g>
   <g id="patch_174">
    <path d="M 290.691818 307.584 
L 291.96 307.584 
L 291.96 79.729371 
L 290.691818 79.729371 
z
" clip-path="url(#p56a81d3970)" style="fill: #808080"/>
   </g>
   <g id="patch_175">
    <path d="M 291.96 307.584 
L 293.228182 307.584 
L 293.228182 91.3152 
L 291.96 91.3152 
z
" clip-path="url(#p56a81d3970)" style="fill: #808080"/>
   </g>
   <g id="patch_176">
    <path d="M 293.228182 307.584 
L 294.496364 307.584 
L 294.496364 88.901486 
L 293.228182 88.901486 
z
" clip-path="url(#p56a81d3970)" style="fill: #808080"/>
   </g>
   <g id="patch_177">
    <path d="M 294.496364 307.584 
L 295.764545 307.584 
L 295.764545 67.178057 
L 294.496364 67.178057 
z
" clip-path="url(#p56a81d3970)" style="fill: #808080"/>
   </g>
   <g id="patch_178">
    <path d="M 295.764545 307.584 
L 297.032727 307.584 
L 297.032727 72.005486 
L 295.764545 72.005486 
z
" clip-path="url(#p56a81d3970)" style="fill: #808080"/>
   </g>
   <g id="patch_179">
    <path d="M 297.032727 307.584 
L 298.300909 307.584 
L 298.300909 87.453257 
L 297.032727 87.453257 
z
" clip-path="url(#p56a81d3970)" style="fill: #808080"/>
   </g>
   <g id="patch_180">
    <path d="M 298.300909 307.584 
L 299.569091 307.584 
L 299.569091 95.177143 
L 298.300909 95.177143 
z
" clip-path="url(#p56a81d3970)" style="fill: #808080"/>
   </g>
   <g id="patch_181">
    <path d="M 299.569091 307.584 
L 300.837273 307.584 
L 300.837273 100.004571 
L 299.569091 100.004571 
z
" clip-path="url(#p56a81d3970)" style="fill: #808080"/>
   </g>
   <g id="patch_182">
    <path d="M 300.837273 307.584 
L 302.105455 307.584 
L 302.105455 67.6608 
L 300.837273 67.6608 
z
" clip-path="url(#p56a81d3970)" style="fill: #808080"/>
   </g>
   <g id="patch_183">
    <path d="M 302.105455 307.584 
L 303.373636 307.584 
L 303.373636 76.350171 
L 302.105455 76.350171 
z
" clip-path="url(#p56a81d3970)" style="fill: #808080"/>
   </g>
   <g id="patch_184">
    <path d="M 303.373636 307.584 
L 304.641818 307.584 
L 304.641818 74.4192 
L 303.373636 74.4192 
z
" clip-path="url(#p56a81d3970)" style="fill: #808080"/>
   </g>
   <g id="patch_185">
    <path d="M 304.641818 307.584 
L 305.91 307.584 
L 305.91 92.280686 
L 304.641818 92.280686 
z
" clip-path="url(#p56a81d3970)" style="fill: #808080"/>
   </g>
   <g id="patch_186">
    <path d="M 305.91 307.584 
L 307.178182 307.584 
L 307.178182 74.901943 
L 305.91 74.901943 
z
" clip-path="url(#p56a81d3970)" style="fill: #808080"/>
   </g>
   <g id="patch_187">
    <path d="M 307.178182 307.584 
L 308.446364 307.584 
L 308.446364 71.04 
L 307.178182 71.04 
z
" clip-path="url(#p56a81d3970)" style="fill: #808080"/>
   </g>
   <g id="patch_188">
    <path d="M 308.446364 307.584 
L 309.714545 307.584 
L 309.714545 68.626286 
L 308.446364 68.626286 
z
" clip-path="url(#p56a81d3970)" style="fill: #808080"/>
   </g>
   <g id="patch_189">
    <path d="M 309.714545 307.584 
L 310.982727 307.584 
L 310.982727 75.384686 
L 309.714545 75.384686 
z
" clip-path="url(#p56a81d3970)" style="fill: #808080"/>
   </g>
   <g id="patch_190">
    <path d="M 310.982727 307.584 
L 312.250909 307.584 
L 312.250909 71.522743 
L 310.982727 71.522743 
z
" clip-path="url(#p56a81d3970)" style="fill: #808080"/>
   </g>
   <g id="patch_191">
    <path d="M 312.250909 307.584 
L 313.519091 307.584 
L 313.519091 78.763886 
L 312.250909 78.763886 
z
" clip-path="url(#p56a81d3970)" style="fill: #808080"/>
   </g>
   <g id="patch_192">
    <path d="M 313.519091 307.584 
L 314.787273 307.584 
L 314.787273 69.591771 
L 313.519091 69.591771 
z
" clip-path="url(#p56a81d3970)" style="fill: #808080"/>
   </g>
   <g id="patch_193">
    <path d="M 314.787273 307.584 
L 316.055455 307.584 
L 316.055455 73.453714 
L 314.787273 73.453714 
z
" clip-path="url(#p56a81d3970)" style="fill: #808080"/>
   </g>
   <g id="patch_194">
    <path d="M 316.055455 307.584 
L 317.323636 307.584 
L 317.323636 74.4192 
L 316.055455 74.4192 
z
" clip-path="url(#p56a81d3970)" style="fill: #808080"/>
   </g>
   <g id="patch_195">
    <path d="M 317.323636 307.584 
L 318.591818 307.584 
L 318.591818 92.280686 
L 317.323636 92.280686 
z
" clip-path="url(#p56a81d3970)" style="fill: #808080"/>
   </g>
   <g id="patch_196">
    <path d="M 318.591818 307.584 
L 319.86 307.584 
L 319.86 89.866971 
L 318.591818 89.866971 
z
" clip-path="url(#p56a81d3970)" style="fill: #808080"/>
   </g>
   <g id="patch_197">
    <path d="M 319.86 307.584 
L 321.128182 307.584 
L 321.128182 86.487771 
L 319.86 86.487771 
z
" clip-path="url(#p56a81d3970)" style="fill: #808080"/>
   </g>
   <g id="patch_198">
    <path d="M 321.128182 307.584 
L 322.396364 307.584 
L 322.396364 70.074514 
L 321.128182 70.074514 
z
" clip-path="url(#p56a81d3970)" style="fill: #808080"/>
   </g>
   <g id="patch_199">
    <path d="M 322.396364 307.584 
L 323.664545 307.584 
L 323.664545 83.591314 
L 322.396364 83.591314 
z
" clip-path="url(#p56a81d3970)" style="fill: #808080"/>
   </g>
   <g id="patch_200">
    <path d="M 323.664545 307.584 
L 324.932727 307.584 
L 324.932727 72.005486 
L 323.664545 72.005486 
z
" clip-path="url(#p56a81d3970)" style="fill: #808080"/>
   </g>
   <g id="patch_201">
    <path d="M 324.932727 307.584 
L 326.200909 307.584 
L 326.200909 81.660343 
L 324.932727 81.660343 
z
" clip-path="url(#p56a81d3970)" style="fill: #808080"/>
   </g>
   <g id="patch_202">
    <path d="M 326.200909 307.584 
L 327.469091 307.584 
L 327.469091 76.350171 
L 326.200909 76.350171 
z
" clip-path="url(#p56a81d3970)" style="fill: #808080"/>
   </g>
   <g id="patch_203">
    <path d="M 327.469091 307.584 
L 328.737273 307.584 
L 328.737273 77.315657 
L 327.469091 77.315657 
z
" clip-path="url(#p56a81d3970)" style="fill: #808080"/>
   </g>
   <g id="patch_204">
    <path d="M 328.737273 307.584 
L 330.005455 307.584 
L 330.005455 74.901943 
L 328.737273 74.901943 
z
" clip-path="url(#p56a81d3970)" style="fill: #808080"/>
   </g>
   <g id="patch_205">
    <path d="M 330.005455 307.584 
L 331.273636 307.584 
L 331.273636 87.936 
L 330.005455 87.936 
z
" clip-path="url(#p56a81d3970)" style="fill: #808080"/>
   </g>
   <g id="patch_206">
    <path d="M 331.273636 307.584 
L 332.541818 307.584 
L 332.541818 78.763886 
L 331.273636 78.763886 
z
" clip-path="url(#p56a81d3970)" style="fill: #808080"/>
   </g>
   <g id="patch_207">
    <path d="M 332.541818 307.584 
L 333.81 307.584 
L 333.81 69.109029 
L 332.541818 69.109029 
z
" clip-path="url(#p56a81d3970)" style="fill: #808080"/>
   </g>
   <g id="patch_208">
    <path d="M 333.81 307.584 
L 335.078182 307.584 
L 335.078182 80.212114 
L 333.81 80.212114 
z
" clip-path="url(#p56a81d3970)" style="fill: #808080"/>
   </g>
   <g id="patch_209">
    <path d="M 335.078182 307.584 
L 336.346364 307.584 
L 336.346364 67.6608 
L 335.078182 67.6608 
z
" clip-path="url(#p56a81d3970)" style="fill: #808080"/>
   </g>
   <g id="patch_210">
    <path d="M 336.346364 307.584 
L 337.614545 307.584 
L 337.614545 94.211657 
L 336.346364 94.211657 
z
" clip-path="url(#p56a81d3970)" style="fill: #808080"/>
   </g>
   <g id="patch_211">
    <path d="M 337.614545 307.584 
L 338.882727 307.584 
L 338.882727 81.1776 
L 337.614545 81.1776 
z
" clip-path="url(#p56a81d3970)" style="fill: #808080"/>
   </g>
   <g id="patch_212">
    <path d="M 338.882727 307.584 
L 340.150909 307.584 
L 340.150909 70.074514 
L 338.882727 70.074514 
z
" clip-path="url(#p56a81d3970)" style="fill: #808080"/>
   </g>
   <g id="patch_213">
    <path d="M 340.150909 307.584 
L 341.419091 307.584 
L 341.419091 91.797943 
L 340.150909 91.797943 
z
" clip-path="url(#p56a81d3970)" style="fill: #808080"/>
   </g>
   <g id="patch_214">
    <path d="M 341.419091 307.584 
L 342.687273 307.584 
L 342.687273 82.625829 
L 341.419091 82.625829 
z
" clip-path="url(#p56a81d3970)" style="fill: #808080"/>
   </g>
   <g id="patch_215">
    <path d="M 342.687273 307.584 
L 343.955455 307.584 
L 343.955455 82.625829 
L 342.687273 82.625829 
z
" clip-path="url(#p56a81d3970)" style="fill: #808080"/>
   </g>
   <g id="patch_216">
    <path d="M 343.955455 307.584 
L 345.223636 307.584 
L 345.223636 91.3152 
L 343.955455 91.3152 
z
" clip-path="url(#p56a81d3970)" style="fill: #808080"/>
   </g>
   <g id="patch_217">
    <path d="M 345.223636 307.584 
L 346.491818 307.584 
L 346.491818 85.522286 
L 345.223636 85.522286 
z
" clip-path="url(#p56a81d3970)" style="fill: #808080"/>
   </g>
   <g id="patch_218">
    <path d="M 346.491818 307.584 
L 347.76 307.584 
L 347.76 79.729371 
L 346.491818 79.729371 
z
" clip-path="url(#p56a81d3970)" style="fill: #808080"/>
   </g>
   <g id="patch_219">
    <path d="M 347.76 307.584 
L 349.028182 307.584 
L 349.028182 79.729371 
L 347.76 79.729371 
z
" clip-path="url(#p56a81d3970)" style="fill: #808080"/>
   </g>
   <g id="patch_220">
    <path d="M 349.028182 307.584 
L 350.296364 307.584 
L 350.296364 74.4192 
L 349.028182 74.4192 
z
" clip-path="url(#p56a81d3970)" style="fill: #808080"/>
   </g>
   <g id="patch_221">
    <path d="M 350.296364 307.584 
L 351.564545 307.584 
L 351.564545 88.901486 
L 350.296364 88.901486 
z
" clip-path="url(#p56a81d3970)" style="fill: #808080"/>
   </g>
   <g id="patch_222">
    <path d="M 351.564545 307.584 
L 352.832727 307.584 
L 352.832727 64.2816 
L 351.564545 64.2816 
z
" clip-path="url(#p56a81d3970)" style="fill: #808080"/>
   </g>
   <g id="patch_223">
    <path d="M 352.832727 307.584 
L 354.100909 307.584 
L 354.100909 79.729371 
L 352.832727 79.729371 
z
" clip-path="url(#p56a81d3970)" style="fill: #808080"/>
   </g>
   <g id="patch_224">
    <path d="M 354.100909 307.584 
L 355.369091 307.584 
L 355.369091 73.936457 
L 354.100909 73.936457 
z
" clip-path="url(#p56a81d3970)" style="fill: #808080"/>
   </g>
   <g id="patch_225">
    <path d="M 355.369091 307.584 
L 356.637273 307.584 
L 356.637273 73.936457 
L 355.369091 73.936457 
z
" clip-path="url(#p56a81d3970)" style="fill: #808080"/>
   </g>
   <g id="patch_226">
    <path d="M 356.637273 307.584 
L 357.905455 307.584 
L 357.905455 75.384686 
L 356.637273 75.384686 
z
" clip-path="url(#p56a81d3970)" style="fill: #808080"/>
   </g>
   <g id="patch_227">
    <path d="M 357.905455 307.584 
L 359.173636 307.584 
L 359.173636 75.867429 
L 357.905455 75.867429 
z
" clip-path="url(#p56a81d3970)" style="fill: #808080"/>
   </g>
   <g id="patch_228">
    <path d="M 359.173636 307.584 
L 360.441818 307.584 
L 360.441818 95.659886 
L 359.173636 95.659886 
z
" clip-path="url(#p56a81d3970)" style="fill: #808080"/>
   </g>
   <g id="patch_229">
    <path d="M 360.441818 307.584 
L 361.71 307.584 
L 361.71 69.109029 
L 360.441818 69.109029 
z
" clip-path="url(#p56a81d3970)" style="fill: #808080"/>
   </g>
   <g id="patch_230">
    <path d="M 361.71 307.584 
L 362.978182 307.584 
L 362.978182 75.867429 
L 361.71 75.867429 
z
" clip-path="url(#p56a81d3970)" style="fill: #808080"/>
   </g>
   <g id="patch_231">
    <path d="M 362.978182 307.584 
L 364.246364 307.584 
L 364.246364 86.970514 
L 362.978182 86.970514 
z
" clip-path="url(#p56a81d3970)" style="fill: #808080"/>
   </g>
   <g id="patch_232">
    <path d="M 364.246364 307.584 
L 365.514545 307.584 
L 365.514545 95.177143 
L 364.246364 95.177143 
z
" clip-path="url(#p56a81d3970)" style="fill: #808080"/>
   </g>
   <g id="patch_233">
    <path d="M 365.514545 307.584 
L 366.782727 307.584 
L 366.782727 71.04 
L 365.514545 71.04 
z
" clip-path="url(#p56a81d3970)" style="fill: #808080"/>
   </g>
   <g id="patch_234">
    <path d="M 366.782727 307.584 
L 368.050909 307.584 
L 368.050909 81.660343 
L 366.782727 81.660343 
z
" clip-path="url(#p56a81d3970)" style="fill: #808080"/>
   </g>
   <g id="patch_235">
    <path d="M 368.050909 307.584 
L 369.319091 307.584 
L 369.319091 98.556343 
L 368.050909 98.556343 
z
" clip-path="url(#p56a81d3970)" style="fill: #808080"/>
   </g>
   <g id="patch_236">
    <path d="M 369.319091 307.584 
L 370.587273 307.584 
L 370.587273 72.005486 
L 369.319091 72.005486 
z
" clip-path="url(#p56a81d3970)" style="fill: #808080"/>
   </g>
   <g id="patch_237">
    <path d="M 370.587273 307.584 
L 371.855455 307.584 
L 371.855455 77.7984 
L 370.587273 77.7984 
z
" clip-path="url(#p56a81d3970)" style="fill: #808080"/>
   </g>
   <g id="patch_238">
    <path d="M 371.855455 307.584 
L 373.123636 307.584 
L 373.123636 78.763886 
L 371.855455 78.763886 
z
" clip-path="url(#p56a81d3970)" style="fill: #808080"/>
   </g>
   <g id="patch_239">
    <path d="M 373.123636 307.584 
L 374.391818 307.584 
L 374.391818 87.936 
L 373.123636 87.936 
z
" clip-path="url(#p56a81d3970)" style="fill: #808080"/>
   </g>
   <g id="patch_240">
    <path d="M 374.391818 307.584 
L 375.66 307.584 
L 375.66 71.04 
L 374.391818 71.04 
z
" clip-path="url(#p56a81d3970)" style="fill: #808080"/>
   </g>
   <g id="patch_241">
    <path d="M 375.66 307.584 
L 376.928182 307.584 
L 376.928182 77.315657 
L 375.66 77.315657 
z
" clip-path="url(#p56a81d3970)" style="fill: #808080"/>
   </g>
   <g id="patch_242">
    <path d="M 376.928182 307.584 
L 378.196364 307.584 
L 378.196364 87.936 
L 376.928182 87.936 
z
" clip-path="url(#p56a81d3970)" style="fill: #808080"/>
   </g>
   <g id="patch_243">
    <path d="M 378.196364 307.584 
L 379.464545 307.584 
L 379.464545 59.936914 
L 378.196364 59.936914 
z
" clip-path="url(#p56a81d3970)" style="fill: #808080"/>
   </g>
   <g id="patch_244">
    <path d="M 379.464545 307.584 
L 380.732727 307.584 
L 380.732727 97.590857 
L 379.464545 97.590857 
z
" clip-path="url(#p56a81d3970)" style="fill: #808080"/>
   </g>
   <g id="patch_245">
    <path d="M 380.732727 307.584 
L 382.000909 307.584 
L 382.000909 77.7984 
L 380.732727 77.7984 
z
" clip-path="url(#p56a81d3970)" style="fill: #808080"/>
   </g>
   <g id="patch_246">
    <path d="M 382.000909 307.584 
L 383.269091 307.584 
L 383.269091 76.832914 
L 382.000909 76.832914 
z
" clip-path="url(#p56a81d3970)" style="fill: #808080"/>
   </g>
   <g id="patch_247">
    <path d="M 383.269091 307.584 
L 384.537273 307.584 
L 384.537273 90.349714 
L 383.269091 90.349714 
z
" clip-path="url(#p56a81d3970)" style="fill: #808080"/>
   </g>
   <g id="patch_248">
    <path d="M 384.537273 307.584 
L 385.805455 307.584 
L 385.805455 82.143086 
L 384.537273 82.143086 
z
" clip-path="url(#p56a81d3970)" style="fill: #808080"/>
   </g>
   <g id="patch_249">
    <path d="M 385.805455 307.584 
L 387.073636 307.584 
L 387.073636 75.384686 
L 385.805455 75.384686 
z
" clip-path="url(#p56a81d3970)" style="fill: #808080"/>
   </g>
   <g id="patch_250">
    <path d="M 387.073636 307.584 
L 388.341818 307.584 
L 388.341818 87.453257 
L 387.073636 87.453257 
z
" clip-path="url(#p56a81d3970)" style="fill: #808080"/>
   </g>
   <g id="patch_251">
    <path d="M 388.341818 307.584 
L 389.61 307.584 
L 389.61 90.349714 
L 388.341818 90.349714 
z
" clip-path="url(#p56a81d3970)" style="fill: #808080"/>
   </g>
   <g id="patch_252">
    <path d="M 389.61 307.584 
L 390.878182 307.584 
L 390.878182 88.418743 
L 389.61 88.418743 
z
" clip-path="url(#p56a81d3970)" style="fill: #808080"/>
   </g>
   <g id="patch_253">
    <path d="M 390.878182 307.584 
L 392.146364 307.584 
L 392.146364 74.901943 
L 390.878182 74.901943 
z
" clip-path="url(#p56a81d3970)" style="fill: #808080"/>
   </g>
   <g id="patch_254">
    <path d="M 392.146364 307.584 
L 393.414545 307.584 
L 393.414545 59.454171 
L 392.146364 59.454171 
z
" clip-path="url(#p56a81d3970)" style="fill: #808080"/>
   </g>
   <g id="patch_255">
    <path d="M 393.414545 307.584 
L 394.682727 307.584 
L 394.682727 100.004571 
L 393.414545 100.004571 
z
" clip-path="url(#p56a81d3970)" style="fill: #808080"/>
   </g>
   <g id="patch_256">
    <path d="M 394.682727 307.584 
L 395.950909 307.584 
L 395.950909 82.143086 
L 394.682727 82.143086 
z
" clip-path="url(#p56a81d3970)" style="fill: #808080"/>
   </g>
   <g id="patch_257">
    <path d="M 395.950909 307.584 
L 397.219091 307.584 
L 397.219091 58.971429 
L 395.950909 58.971429 
z
" clip-path="url(#p56a81d3970)" style="fill: #808080"/>
   </g>
   <g id="patch_258">
    <path d="M 397.219091 307.584 
L 398.487273 307.584 
L 398.487273 76.350171 
L 397.219091 76.350171 
z
" clip-path="url(#p56a81d3970)" style="fill: #808080"/>
   </g>
   <g id="matplotlib.axis_1">
    <g id="xtick_1">
     <g id="line2d_1">
      <defs>
       <path id="me2255c65e9" d="M 0 0 
L 0 3.5 
" style="stroke: #000000; stroke-width: 0.8"/>
      </defs>
      <g>
       <use xlink:href="#me2255c65e9" x="73.832727" y="307.584" style="stroke: #000000; stroke-width: 0.8"/>
      </g>
     </g>
     <g id="text_1">
      <!-- 0 -->
      <g transform="translate(70.651477 322.182437) scale(0.1 -0.1)">
       <defs>
        <path id="DejaVuSans-30" d="M 2034 4250 
Q 1547 4250 1301 3770 
Q 1056 3291 1056 2328 
Q 1056 1369 1301 889 
Q 1547 409 2034 409 
Q 2525 409 2770 889 
Q 3016 1369 3016 2328 
Q 3016 3291 2770 3770 
Q 2525 4250 2034 4250 
z
M 2034 4750 
Q 2819 4750 3233 4129 
Q 3647 3509 3647 2328 
Q 3647 1150 3233 529 
Q 2819 -91 2034 -91 
Q 1250 -91 836 529 
Q 422 1150 422 2328 
Q 422 3509 836 4129 
Q 1250 4750 2034 4750 
z
" transform="scale(0.015625)"/>
       </defs>
       <use xlink:href="#DejaVuSans-30"/>
      </g>
     </g>
    </g>
    <g id="xtick_2">
     <g id="line2d_2">
      <g>
       <use xlink:href="#me2255c65e9" x="137.490481" y="307.584" style="stroke: #000000; stroke-width: 0.8"/>
      </g>
     </g>
     <g id="text_2">
      <!-- 50 -->
      <g transform="translate(131.127981 322.182437) scale(0.1 -0.1)">
       <defs>
        <path id="DejaVuSans-35" d="M 691 4666 
L 3169 4666 
L 3169 4134 
L 1269 4134 
L 1269 2991 
Q 1406 3038 1543 3061 
Q 1681 3084 1819 3084 
Q 2600 3084 3056 2656 
Q 3513 2228 3513 1497 
Q 3513 744 3044 326 
Q 2575 -91 1722 -91 
Q 1428 -91 1123 -41 
Q 819 9 494 109 
L 494 744 
Q 775 591 1075 516 
Q 1375 441 1709 441 
Q 2250 441 2565 725 
Q 2881 1009 2881 1497 
Q 2881 1984 2565 2268 
Q 2250 2553 1709 2553 
Q 1456 2553 1204 2497 
Q 953 2441 691 2322 
L 691 4666 
z
" transform="scale(0.015625)"/>
       </defs>
       <use xlink:href="#DejaVuSans-35"/>
       <use xlink:href="#DejaVuSans-30" x="63.623047"/>
      </g>
     </g>
    </g>
    <g id="xtick_3">
     <g id="line2d_3">
      <g>
       <use xlink:href="#me2255c65e9" x="201.148235" y="307.584" style="stroke: #000000; stroke-width: 0.8"/>
      </g>
     </g>
     <g id="text_3">
      <!-- 100 -->
      <g transform="translate(191.604485 322.182437) scale(0.1 -0.1)">
       <defs>
        <path id="DejaVuSans-31" d="M 794 531 
L 1825 531 
L 1825 4091 
L 703 3866 
L 703 4441 
L 1819 4666 
L 2450 4666 
L 2450 531 
L 3481 531 
L 3481 0 
L 794 0 
L 794 531 
z
" transform="scale(0.015625)"/>
       </defs>
       <use xlink:href="#DejaVuSans-31"/>
       <use xlink:href="#DejaVuSans-30" x="63.623047"/>
       <use xlink:href="#DejaVuSans-30" x="127.246094"/>
      </g>
     </g>
    </g>
    <g id="xtick_4">
     <g id="line2d_4">
      <g>
       <use xlink:href="#me2255c65e9" x="264.805989" y="307.584" style="stroke: #000000; stroke-width: 0.8"/>
      </g>
     </g>
     <g id="text_4">
      <!-- 150 -->
      <g transform="translate(255.262239 322.182437) scale(0.1 -0.1)">
       <use xlink:href="#DejaVuSans-31"/>
       <use xlink:href="#DejaVuSans-35" x="63.623047"/>
       <use xlink:href="#DejaVuSans-30" x="127.246094"/>
      </g>
     </g>
    </g>
    <g id="xtick_5">
     <g id="line2d_5">
      <g>
       <use xlink:href="#me2255c65e9" x="328.463743" y="307.584" style="stroke: #000000; stroke-width: 0.8"/>
      </g>
     </g>
     <g id="text_5">
      <!-- 200 -->
      <g transform="translate(318.919993 322.182437) scale(0.1 -0.1)">
       <defs>
        <path id="DejaVuSans-32" d="M 1228 531 
L 3431 531 
L 3431 0 
L 469 0 
L 469 531 
Q 828 903 1448 1529 
Q 2069 2156 2228 2338 
Q 2531 2678 2651 2914 
Q 2772 3150 2772 3378 
Q 2772 3750 2511 3984 
Q 2250 4219 1831 4219 
Q 1534 4219 1204 4116 
Q 875 4013 500 3803 
L 500 4441 
Q 881 4594 1212 4672 
Q 1544 4750 1819 4750 
Q 2544 4750 2975 4387 
Q 3406 4025 3406 3419 
Q 3406 3131 3298 2873 
Q 3191 2616 2906 2266 
Q 2828 2175 2409 1742 
Q 1991 1309 1228 531 
z
" transform="scale(0.015625)"/>
       </defs>
       <use xlink:href="#DejaVuSans-32"/>
       <use xlink:href="#DejaVuSans-30" x="63.623047"/>
       <use xlink:href="#DejaVuSans-30" x="127.246094"/>
      </g>
     </g>
    </g>
    <g id="xtick_6">
     <g id="line2d_6">
      <g>
       <use xlink:href="#me2255c65e9" x="392.121497" y="307.584" style="stroke: #000000; stroke-width: 0.8"/>
      </g>
     </g>
     <g id="text_6">
      <!-- 250 -->
      <g transform="translate(382.577747 322.182437) scale(0.1 -0.1)">
       <use xlink:href="#DejaVuSans-32"/>
       <use xlink:href="#DejaVuSans-35" x="63.623047"/>
       <use xlink:href="#DejaVuSans-30" x="127.246094"/>
      </g>
     </g>
    </g>
    <g id="text_7">
     <!-- Pixel Value -->
     <g transform="translate(209.279531 335.860562) scale(0.1 -0.1)">
      <defs>
       <path id="DejaVuSans-50" d="M 1259 4147 
L 1259 2394 
L 2053 2394 
Q 2494 2394 2734 2622 
Q 2975 2850 2975 3272 
Q 2975 3691 2734 3919 
Q 2494 4147 2053 4147 
L 1259 4147 
z
M 628 4666 
L 2053 4666 
Q 2838 4666 3239 4311 
Q 3641 3956 3641 3272 
Q 3641 2581 3239 2228 
Q 2838 1875 2053 1875 
L 1259 1875 
L 1259 0 
L 628 0 
L 628 4666 
z
" transform="scale(0.015625)"/>
       <path id="DejaVuSans-69" d="M 603 3500 
L 1178 3500 
L 1178 0 
L 603 0 
L 603 3500 
z
M 603 4863 
L 1178 4863 
L 1178 4134 
L 603 4134 
L 603 4863 
z
" transform="scale(0.015625)"/>
       <path id="DejaVuSans-78" d="M 3513 3500 
L 2247 1797 
L 3578 0 
L 2900 0 
L 1881 1375 
L 863 0 
L 184 0 
L 1544 1831 
L 300 3500 
L 978 3500 
L 1906 2253 
L 2834 3500 
L 3513 3500 
z
" transform="scale(0.015625)"/>
       <path id="DejaVuSans-65" d="M 3597 1894 
L 3597 1613 
L 953 1613 
Q 991 1019 1311 708 
Q 1631 397 2203 397 
Q 2534 397 2845 478 
Q 3156 559 3463 722 
L 3463 178 
Q 3153 47 2828 -22 
Q 2503 -91 2169 -91 
Q 1331 -91 842 396 
Q 353 884 353 1716 
Q 353 2575 817 3079 
Q 1281 3584 2069 3584 
Q 2775 3584 3186 3129 
Q 3597 2675 3597 1894 
z
M 3022 2063 
Q 3016 2534 2758 2815 
Q 2500 3097 2075 3097 
Q 1594 3097 1305 2825 
Q 1016 2553 972 2059 
L 3022 2063 
z
" transform="scale(0.015625)"/>
       <path id="DejaVuSans-6c" d="M 603 4863 
L 1178 4863 
L 1178 0 
L 603 0 
L 603 4863 
z
" transform="scale(0.015625)"/>
       <path id="DejaVuSans-20" transform="scale(0.015625)"/>
       <path id="DejaVuSans-56" d="M 1831 0 
L 50 4666 
L 709 4666 
L 2188 738 
L 3669 4666 
L 4325 4666 
L 2547 0 
L 1831 0 
z
" transform="scale(0.015625)"/>
       <path id="DejaVuSans-61" d="M 2194 1759 
Q 1497 1759 1228 1600 
Q 959 1441 959 1056 
Q 959 750 1161 570 
Q 1363 391 1709 391 
Q 2188 391 2477 730 
Q 2766 1069 2766 1631 
L 2766 1759 
L 2194 1759 
z
M 3341 1997 
L 3341 0 
L 2766 0 
L 2766 531 
Q 2569 213 2275 61 
Q 1981 -91 1556 -91 
Q 1019 -91 701 211 
Q 384 513 384 1019 
Q 384 1609 779 1909 
Q 1175 2209 1959 2209 
L 2766 2209 
L 2766 2266 
Q 2766 2663 2505 2880 
Q 2244 3097 1772 3097 
Q 1472 3097 1187 3025 
Q 903 2953 641 2809 
L 641 3341 
Q 956 3463 1253 3523 
Q 1550 3584 1831 3584 
Q 2591 3584 2966 3190 
Q 3341 2797 3341 1997 
z
" transform="scale(0.015625)"/>
       <path id="DejaVuSans-75" d="M 544 1381 
L 544 3500 
L 1119 3500 
L 1119 1403 
Q 1119 906 1312 657 
Q 1506 409 1894 409 
Q 2359 409 2629 706 
Q 2900 1003 2900 1516 
L 2900 3500 
L 3475 3500 
L 3475 0 
L 2900 0 
L 2900 538 
Q 2691 219 2414 64 
Q 2138 -91 1772 -91 
Q 1169 -91 856 284 
Q 544 659 544 1381 
z
M 1991 3584 
L 1991 3584 
z
" transform="scale(0.015625)"/>
      </defs>
      <use xlink:href="#DejaVuSans-50"/>
      <use xlink:href="#DejaVuSans-69" x="58.052734"/>
      <use xlink:href="#DejaVuSans-78" x="85.835938"/>
      <use xlink:href="#DejaVuSans-65" x="141.890625"/>
      <use xlink:href="#DejaVuSans-6c" x="203.414062"/>
      <use xlink:href="#DejaVuSans-20" x="231.197266"/>
      <use xlink:href="#DejaVuSans-56" x="262.984375"/>
      <use xlink:href="#DejaVuSans-61" x="323.642578"/>
      <use xlink:href="#DejaVuSans-6c" x="384.921875"/>
      <use xlink:href="#DejaVuSans-75" x="412.705078"/>
      <use xlink:href="#DejaVuSans-65" x="476.083984"/>
     </g>
    </g>
   </g>
   <g id="matplotlib.axis_2">
    <g id="ytick_1">
     <g id="line2d_7">
      <defs>
       <path id="m75de4967b8" d="M 0 0 
L -3.5 0 
" style="stroke: #000000; stroke-width: 0.8"/>
      </defs>
      <g>
       <use xlink:href="#m75de4967b8" x="57.6" y="307.584" style="stroke: #000000; stroke-width: 0.8"/>
      </g>
     </g>
     <g id="text_8">
      <!-- 0 -->
      <g transform="translate(44.2375 311.383219) scale(0.1 -0.1)">
       <use xlink:href="#DejaVuSans-30"/>
      </g>
     </g>
    </g>
    <g id="ytick_2">
     <g id="line2d_8">
      <g>
       <use xlink:href="#m75de4967b8" x="57.6" y="259.309714" style="stroke: #000000; stroke-width: 0.8"/>
      </g>
     </g>
     <g id="text_9">
      <!-- 100 -->
      <g transform="translate(31.5125 263.108933) scale(0.1 -0.1)">
       <use xlink:href="#DejaVuSans-31"/>
       <use xlink:href="#DejaVuSans-30" x="63.623047"/>
       <use xlink:href="#DejaVuSans-30" x="127.246094"/>
      </g>
     </g>
    </g>
    <g id="ytick_3">
     <g id="line2d_9">
      <g>
       <use xlink:href="#m75de4967b8" x="57.6" y="211.035429" style="stroke: #000000; stroke-width: 0.8"/>
      </g>
     </g>
     <g id="text_10">
      <!-- 200 -->
      <g transform="translate(31.5125 214.834647) scale(0.1 -0.1)">
       <use xlink:href="#DejaVuSans-32"/>
       <use xlink:href="#DejaVuSans-30" x="63.623047"/>
       <use xlink:href="#DejaVuSans-30" x="127.246094"/>
      </g>
     </g>
    </g>
    <g id="ytick_4">
     <g id="line2d_10">
      <g>
       <use xlink:href="#m75de4967b8" x="57.6" y="162.761143" style="stroke: #000000; stroke-width: 0.8"/>
      </g>
     </g>
     <g id="text_11">
      <!-- 300 -->
      <g transform="translate(31.5125 166.560362) scale(0.1 -0.1)">
       <defs>
        <path id="DejaVuSans-33" d="M 2597 2516 
Q 3050 2419 3304 2112 
Q 3559 1806 3559 1356 
Q 3559 666 3084 287 
Q 2609 -91 1734 -91 
Q 1441 -91 1130 -33 
Q 819 25 488 141 
L 488 750 
Q 750 597 1062 519 
Q 1375 441 1716 441 
Q 2309 441 2620 675 
Q 2931 909 2931 1356 
Q 2931 1769 2642 2001 
Q 2353 2234 1838 2234 
L 1294 2234 
L 1294 2753 
L 1863 2753 
Q 2328 2753 2575 2939 
Q 2822 3125 2822 3475 
Q 2822 3834 2567 4026 
Q 2313 4219 1838 4219 
Q 1578 4219 1281 4162 
Q 984 4106 628 3988 
L 628 4550 
Q 988 4650 1302 4700 
Q 1616 4750 1894 4750 
Q 2613 4750 3031 4423 
Q 3450 4097 3450 3541 
Q 3450 3153 3228 2886 
Q 3006 2619 2597 2516 
z
" transform="scale(0.015625)"/>
       </defs>
       <use xlink:href="#DejaVuSans-33"/>
       <use xlink:href="#DejaVuSans-30" x="63.623047"/>
       <use xlink:href="#DejaVuSans-30" x="127.246094"/>
      </g>
     </g>
    </g>
    <g id="ytick_5">
     <g id="line2d_11">
      <g>
       <use xlink:href="#m75de4967b8" x="57.6" y="114.486857" style="stroke: #000000; stroke-width: 0.8"/>
      </g>
     </g>
     <g id="text_12">
      <!-- 400 -->
      <g transform="translate(31.5125 118.286076) scale(0.1 -0.1)">
       <defs>
        <path id="DejaVuSans-34" d="M 2419 4116 
L 825 1625 
L 2419 1625 
L 2419 4116 
z
M 2253 4666 
L 3047 4666 
L 3047 1625 
L 3713 1625 
L 3713 1100 
L 3047 1100 
L 3047 0 
L 2419 0 
L 2419 1100 
L 313 1100 
L 313 1709 
L 2253 4666 
z
" transform="scale(0.015625)"/>
       </defs>
       <use xlink:href="#DejaVuSans-34"/>
       <use xlink:href="#DejaVuSans-30" x="63.623047"/>
       <use xlink:href="#DejaVuSans-30" x="127.246094"/>
      </g>
     </g>
    </g>
    <g id="ytick_6">
     <g id="line2d_12">
      <g>
       <use xlink:href="#m75de4967b8" x="57.6" y="66.212571" style="stroke: #000000; stroke-width: 0.8"/>
      </g>
     </g>
     <g id="text_13">
      <!-- 500 -->
      <g transform="translate(31.5125 70.01179) scale(0.1 -0.1)">
       <use xlink:href="#DejaVuSans-35"/>
       <use xlink:href="#DejaVuSans-30" x="63.623047"/>
       <use xlink:href="#DejaVuSans-30" x="127.246094"/>
      </g>
     </g>
    </g>
    <g id="text_14">
     <!-- Frequency -->
     <g transform="translate(25.432812 200.357687) rotate(-90) scale(0.1 -0.1)">
      <defs>
       <path id="DejaVuSans-46" d="M 628 4666 
L 3309 4666 
L 3309 4134 
L 1259 4134 
L 1259 2759 
L 3109 2759 
L 3109 2228 
L 1259 2228 
L 1259 0 
L 628 0 
L 628 4666 
z
" transform="scale(0.015625)"/>
       <path id="DejaVuSans-72" d="M 2631 2963 
Q 2534 3019 2420 3045 
Q 2306 3072 2169 3072 
Q 1681 3072 1420 2755 
Q 1159 2438 1159 1844 
L 1159 0 
L 581 0 
L 581 3500 
L 1159 3500 
L 1159 2956 
Q 1341 3275 1631 3429 
Q 1922 3584 2338 3584 
Q 2397 3584 2469 3576 
Q 2541 3569 2628 3553 
L 2631 2963 
z
" transform="scale(0.015625)"/>
       <path id="DejaVuSans-71" d="M 947 1747 
Q 947 1113 1208 752 
Q 1469 391 1925 391 
Q 2381 391 2643 752 
Q 2906 1113 2906 1747 
Q 2906 2381 2643 2742 
Q 2381 3103 1925 3103 
Q 1469 3103 1208 2742 
Q 947 2381 947 1747 
z
M 2906 525 
Q 2725 213 2448 61 
Q 2172 -91 1784 -91 
Q 1150 -91 751 415 
Q 353 922 353 1747 
Q 353 2572 751 3078 
Q 1150 3584 1784 3584 
Q 2172 3584 2448 3432 
Q 2725 3281 2906 2969 
L 2906 3500 
L 3481 3500 
L 3481 -1331 
L 2906 -1331 
L 2906 525 
z
" transform="scale(0.015625)"/>
       <path id="DejaVuSans-6e" d="M 3513 2113 
L 3513 0 
L 2938 0 
L 2938 2094 
Q 2938 2591 2744 2837 
Q 2550 3084 2163 3084 
Q 1697 3084 1428 2787 
Q 1159 2491 1159 1978 
L 1159 0 
L 581 0 
L 581 3500 
L 1159 3500 
L 1159 2956 
Q 1366 3272 1645 3428 
Q 1925 3584 2291 3584 
Q 2894 3584 3203 3211 
Q 3513 2838 3513 2113 
z
" transform="scale(0.015625)"/>
       <path id="DejaVuSans-63" d="M 3122 3366 
L 3122 2828 
Q 2878 2963 2633 3030 
Q 2388 3097 2138 3097 
Q 1578 3097 1268 2742 
Q 959 2388 959 1747 
Q 959 1106 1268 751 
Q 1578 397 2138 397 
Q 2388 397 2633 464 
Q 2878 531 3122 666 
L 3122 134 
Q 2881 22 2623 -34 
Q 2366 -91 2075 -91 
Q 1284 -91 818 406 
Q 353 903 353 1747 
Q 353 2603 823 3093 
Q 1294 3584 2113 3584 
Q 2378 3584 2631 3529 
Q 2884 3475 3122 3366 
z
" transform="scale(0.015625)"/>
       <path id="DejaVuSans-79" d="M 2059 -325 
Q 1816 -950 1584 -1140 
Q 1353 -1331 966 -1331 
L 506 -1331 
L 506 -850 
L 844 -850 
Q 1081 -850 1212 -737 
Q 1344 -625 1503 -206 
L 1606 56 
L 191 3500 
L 800 3500 
L 1894 763 
L 2988 3500 
L 3597 3500 
L 2059 -325 
z
" transform="scale(0.015625)"/>
      </defs>
      <use xlink:href="#DejaVuSans-46"/>
      <use xlink:href="#DejaVuSans-72" x="50.269531"/>
      <use xlink:href="#DejaVuSans-65" x="89.132812"/>
      <use xlink:href="#DejaVuSans-71" x="150.65625"/>
      <use xlink:href="#DejaVuSans-75" x="214.132812"/>
      <use xlink:href="#DejaVuSans-65" x="277.511719"/>
      <use xlink:href="#DejaVuSans-6e" x="339.035156"/>
      <use xlink:href="#DejaVuSans-63" x="402.414062"/>
      <use xlink:href="#DejaVuSans-79" x="457.394531"/>
     </g>
    </g>
   </g>
   <g id="patch_259">
    <path d="M 57.6 307.584 
L 57.6 41.472 
" style="fill: none; stroke: #000000; stroke-width: 0.8; stroke-linejoin: miter; stroke-linecap: square"/>
   </g>
   <g id="patch_260">
    <path d="M 414.72 307.584 
L 414.72 41.472 
" style="fill: none; stroke: #000000; stroke-width: 0.8; stroke-linejoin: miter; stroke-linecap: square"/>
   </g>
   <g id="patch_261">
    <path d="M 57.6 307.584 
L 414.72 307.584 
" style="fill: none; stroke: #000000; stroke-width: 0.8; stroke-linejoin: miter; stroke-linecap: square"/>
   </g>
   <g id="patch_262">
    <path d="M 57.6 41.472 
L 414.72 41.472 
" style="fill: none; stroke: #000000; stroke-width: 0.8; stroke-linejoin: miter; stroke-linecap: square"/>
   </g>
  </g>
 </g>
 <defs>
  <clipPath id="p56a81d3970">
   <rect x="57.6" y="41.472" width="357.12" height="266.112"/>
  </clipPath>
 </defs>
</svg>
