<?xml version="1.0" encoding="utf-8" standalone="no"?>
<!DOCTYPE svg PUBLIC "-//W3C//DTD SVG 1.1//EN"
  "http://www.w3.org/Graphics/SVG/1.1/DTD/svg11.dtd">
<svg xmlns:xlink="http://www.w3.org/1999/xlink" width="460.8pt" height="345.6pt" viewBox="0 0 460.8 345.6" xmlns="http://www.w3.org/2000/svg" version="1.1">
 <metadata>
  <rdf:RDF xmlns:dc="http://purl.org/dc/elements/1.1/" xmlns:cc="http://creativecommons.org/ns#" xmlns:rdf="http://www.w3.org/1999/02/22-rdf-syntax-ns#">
   <cc:Work>
    <dc:type rdf:resource="http://purl.org/dc/dcmitype/StillImage"/>
    <dc:date>2023-06-22T16:19:37.270256</dc:date>
    <dc:format>image/svg+xml</dc:format>
    <dc:creator>
     <cc:Agent>
      <dc:title>Matplotlib v3.6.2, https://matplotlib.org/</dc:title>
     </cc:Agent>
    </dc:creator>
   </cc:Work>
  </rdf:RDF>
 </metadata>
 <defs>
  <style type="text/css">*{stroke-linejoin: round; stroke-linecap: butt}</style>
 </defs>
 <g id="figure_1">
  <g id="patch_1">
   <path d="M 0 345.6 
L 460.8 345.6 
L 460.8 0 
L 0 0 
z
" style="fill: #ffffff"/>
  </g>
  <g id="axes_1">
   <g id="patch_2">
    <path d="M 57.6 307.584 
L 414.72 307.584 
L 414.72 41.472 
L 57.6 41.472 
z
" style="fill: #ffffff"/>
   </g>
   <g id="patch_3">
    <path d="M 73.832727 307.584 
L 75.100909 307.584 
L 75.100909 66.009169 
L 73.832727 66.009169 
z
" clip-path="url(#p7deefa7ff2)" style="fill: #808080"/>
   </g>
   <g id="patch_4">
    <path d="M 75.100909 307.584 
L 76.369091 307.584 
L 76.369091 80.247371 
L 75.100909 80.247371 
z
" clip-path="url(#p7deefa7ff2)" style="fill: #808080"/>
   </g>
   <g id="patch_5">
    <path d="M 76.369091 307.584 
L 77.637273 307.584 
L 77.637273 90.214112 
L 76.369091 90.214112 
z
" clip-path="url(#p7deefa7ff2)" style="fill: #808080"/>
   </g>
   <g id="patch_6">
    <path d="M 77.637273 307.584 
L 78.905455 307.584 
L 78.905455 102.553888 
L 77.637273 102.553888 
z
" clip-path="url(#p7deefa7ff2)" style="fill: #808080"/>
   </g>
   <g id="patch_7">
    <path d="M 78.905455 307.584 
L 80.173636 307.584 
L 80.173636 76.925124 
L 78.905455 76.925124 
z
" clip-path="url(#p7deefa7ff2)" style="fill: #808080"/>
   </g>
   <g id="patch_8">
    <path d="M 80.173636 307.584 
L 81.441818 307.584 
L 81.441818 108.723775 
L 80.173636 108.723775 
z
" clip-path="url(#p7deefa7ff2)" style="fill: #808080"/>
   </g>
   <g id="patch_9">
    <path d="M 81.441818 307.584 
L 82.71 307.584 
L 82.71 71.229843 
L 81.441818 71.229843 
z
" clip-path="url(#p7deefa7ff2)" style="fill: #808080"/>
   </g>
   <g id="patch_10">
    <path d="M 82.71 307.584 
L 83.978182 307.584 
L 83.978182 94.010966 
L 82.71 94.010966 
z
" clip-path="url(#p7deefa7ff2)" style="fill: #808080"/>
   </g>
   <g id="patch_11">
    <path d="M 83.978182 307.584 
L 85.246364 307.584 
L 85.246364 81.671191 
L 83.978182 81.671191 
z
" clip-path="url(#p7deefa7ff2)" style="fill: #808080"/>
   </g>
   <g id="patch_12">
    <path d="M 85.246364 307.584 
L 86.514545 307.584 
L 86.514545 76.450517 
L 85.246364 76.450517 
z
" clip-path="url(#p7deefa7ff2)" style="fill: #808080"/>
   </g>
   <g id="patch_13">
    <path d="M 86.514545 307.584 
L 87.782727 307.584 
L 87.782727 83.095011 
L 86.514545 83.095011 
z
" clip-path="url(#p7deefa7ff2)" style="fill: #808080"/>
   </g>
   <g id="patch_14">
    <path d="M 87.782727 307.584 
L 89.050909 307.584 
L 89.050909 54.144 
L 87.782727 54.144 
z
" clip-path="url(#p7deefa7ff2)" style="fill: #808080"/>
   </g>
   <g id="patch_15">
    <path d="M 89.050909 307.584 
L 90.319091 307.584 
L 90.319091 90.214112 
L 89.050909 90.214112 
z
" clip-path="url(#p7deefa7ff2)" style="fill: #808080"/>
   </g>
   <g id="patch_16">
    <path d="M 90.319091 307.584 
L 91.587273 307.584 
L 91.587273 103.503101 
L 90.319091 103.503101 
z
" clip-path="url(#p7deefa7ff2)" style="fill: #808080"/>
   </g>
   <g id="patch_17">
    <path d="M 91.587273 307.584 
L 92.855455 307.584 
L 92.855455 70.755236 
L 91.587273 70.755236 
z
" clip-path="url(#p7deefa7ff2)" style="fill: #808080"/>
   </g>
   <g id="patch_18">
    <path d="M 92.855455 307.584 
L 94.123636 307.584 
L 94.123636 93.53636 
L 92.855455 93.53636 
z
" clip-path="url(#p7deefa7ff2)" style="fill: #808080"/>
   </g>
   <g id="patch_19">
    <path d="M 94.123636 307.584 
L 95.391818 307.584 
L 95.391818 87.366472 
L 94.123636 87.366472 
z
" clip-path="url(#p7deefa7ff2)" style="fill: #808080"/>
   </g>
   <g id="patch_20">
    <path d="M 95.391818 307.584 
L 96.66 307.584 
L 96.66 88.790292 
L 95.391818 88.790292 
z
" clip-path="url(#p7deefa7ff2)" style="fill: #808080"/>
   </g>
   <g id="patch_21">
    <path d="M 96.66 307.584 
L 97.928182 307.584 
L 97.928182 93.061753 
L 96.66 93.061753 
z
" clip-path="url(#p7deefa7ff2)" style="fill: #808080"/>
   </g>
   <g id="patch_22">
    <path d="M 97.928182 307.584 
L 99.196364 307.584 
L 99.196364 83.569618 
L 97.928182 83.569618 
z
" clip-path="url(#p7deefa7ff2)" style="fill: #808080"/>
   </g>
   <g id="patch_23">
    <path d="M 99.196364 307.584 
L 100.464545 307.584 
L 100.464545 90.214112 
L 99.196364 90.214112 
z
" clip-path="url(#p7deefa7ff2)" style="fill: #808080"/>
   </g>
   <g id="patch_24">
    <path d="M 100.464545 307.584 
L 101.732727 307.584 
L 101.732727 90.688719 
L 100.464545 90.688719 
z
" clip-path="url(#p7deefa7ff2)" style="fill: #808080"/>
   </g>
   <g id="patch_25">
    <path d="M 101.732727 307.584 
L 103.000909 307.584 
L 103.000909 91.163326 
L 101.732727 91.163326 
z
" clip-path="url(#p7deefa7ff2)" style="fill: #808080"/>
   </g>
   <g id="patch_26">
    <path d="M 103.000909 307.584 
L 104.269091 307.584 
L 104.269091 84.044225 
L 103.000909 84.044225 
z
" clip-path="url(#p7deefa7ff2)" style="fill: #808080"/>
   </g>
   <g id="patch_27">
    <path d="M 104.269091 307.584 
L 105.537273 307.584 
L 105.537273 90.688719 
L 104.269091 90.688719 
z
" clip-path="url(#p7deefa7ff2)" style="fill: #808080"/>
   </g>
   <g id="patch_28">
    <path d="M 105.537273 307.584 
L 106.805455 307.584 
L 106.805455 83.095011 
L 105.537273 83.095011 
z
" clip-path="url(#p7deefa7ff2)" style="fill: #808080"/>
   </g>
   <g id="patch_29">
    <path d="M 106.805455 307.584 
L 108.073636 307.584 
L 108.073636 80.247371 
L 106.805455 80.247371 
z
" clip-path="url(#p7deefa7ff2)" style="fill: #808080"/>
   </g>
   <g id="patch_30">
    <path d="M 108.073636 307.584 
L 109.341818 307.584 
L 109.341818 76.450517 
L 108.073636 76.450517 
z
" clip-path="url(#p7deefa7ff2)" style="fill: #808080"/>
   </g>
   <g id="patch_31">
    <path d="M 109.341818 307.584 
L 110.61 307.584 
L 110.61 71.704449 
L 109.341818 71.704449 
z
" clip-path="url(#p7deefa7ff2)" style="fill: #808080"/>
   </g>
   <g id="patch_32">
    <path d="M 110.61 307.584 
L 111.878182 307.584 
L 111.878182 90.214112 
L 110.61 90.214112 
z
" clip-path="url(#p7deefa7ff2)" style="fill: #808080"/>
   </g>
   <g id="patch_33">
    <path d="M 111.878182 307.584 
L 113.146364 307.584 
L 113.146364 88.790292 
L 111.878182 88.790292 
z
" clip-path="url(#p7deefa7ff2)" style="fill: #808080"/>
   </g>
   <g id="patch_34">
    <path d="M 113.146364 307.584 
L 114.414545 307.584 
L 114.414545 98.282427 
L 113.146364 98.282427 
z
" clip-path="url(#p7deefa7ff2)" style="fill: #808080"/>
   </g>
   <g id="patch_35">
    <path d="M 114.414545 307.584 
L 115.682727 307.584 
L 115.682727 91.637933 
L 114.414545 91.637933 
z
" clip-path="url(#p7deefa7ff2)" style="fill: #808080"/>
   </g>
   <g id="patch_36">
    <path d="M 115.682727 307.584 
L 116.950909 307.584 
L 116.950909 103.028494 
L 115.682727 103.028494 
z
" clip-path="url(#p7deefa7ff2)" style="fill: #808080"/>
   </g>
   <g id="patch_37">
    <path d="M 116.950909 307.584 
L 118.219091 307.584 
L 118.219091 81.671191 
L 116.950909 81.671191 
z
" clip-path="url(#p7deefa7ff2)" style="fill: #808080"/>
   </g>
   <g id="patch_38">
    <path d="M 118.219091 307.584 
L 119.487273 307.584 
L 119.487273 72.653663 
L 118.219091 72.653663 
z
" clip-path="url(#p7deefa7ff2)" style="fill: #808080"/>
   </g>
   <g id="patch_39">
    <path d="M 119.487273 307.584 
L 120.755455 307.584 
L 120.755455 92.587146 
L 119.487273 92.587146 
z
" clip-path="url(#p7deefa7ff2)" style="fill: #808080"/>
   </g>
   <g id="patch_40">
    <path d="M 120.755455 307.584 
L 122.023636 307.584 
L 122.023636 86.891865 
L 120.755455 86.891865 
z
" clip-path="url(#p7deefa7ff2)" style="fill: #808080"/>
   </g>
   <g id="patch_41">
    <path d="M 122.023636 307.584 
L 123.291818 307.584 
L 123.291818 90.688719 
L 122.023636 90.688719 
z
" clip-path="url(#p7deefa7ff2)" style="fill: #808080"/>
   </g>
   <g id="patch_42">
    <path d="M 123.291818 307.584 
L 124.56 307.584 
L 124.56 96.384 
L 123.291818 96.384 
z
" clip-path="url(#p7deefa7ff2)" style="fill: #808080"/>
   </g>
   <g id="patch_43">
    <path d="M 124.56 307.584 
L 125.828182 307.584 
L 125.828182 73.602876 
L 124.56 73.602876 
z
" clip-path="url(#p7deefa7ff2)" style="fill: #808080"/>
   </g>
   <g id="patch_44">
    <path d="M 125.828182 307.584 
L 127.096364 307.584 
L 127.096364 71.229843 
L 125.828182 71.229843 
z
" clip-path="url(#p7deefa7ff2)" style="fill: #808080"/>
   </g>
   <g id="patch_45">
    <path d="M 127.096364 307.584 
L 128.364545 307.584 
L 128.364545 87.366472 
L 127.096364 87.366472 
z
" clip-path="url(#p7deefa7ff2)" style="fill: #808080"/>
   </g>
   <g id="patch_46">
    <path d="M 128.364545 307.584 
L 129.632727 307.584 
L 129.632727 96.858607 
L 128.364545 96.858607 
z
" clip-path="url(#p7deefa7ff2)" style="fill: #808080"/>
   </g>
   <g id="patch_47">
    <path d="M 129.632727 307.584 
L 130.900909 307.584 
L 130.900909 83.569618 
L 129.632727 83.569618 
z
" clip-path="url(#p7deefa7ff2)" style="fill: #808080"/>
   </g>
   <g id="patch_48">
    <path d="M 130.900909 307.584 
L 132.169091 307.584 
L 132.169091 88.315685 
L 130.900909 88.315685 
z
" clip-path="url(#p7deefa7ff2)" style="fill: #808080"/>
   </g>
   <g id="patch_49">
    <path d="M 132.169091 307.584 
L 133.437273 307.584 
L 133.437273 100.180854 
L 132.169091 100.180854 
z
" clip-path="url(#p7deefa7ff2)" style="fill: #808080"/>
   </g>
   <g id="patch_50">
    <path d="M 133.437273 307.584 
L 134.705455 307.584 
L 134.705455 84.993438 
L 133.437273 84.993438 
z
" clip-path="url(#p7deefa7ff2)" style="fill: #808080"/>
   </g>
   <g id="patch_51">
    <path d="M 134.705455 307.584 
L 135.973636 307.584 
L 135.973636 84.993438 
L 134.705455 84.993438 
z
" clip-path="url(#p7deefa7ff2)" style="fill: #808080"/>
   </g>
   <g id="patch_52">
    <path d="M 135.973636 307.584 
L 137.241818 307.584 
L 137.241818 86.891865 
L 135.973636 86.891865 
z
" clip-path="url(#p7deefa7ff2)" style="fill: #808080"/>
   </g>
   <g id="patch_53">
    <path d="M 137.241818 307.584 
L 138.51 307.584 
L 138.51 86.417258 
L 137.241818 86.417258 
z
" clip-path="url(#p7deefa7ff2)" style="fill: #808080"/>
   </g>
   <g id="patch_54">
    <path d="M 138.51 307.584 
L 139.778182 307.584 
L 139.778182 86.417258 
L 138.51 86.417258 
z
" clip-path="url(#p7deefa7ff2)" style="fill: #808080"/>
   </g>
   <g id="patch_55">
    <path d="M 139.778182 307.584 
L 141.046364 307.584 
L 141.046364 76.925124 
L 139.778182 76.925124 
z
" clip-path="url(#p7deefa7ff2)" style="fill: #808080"/>
   </g>
   <g id="patch_56">
    <path d="M 141.046364 307.584 
L 142.314545 307.584 
L 142.314545 85.468045 
L 141.046364 85.468045 
z
" clip-path="url(#p7deefa7ff2)" style="fill: #808080"/>
   </g>
   <g id="patch_57">
    <path d="M 142.314545 307.584 
L 143.582727 307.584 
L 143.582727 109.198382 
L 142.314545 109.198382 
z
" clip-path="url(#p7deefa7ff2)" style="fill: #808080"/>
   </g>
   <g id="patch_58">
    <path d="M 143.582727 307.584 
L 144.850909 307.584 
L 144.850909 78.348944 
L 143.582727 78.348944 
z
" clip-path="url(#p7deefa7ff2)" style="fill: #808080"/>
   </g>
   <g id="patch_59">
    <path d="M 144.850909 307.584 
L 146.119091 307.584 
L 146.119091 101.604674 
L 144.850909 101.604674 
z
" clip-path="url(#p7deefa7ff2)" style="fill: #808080"/>
   </g>
   <g id="patch_60">
    <path d="M 146.119091 307.584 
L 147.387273 307.584 
L 147.387273 77.874337 
L 146.119091 77.874337 
z
" clip-path="url(#p7deefa7ff2)" style="fill: #808080"/>
   </g>
   <g id="patch_61">
    <path d="M 147.387273 307.584 
L 148.655455 307.584 
L 148.655455 79.772764 
L 147.387273 79.772764 
z
" clip-path="url(#p7deefa7ff2)" style="fill: #808080"/>
   </g>
   <g id="patch_62">
    <path d="M 148.655455 307.584 
L 149.923636 307.584 
L 149.923636 81.196584 
L 148.655455 81.196584 
z
" clip-path="url(#p7deefa7ff2)" style="fill: #808080"/>
   </g>
   <g id="patch_63">
    <path d="M 149.923636 307.584 
L 151.191818 307.584 
L 151.191818 89.264899 
L 149.923636 89.264899 
z
" clip-path="url(#p7deefa7ff2)" style="fill: #808080"/>
   </g>
   <g id="patch_64">
    <path d="M 151.191818 307.584 
L 152.46 307.584 
L 152.46 73.602876 
L 151.191818 73.602876 
z
" clip-path="url(#p7deefa7ff2)" style="fill: #808080"/>
   </g>
   <g id="patch_65">
    <path d="M 152.46 307.584 
L 153.728182 307.584 
L 153.728182 79.772764 
L 152.46 79.772764 
z
" clip-path="url(#p7deefa7ff2)" style="fill: #808080"/>
   </g>
   <g id="patch_66">
    <path d="M 153.728182 307.584 
L 154.996364 307.584 
L 154.996364 95.434787 
L 153.728182 95.434787 
z
" clip-path="url(#p7deefa7ff2)" style="fill: #808080"/>
   </g>
   <g id="patch_67">
    <path d="M 154.996364 307.584 
L 156.264545 307.584 
L 156.264545 89.264899 
L 154.996364 89.264899 
z
" clip-path="url(#p7deefa7ff2)" style="fill: #808080"/>
   </g>
   <g id="patch_68">
    <path d="M 156.264545 307.584 
L 157.532727 307.584 
L 157.532727 77.39973 
L 156.264545 77.39973 
z
" clip-path="url(#p7deefa7ff2)" style="fill: #808080"/>
   </g>
   <g id="patch_69">
    <path d="M 157.532727 307.584 
L 158.800909 307.584 
L 158.800909 66.009169 
L 157.532727 66.009169 
z
" clip-path="url(#p7deefa7ff2)" style="fill: #808080"/>
   </g>
   <g id="patch_70">
    <path d="M 158.800909 307.584 
L 160.069091 307.584 
L 160.069091 82.145798 
L 158.800909 82.145798 
z
" clip-path="url(#p7deefa7ff2)" style="fill: #808080"/>
   </g>
   <g id="patch_71">
    <path d="M 160.069091 307.584 
L 161.337273 307.584 
L 161.337273 93.53636 
L 160.069091 93.53636 
z
" clip-path="url(#p7deefa7ff2)" style="fill: #808080"/>
   </g>
   <g id="patch_72">
    <path d="M 161.337273 307.584 
L 162.605455 307.584 
L 162.605455 97.333213 
L 161.337273 97.333213 
z
" clip-path="url(#p7deefa7ff2)" style="fill: #808080"/>
   </g>
   <g id="patch_73">
    <path d="M 162.605455 307.584 
L 163.873636 307.584 
L 163.873636 99.23164 
L 162.605455 99.23164 
z
" clip-path="url(#p7deefa7ff2)" style="fill: #808080"/>
   </g>
   <g id="patch_74">
    <path d="M 163.873636 307.584 
L 165.141818 307.584 
L 165.141818 91.637933 
L 163.873636 91.637933 
z
" clip-path="url(#p7deefa7ff2)" style="fill: #808080"/>
   </g>
   <g id="patch_75">
    <path d="M 165.141818 307.584 
L 166.41 307.584 
L 166.41 99.706247 
L 165.141818 99.706247 
z
" clip-path="url(#p7deefa7ff2)" style="fill: #808080"/>
   </g>
   <g id="patch_76">
    <path d="M 166.41 307.584 
L 167.678182 307.584 
L 167.678182 69.806022 
L 166.41 69.806022 
z
" clip-path="url(#p7deefa7ff2)" style="fill: #808080"/>
   </g>
   <g id="patch_77">
    <path d="M 167.678182 307.584 
L 168.946364 307.584 
L 168.946364 87.841079 
L 167.678182 87.841079 
z
" clip-path="url(#p7deefa7ff2)" style="fill: #808080"/>
   </g>
   <g id="patch_78">
    <path d="M 168.946364 307.584 
L 170.214545 307.584 
L 170.214545 89.264899 
L 168.946364 89.264899 
z
" clip-path="url(#p7deefa7ff2)" style="fill: #808080"/>
   </g>
   <g id="patch_79">
    <path d="M 170.214545 307.584 
L 171.482727 307.584 
L 171.482727 80.247371 
L 170.214545 80.247371 
z
" clip-path="url(#p7deefa7ff2)" style="fill: #808080"/>
   </g>
   <g id="patch_80">
    <path d="M 171.482727 307.584 
L 172.750909 307.584 
L 172.750909 97.333213 
L 171.482727 97.333213 
z
" clip-path="url(#p7deefa7ff2)" style="fill: #808080"/>
   </g>
   <g id="patch_81">
    <path d="M 172.750909 307.584 
L 174.019091 307.584 
L 174.019091 97.333213 
L 172.750909 97.333213 
z
" clip-path="url(#p7deefa7ff2)" style="fill: #808080"/>
   </g>
   <g id="patch_82">
    <path d="M 174.019091 307.584 
L 175.287273 307.584 
L 175.287273 79.772764 
L 174.019091 79.772764 
z
" clip-path="url(#p7deefa7ff2)" style="fill: #808080"/>
   </g>
   <g id="patch_83">
    <path d="M 175.287273 307.584 
L 176.555455 307.584 
L 176.555455 66.009169 
L 175.287273 66.009169 
z
" clip-path="url(#p7deefa7ff2)" style="fill: #808080"/>
   </g>
   <g id="patch_84">
    <path d="M 176.555455 307.584 
L 177.823636 307.584 
L 177.823636 71.229843 
L 176.555455 71.229843 
z
" clip-path="url(#p7deefa7ff2)" style="fill: #808080"/>
   </g>
   <g id="patch_85">
    <path d="M 177.823636 307.584 
L 179.091818 307.584 
L 179.091818 95.434787 
L 177.823636 95.434787 
z
" clip-path="url(#p7deefa7ff2)" style="fill: #808080"/>
   </g>
   <g id="patch_86">
    <path d="M 179.091818 307.584 
L 180.36 307.584 
L 180.36 72.653663 
L 179.091818 72.653663 
z
" clip-path="url(#p7deefa7ff2)" style="fill: #808080"/>
   </g>
   <g id="patch_87">
    <path d="M 180.36 307.584 
L 181.628182 307.584 
L 181.628182 84.044225 
L 180.36 84.044225 
z
" clip-path="url(#p7deefa7ff2)" style="fill: #808080"/>
   </g>
   <g id="patch_88">
    <path d="M 181.628182 307.584 
L 182.896364 307.584 
L 182.896364 83.095011 
L 181.628182 83.095011 
z
" clip-path="url(#p7deefa7ff2)" style="fill: #808080"/>
   </g>
   <g id="patch_89">
    <path d="M 182.896364 307.584 
L 184.164545 307.584 
L 184.164545 103.028494 
L 182.896364 103.028494 
z
" clip-path="url(#p7deefa7ff2)" style="fill: #808080"/>
   </g>
   <g id="patch_90">
    <path d="M 184.164545 307.584 
L 185.432727 307.584 
L 185.432727 93.061753 
L 184.164545 93.061753 
z
" clip-path="url(#p7deefa7ff2)" style="fill: #808080"/>
   </g>
   <g id="patch_91">
    <path d="M 185.432727 307.584 
L 186.700909 307.584 
L 186.700909 88.790292 
L 185.432727 88.790292 
z
" clip-path="url(#p7deefa7ff2)" style="fill: #808080"/>
   </g>
   <g id="patch_92">
    <path d="M 186.700909 307.584 
L 187.969091 307.584 
L 187.969091 91.637933 
L 186.700909 91.637933 
z
" clip-path="url(#p7deefa7ff2)" style="fill: #808080"/>
   </g>
   <g id="patch_93">
    <path d="M 187.969091 307.584 
L 189.237273 307.584 
L 189.237273 87.841079 
L 187.969091 87.841079 
z
" clip-path="url(#p7deefa7ff2)" style="fill: #808080"/>
   </g>
   <g id="patch_94">
    <path d="M 189.237273 307.584 
L 190.505455 307.584 
L 190.505455 67.907596 
L 189.237273 67.907596 
z
" clip-path="url(#p7deefa7ff2)" style="fill: #808080"/>
   </g>
   <g id="patch_95">
    <path d="M 190.505455 307.584 
L 191.773636 307.584 
L 191.773636 82.620404 
L 190.505455 82.620404 
z
" clip-path="url(#p7deefa7ff2)" style="fill: #808080"/>
   </g>
   <g id="patch_96">
    <path d="M 191.773636 307.584 
L 193.041818 307.584 
L 193.041818 59.364674 
L 191.773636 59.364674 
z
" clip-path="url(#p7deefa7ff2)" style="fill: #808080"/>
   </g>
   <g id="patch_97">
    <path d="M 193.041818 307.584 
L 194.31 307.584 
L 194.31 83.569618 
L 193.041818 83.569618 
z
" clip-path="url(#p7deefa7ff2)" style="fill: #808080"/>
   </g>
   <g id="patch_98">
    <path d="M 194.31 307.584 
L 195.578182 307.584 
L 195.578182 82.620404 
L 194.31 82.620404 
z
" clip-path="url(#p7deefa7ff2)" style="fill: #808080"/>
   </g>
   <g id="patch_99">
    <path d="M 195.578182 307.584 
L 196.846364 307.584 
L 196.846364 78.348944 
L 195.578182 78.348944 
z
" clip-path="url(#p7deefa7ff2)" style="fill: #808080"/>
   </g>
   <g id="patch_100">
    <path d="M 196.846364 307.584 
L 198.114545 307.584 
L 198.114545 70.755236 
L 196.846364 70.755236 
z
" clip-path="url(#p7deefa7ff2)" style="fill: #808080"/>
   </g>
   <g id="patch_101">
    <path d="M 198.114545 307.584 
L 199.382727 307.584 
L 199.382727 100.180854 
L 198.114545 100.180854 
z
" clip-path="url(#p7deefa7ff2)" style="fill: #808080"/>
   </g>
   <g id="patch_102">
    <path d="M 199.382727 307.584 
L 200.650909 307.584 
L 200.650909 89.739506 
L 199.382727 89.739506 
z
" clip-path="url(#p7deefa7ff2)" style="fill: #808080"/>
   </g>
   <g id="patch_103">
    <path d="M 200.650909 307.584 
L 201.919091 307.584 
L 201.919091 88.315685 
L 200.650909 88.315685 
z
" clip-path="url(#p7deefa7ff2)" style="fill: #808080"/>
   </g>
   <g id="patch_104">
    <path d="M 201.919091 307.584 
L 203.187273 307.584 
L 203.187273 71.704449 
L 201.919091 71.704449 
z
" clip-path="url(#p7deefa7ff2)" style="fill: #808080"/>
   </g>
   <g id="patch_105">
    <path d="M 203.187273 307.584 
L 204.455455 307.584 
L 204.455455 98.282427 
L 203.187273 98.282427 
z
" clip-path="url(#p7deefa7ff2)" style="fill: #808080"/>
   </g>
   <g id="patch_106">
    <path d="M 204.455455 307.584 
L 205.723636 307.584 
L 205.723636 81.671191 
L 204.455455 81.671191 
z
" clip-path="url(#p7deefa7ff2)" style="fill: #808080"/>
   </g>
   <g id="patch_107">
    <path d="M 205.723636 307.584 
L 206.991818 307.584 
L 206.991818 91.637933 
L 205.723636 91.637933 
z
" clip-path="url(#p7deefa7ff2)" style="fill: #808080"/>
   </g>
   <g id="patch_108">
    <path d="M 206.991818 307.584 
L 208.26 307.584 
L 208.26 78.823551 
L 206.991818 78.823551 
z
" clip-path="url(#p7deefa7ff2)" style="fill: #808080"/>
   </g>
   <g id="patch_109">
    <path d="M 208.26 307.584 
L 209.528182 307.584 
L 209.528182 111.096809 
L 208.26 111.096809 
z
" clip-path="url(#p7deefa7ff2)" style="fill: #808080"/>
   </g>
   <g id="patch_110">
    <path d="M 209.528182 307.584 
L 210.796364 307.584 
L 210.796364 71.704449 
L 209.528182 71.704449 
z
" clip-path="url(#p7deefa7ff2)" style="fill: #808080"/>
   </g>
   <g id="patch_111">
    <path d="M 210.796364 307.584 
L 212.064545 307.584 
L 212.064545 81.671191 
L 210.796364 81.671191 
z
" clip-path="url(#p7deefa7ff2)" style="fill: #808080"/>
   </g>
   <g id="patch_112">
    <path d="M 212.064545 307.584 
L 213.332727 307.584 
L 213.332727 98.282427 
L 212.064545 98.282427 
z
" clip-path="url(#p7deefa7ff2)" style="fill: #808080"/>
   </g>
   <g id="patch_113">
    <path d="M 213.332727 307.584 
L 214.600909 307.584 
L 214.600909 88.790292 
L 213.332727 88.790292 
z
" clip-path="url(#p7deefa7ff2)" style="fill: #808080"/>
   </g>
   <g id="patch_114">
    <path d="M 214.600909 307.584 
L 215.869091 307.584 
L 215.869091 95.434787 
L 214.600909 95.434787 
z
" clip-path="url(#p7deefa7ff2)" style="fill: #808080"/>
   </g>
   <g id="patch_115">
    <path d="M 215.869091 307.584 
L 217.137273 307.584 
L 217.137273 74.55209 
L 215.869091 74.55209 
z
" clip-path="url(#p7deefa7ff2)" style="fill: #808080"/>
   </g>
   <g id="patch_116">
    <path d="M 217.137273 307.584 
L 218.405455 307.584 
L 218.405455 95.434787 
L 217.137273 95.434787 
z
" clip-path="url(#p7deefa7ff2)" style="fill: #808080"/>
   </g>
   <g id="patch_117">
    <path d="M 218.405455 307.584 
L 219.673636 307.584 
L 219.673636 78.348944 
L 218.405455 78.348944 
z
" clip-path="url(#p7deefa7ff2)" style="fill: #808080"/>
   </g>
   <g id="patch_118">
    <path d="M 219.673636 307.584 
L 220.941818 307.584 
L 220.941818 103.028494 
L 219.673636 103.028494 
z
" clip-path="url(#p7deefa7ff2)" style="fill: #808080"/>
   </g>
   <g id="patch_119">
    <path d="M 220.941818 307.584 
L 222.21 307.584 
L 222.21 72.179056 
L 220.941818 72.179056 
z
" clip-path="url(#p7deefa7ff2)" style="fill: #808080"/>
   </g>
   <g id="patch_120">
    <path d="M 222.21 307.584 
L 223.478182 307.584 
L 223.478182 75.501303 
L 222.21 75.501303 
z
" clip-path="url(#p7deefa7ff2)" style="fill: #808080"/>
   </g>
   <g id="patch_121">
    <path d="M 223.478182 307.584 
L 224.746364 307.584 
L 224.746364 84.044225 
L 223.478182 84.044225 
z
" clip-path="url(#p7deefa7ff2)" style="fill: #808080"/>
   </g>
   <g id="patch_122">
    <path d="M 224.746364 307.584 
L 226.014545 307.584 
L 226.014545 81.671191 
L 224.746364 81.671191 
z
" clip-path="url(#p7deefa7ff2)" style="fill: #808080"/>
   </g>
   <g id="patch_123">
    <path d="M 226.014545 307.584 
L 227.282727 307.584 
L 227.282727 80.721978 
L 226.014545 80.721978 
z
" clip-path="url(#p7deefa7ff2)" style="fill: #808080"/>
   </g>
   <g id="patch_124">
    <path d="M 227.282727 307.584 
L 228.550909 307.584 
L 228.550909 78.348944 
L 227.282727 78.348944 
z
" clip-path="url(#p7deefa7ff2)" style="fill: #808080"/>
   </g>
   <g id="patch_125">
    <path d="M 228.550909 307.584 
L 229.819091 307.584 
L 229.819091 82.620404 
L 228.550909 82.620404 
z
" clip-path="url(#p7deefa7ff2)" style="fill: #808080"/>
   </g>
   <g id="patch_126">
    <path d="M 229.819091 307.584 
L 231.087273 307.584 
L 231.087273 97.80782 
L 229.819091 97.80782 
z
" clip-path="url(#p7deefa7ff2)" style="fill: #808080"/>
   </g>
   <g id="patch_127">
    <path d="M 231.087273 307.584 
L 232.355455 307.584 
L 232.355455 72.653663 
L 231.087273 72.653663 
z
" clip-path="url(#p7deefa7ff2)" style="fill: #808080"/>
   </g>
   <g id="patch_128">
    <path d="M 232.355455 307.584 
L 233.623636 307.584 
L 233.623636 101.130067 
L 232.355455 101.130067 
z
" clip-path="url(#p7deefa7ff2)" style="fill: #808080"/>
   </g>
   <g id="patch_129">
    <path d="M 233.623636 307.584 
L 234.891818 307.584 
L 234.891818 83.569618 
L 233.623636 83.569618 
z
" clip-path="url(#p7deefa7ff2)" style="fill: #808080"/>
   </g>
   <g id="patch_130">
    <path d="M 234.891818 307.584 
L 236.16 307.584 
L 236.16 81.196584 
L 234.891818 81.196584 
z
" clip-path="url(#p7deefa7ff2)" style="fill: #808080"/>
   </g>
   <g id="patch_131">
    <path d="M 236.16 307.584 
L 237.428182 307.584 
L 237.428182 76.450517 
L 236.16 76.450517 
z
" clip-path="url(#p7deefa7ff2)" style="fill: #808080"/>
   </g>
   <g id="patch_132">
    <path d="M 237.428182 307.584 
L 238.696364 307.584 
L 238.696364 85.468045 
L 237.428182 85.468045 
z
" clip-path="url(#p7deefa7ff2)" style="fill: #808080"/>
   </g>
   <g id="patch_133">
    <path d="M 238.696364 307.584 
L 239.964545 307.584 
L 239.964545 88.790292 
L 238.696364 88.790292 
z
" clip-path="url(#p7deefa7ff2)" style="fill: #808080"/>
   </g>
   <g id="patch_134">
    <path d="M 239.964545 307.584 
L 241.232727 307.584 
L 241.232727 91.163326 
L 239.964545 91.163326 
z
" clip-path="url(#p7deefa7ff2)" style="fill: #808080"/>
   </g>
   <g id="patch_135">
    <path d="M 241.232727 307.584 
L 242.500909 307.584 
L 242.500909 72.179056 
L 241.232727 72.179056 
z
" clip-path="url(#p7deefa7ff2)" style="fill: #808080"/>
   </g>
   <g id="patch_136">
    <path d="M 242.500909 307.584 
L 243.769091 307.584 
L 243.769091 94.96018 
L 242.500909 94.96018 
z
" clip-path="url(#p7deefa7ff2)" style="fill: #808080"/>
   </g>
   <g id="patch_137">
    <path d="M 243.769091 307.584 
L 245.037273 307.584 
L 245.037273 84.044225 
L 243.769091 84.044225 
z
" clip-path="url(#p7deefa7ff2)" style="fill: #808080"/>
   </g>
   <g id="patch_138">
    <path d="M 245.037273 307.584 
L 246.305455 307.584 
L 246.305455 95.909393 
L 245.037273 95.909393 
z
" clip-path="url(#p7deefa7ff2)" style="fill: #808080"/>
   </g>
   <g id="patch_139">
    <path d="M 246.305455 307.584 
L 247.573636 307.584 
L 247.573636 79.298157 
L 246.305455 79.298157 
z
" clip-path="url(#p7deefa7ff2)" style="fill: #808080"/>
   </g>
   <g id="patch_140">
    <path d="M 247.573636 307.584 
L 248.841818 307.584 
L 248.841818 86.417258 
L 247.573636 86.417258 
z
" clip-path="url(#p7deefa7ff2)" style="fill: #808080"/>
   </g>
   <g id="patch_141">
    <path d="M 248.841818 307.584 
L 250.11 307.584 
L 250.11 109.198382 
L 248.841818 109.198382 
z
" clip-path="url(#p7deefa7ff2)" style="fill: #808080"/>
   </g>
   <g id="patch_142">
    <path d="M 250.11 307.584 
L 251.378182 307.584 
L 251.378182 69.806022 
L 250.11 69.806022 
z
" clip-path="url(#p7deefa7ff2)" style="fill: #808080"/>
   </g>
   <g id="patch_143">
    <path d="M 251.378182 307.584 
L 252.646364 307.584 
L 252.646364 84.518831 
L 251.378182 84.518831 
z
" clip-path="url(#p7deefa7ff2)" style="fill: #808080"/>
   </g>
   <g id="patch_144">
    <path d="M 252.646364 307.584 
L 253.914545 307.584 
L 253.914545 84.993438 
L 252.646364 84.993438 
z
" clip-path="url(#p7deefa7ff2)" style="fill: #808080"/>
   </g>
   <g id="patch_145">
    <path d="M 253.914545 307.584 
L 255.182727 307.584 
L 255.182727 75.501303 
L 253.914545 75.501303 
z
" clip-path="url(#p7deefa7ff2)" style="fill: #808080"/>
   </g>
   <g id="patch_146">
    <path d="M 255.182727 307.584 
L 256.450909 307.584 
L 256.450909 86.417258 
L 255.182727 86.417258 
z
" clip-path="url(#p7deefa7ff2)" style="fill: #808080"/>
   </g>
   <g id="patch_147">
    <path d="M 256.450909 307.584 
L 257.719091 307.584 
L 257.719091 75.97591 
L 256.450909 75.97591 
z
" clip-path="url(#p7deefa7ff2)" style="fill: #808080"/>
   </g>
   <g id="patch_148">
    <path d="M 257.719091 307.584 
L 258.987273 307.584 
L 258.987273 87.841079 
L 257.719091 87.841079 
z
" clip-path="url(#p7deefa7ff2)" style="fill: #808080"/>
   </g>
   <g id="patch_149">
    <path d="M 258.987273 307.584 
L 260.255455 307.584 
L 260.255455 76.925124 
L 258.987273 76.925124 
z
" clip-path="url(#p7deefa7ff2)" style="fill: #808080"/>
   </g>
   <g id="patch_150">
    <path d="M 260.255455 307.584 
L 261.523636 307.584 
L 261.523636 69.331416 
L 260.255455 69.331416 
z
" clip-path="url(#p7deefa7ff2)" style="fill: #808080"/>
   </g>
   <g id="patch_151">
    <path d="M 261.523636 307.584 
L 262.791818 307.584 
L 262.791818 89.264899 
L 261.523636 89.264899 
z
" clip-path="url(#p7deefa7ff2)" style="fill: #808080"/>
   </g>
   <g id="patch_152">
    <path d="M 262.791818 307.584 
L 264.06 307.584 
L 264.06 85.942652 
L 262.791818 85.942652 
z
" clip-path="url(#p7deefa7ff2)" style="fill: #808080"/>
   </g>
   <g id="patch_153">
    <path d="M 264.06 307.584 
L 265.328182 307.584 
L 265.328182 81.671191 
L 264.06 81.671191 
z
" clip-path="url(#p7deefa7ff2)" style="fill: #808080"/>
   </g>
   <g id="patch_154">
    <path d="M 265.328182 307.584 
L 266.596364 307.584 
L 266.596364 84.518831 
L 265.328182 84.518831 
z
" clip-path="url(#p7deefa7ff2)" style="fill: #808080"/>
   </g>
   <g id="patch_155">
    <path d="M 266.596364 307.584 
L 267.864545 307.584 
L 267.864545 93.061753 
L 266.596364 93.061753 
z
" clip-path="url(#p7deefa7ff2)" style="fill: #808080"/>
   </g>
   <g id="patch_156">
    <path d="M 267.864545 307.584 
L 269.132727 307.584 
L 269.132727 68.382202 
L 267.864545 68.382202 
z
" clip-path="url(#p7deefa7ff2)" style="fill: #808080"/>
   </g>
   <g id="patch_157">
    <path d="M 269.132727 307.584 
L 270.400909 307.584 
L 270.400909 62.686921 
L 269.132727 62.686921 
z
" clip-path="url(#p7deefa7ff2)" style="fill: #808080"/>
   </g>
   <g id="patch_158">
    <path d="M 270.400909 307.584 
L 271.669091 307.584 
L 271.669091 97.333213 
L 270.400909 97.333213 
z
" clip-path="url(#p7deefa7ff2)" style="fill: #808080"/>
   </g>
   <g id="patch_159">
    <path d="M 271.669091 307.584 
L 272.937273 307.584 
L 272.937273 89.264899 
L 271.669091 89.264899 
z
" clip-path="url(#p7deefa7ff2)" style="fill: #808080"/>
   </g>
   <g id="patch_160">
    <path d="M 272.937273 307.584 
L 274.205455 307.584 
L 274.205455 72.653663 
L 272.937273 72.653663 
z
" clip-path="url(#p7deefa7ff2)" style="fill: #808080"/>
   </g>
   <g id="patch_161">
    <path d="M 274.205455 307.584 
L 275.473636 307.584 
L 275.473636 80.721978 
L 274.205455 80.721978 
z
" clip-path="url(#p7deefa7ff2)" style="fill: #808080"/>
   </g>
   <g id="patch_162">
    <path d="M 275.473636 307.584 
L 276.741818 307.584 
L 276.741818 88.790292 
L 275.473636 88.790292 
z
" clip-path="url(#p7deefa7ff2)" style="fill: #808080"/>
   </g>
   <g id="patch_163">
    <path d="M 276.741818 307.584 
L 278.01 307.584 
L 278.01 95.434787 
L 276.741818 95.434787 
z
" clip-path="url(#p7deefa7ff2)" style="fill: #808080"/>
   </g>
   <g id="patch_164">
    <path d="M 278.01 307.584 
L 279.278182 307.584 
L 279.278182 88.315685 
L 278.01 88.315685 
z
" clip-path="url(#p7deefa7ff2)" style="fill: #808080"/>
   </g>
   <g id="patch_165">
    <path d="M 279.278182 307.584 
L 280.546364 307.584 
L 280.546364 78.823551 
L 279.278182 78.823551 
z
" clip-path="url(#p7deefa7ff2)" style="fill: #808080"/>
   </g>
   <g id="patch_166">
    <path d="M 280.546364 307.584 
L 281.814545 307.584 
L 281.814545 96.858607 
L 280.546364 96.858607 
z
" clip-path="url(#p7deefa7ff2)" style="fill: #808080"/>
   </g>
   <g id="patch_167">
    <path d="M 281.814545 307.584 
L 283.082727 307.584 
L 283.082727 92.587146 
L 281.814545 92.587146 
z
" clip-path="url(#p7deefa7ff2)" style="fill: #808080"/>
   </g>
   <g id="patch_168">
    <path d="M 283.082727 307.584 
L 284.350909 307.584 
L 284.350909 90.214112 
L 283.082727 90.214112 
z
" clip-path="url(#p7deefa7ff2)" style="fill: #808080"/>
   </g>
   <g id="patch_169">
    <path d="M 284.350909 307.584 
L 285.619091 307.584 
L 285.619091 81.671191 
L 284.350909 81.671191 
z
" clip-path="url(#p7deefa7ff2)" style="fill: #808080"/>
   </g>
   <g id="patch_170">
    <path d="M 285.619091 307.584 
L 286.887273 307.584 
L 286.887273 81.671191 
L 285.619091 81.671191 
z
" clip-path="url(#p7deefa7ff2)" style="fill: #808080"/>
   </g>
   <g id="patch_171">
    <path d="M 286.887273 307.584 
L 288.155455 307.584 
L 288.155455 88.315685 
L 286.887273 88.315685 
z
" clip-path="url(#p7deefa7ff2)" style="fill: #808080"/>
   </g>
   <g id="patch_172">
    <path d="M 288.155455 307.584 
L 289.423636 307.584 
L 289.423636 88.790292 
L 288.155455 88.790292 
z
" clip-path="url(#p7deefa7ff2)" style="fill: #808080"/>
   </g>
   <g id="patch_173">
    <path d="M 289.423636 307.584 
L 290.691818 307.584 
L 290.691818 84.044225 
L 289.423636 84.044225 
z
" clip-path="url(#p7deefa7ff2)" style="fill: #808080"/>
   </g>
   <g id="patch_174">
    <path d="M 290.691818 307.584 
L 291.96 307.584 
L 291.96 78.823551 
L 290.691818 78.823551 
z
" clip-path="url(#p7deefa7ff2)" style="fill: #808080"/>
   </g>
   <g id="patch_175">
    <path d="M 291.96 307.584 
L 293.228182 307.584 
L 293.228182 92.587146 
L 291.96 92.587146 
z
" clip-path="url(#p7deefa7ff2)" style="fill: #808080"/>
   </g>
   <g id="patch_176">
    <path d="M 293.228182 307.584 
L 294.496364 307.584 
L 294.496364 79.298157 
L 293.228182 79.298157 
z
" clip-path="url(#p7deefa7ff2)" style="fill: #808080"/>
   </g>
   <g id="patch_177">
    <path d="M 294.496364 307.584 
L 295.764545 307.584 
L 295.764545 96.384 
L 294.496364 96.384 
z
" clip-path="url(#p7deefa7ff2)" style="fill: #808080"/>
   </g>
   <g id="patch_178">
    <path d="M 295.764545 307.584 
L 297.032727 307.584 
L 297.032727 75.97591 
L 295.764545 75.97591 
z
" clip-path="url(#p7deefa7ff2)" style="fill: #808080"/>
   </g>
   <g id="patch_179">
    <path d="M 297.032727 307.584 
L 298.300909 307.584 
L 298.300909 78.348944 
L 297.032727 78.348944 
z
" clip-path="url(#p7deefa7ff2)" style="fill: #808080"/>
   </g>
   <g id="patch_180">
    <path d="M 298.300909 307.584 
L 299.569091 307.584 
L 299.569091 101.130067 
L 298.300909 101.130067 
z
" clip-path="url(#p7deefa7ff2)" style="fill: #808080"/>
   </g>
   <g id="patch_181">
    <path d="M 299.569091 307.584 
L 300.837273 307.584 
L 300.837273 79.298157 
L 299.569091 79.298157 
z
" clip-path="url(#p7deefa7ff2)" style="fill: #808080"/>
   </g>
   <g id="patch_182">
    <path d="M 300.837273 307.584 
L 302.105455 307.584 
L 302.105455 82.620404 
L 300.837273 82.620404 
z
" clip-path="url(#p7deefa7ff2)" style="fill: #808080"/>
   </g>
   <g id="patch_183">
    <path d="M 302.105455 307.584 
L 303.373636 307.584 
L 303.373636 103.503101 
L 302.105455 103.503101 
z
" clip-path="url(#p7deefa7ff2)" style="fill: #808080"/>
   </g>
   <g id="patch_184">
    <path d="M 303.373636 307.584 
L 304.641818 307.584 
L 304.641818 95.909393 
L 303.373636 95.909393 
z
" clip-path="url(#p7deefa7ff2)" style="fill: #808080"/>
   </g>
   <g id="patch_185">
    <path d="M 304.641818 307.584 
L 305.91 307.584 
L 305.91 81.671191 
L 304.641818 81.671191 
z
" clip-path="url(#p7deefa7ff2)" style="fill: #808080"/>
   </g>
   <g id="patch_186">
    <path d="M 305.91 307.584 
L 307.178182 307.584 
L 307.178182 91.637933 
L 305.91 91.637933 
z
" clip-path="url(#p7deefa7ff2)" style="fill: #808080"/>
   </g>
   <g id="patch_187">
    <path d="M 307.178182 307.584 
L 308.446364 307.584 
L 308.446364 76.925124 
L 307.178182 76.925124 
z
" clip-path="url(#p7deefa7ff2)" style="fill: #808080"/>
   </g>
   <g id="patch_188">
    <path d="M 308.446364 307.584 
L 309.714545 307.584 
L 309.714545 85.468045 
L 308.446364 85.468045 
z
" clip-path="url(#p7deefa7ff2)" style="fill: #808080"/>
   </g>
   <g id="patch_189">
    <path d="M 309.714545 307.584 
L 310.982727 307.584 
L 310.982727 83.095011 
L 309.714545 83.095011 
z
" clip-path="url(#p7deefa7ff2)" style="fill: #808080"/>
   </g>
   <g id="patch_190">
    <path d="M 310.982727 307.584 
L 312.250909 307.584 
L 312.250909 98.757034 
L 310.982727 98.757034 
z
" clip-path="url(#p7deefa7ff2)" style="fill: #808080"/>
   </g>
   <g id="patch_191">
    <path d="M 312.250909 307.584 
L 313.519091 307.584 
L 313.519091 88.790292 
L 312.250909 88.790292 
z
" clip-path="url(#p7deefa7ff2)" style="fill: #808080"/>
   </g>
   <g id="patch_192">
    <path d="M 313.519091 307.584 
L 314.787273 307.584 
L 314.787273 98.282427 
L 313.519091 98.282427 
z
" clip-path="url(#p7deefa7ff2)" style="fill: #808080"/>
   </g>
   <g id="patch_193">
    <path d="M 314.787273 307.584 
L 316.055455 307.584 
L 316.055455 85.468045 
L 314.787273 85.468045 
z
" clip-path="url(#p7deefa7ff2)" style="fill: #808080"/>
   </g>
   <g id="patch_194">
    <path d="M 316.055455 307.584 
L 317.323636 307.584 
L 317.323636 85.468045 
L 316.055455 85.468045 
z
" clip-path="url(#p7deefa7ff2)" style="fill: #808080"/>
   </g>
   <g id="patch_195">
    <path d="M 317.323636 307.584 
L 318.591818 307.584 
L 318.591818 76.925124 
L 317.323636 76.925124 
z
" clip-path="url(#p7deefa7ff2)" style="fill: #808080"/>
   </g>
   <g id="patch_196">
    <path d="M 318.591818 307.584 
L 319.86 307.584 
L 319.86 69.806022 
L 318.591818 69.806022 
z
" clip-path="url(#p7deefa7ff2)" style="fill: #808080"/>
   </g>
   <g id="patch_197">
    <path d="M 319.86 307.584 
L 321.128182 307.584 
L 321.128182 66.009169 
L 319.86 66.009169 
z
" clip-path="url(#p7deefa7ff2)" style="fill: #808080"/>
   </g>
   <g id="patch_198">
    <path d="M 321.128182 307.584 
L 322.396364 307.584 
L 322.396364 70.280629 
L 321.128182 70.280629 
z
" clip-path="url(#p7deefa7ff2)" style="fill: #808080"/>
   </g>
   <g id="patch_199">
    <path d="M 322.396364 307.584 
L 323.664545 307.584 
L 323.664545 97.80782 
L 322.396364 97.80782 
z
" clip-path="url(#p7deefa7ff2)" style="fill: #808080"/>
   </g>
   <g id="patch_200">
    <path d="M 323.664545 307.584 
L 324.932727 307.584 
L 324.932727 89.739506 
L 323.664545 89.739506 
z
" clip-path="url(#p7deefa7ff2)" style="fill: #808080"/>
   </g>
   <g id="patch_201">
    <path d="M 324.932727 307.584 
L 326.200909 307.584 
L 326.200909 86.891865 
L 324.932727 86.891865 
z
" clip-path="url(#p7deefa7ff2)" style="fill: #808080"/>
   </g>
   <g id="patch_202">
    <path d="M 326.200909 307.584 
L 327.469091 307.584 
L 327.469091 84.044225 
L 326.200909 84.044225 
z
" clip-path="url(#p7deefa7ff2)" style="fill: #808080"/>
   </g>
   <g id="patch_203">
    <path d="M 327.469091 307.584 
L 328.737273 307.584 
L 328.737273 82.620404 
L 327.469091 82.620404 
z
" clip-path="url(#p7deefa7ff2)" style="fill: #808080"/>
   </g>
   <g id="patch_204">
    <path d="M 328.737273 307.584 
L 330.005455 307.584 
L 330.005455 66.009169 
L 328.737273 66.009169 
z
" clip-path="url(#p7deefa7ff2)" style="fill: #808080"/>
   </g>
   <g id="patch_205">
    <path d="M 330.005455 307.584 
L 331.273636 307.584 
L 331.273636 102.079281 
L 330.005455 102.079281 
z
" clip-path="url(#p7deefa7ff2)" style="fill: #808080"/>
   </g>
   <g id="patch_206">
    <path d="M 331.273636 307.584 
L 332.541818 307.584 
L 332.541818 84.044225 
L 331.273636 84.044225 
z
" clip-path="url(#p7deefa7ff2)" style="fill: #808080"/>
   </g>
   <g id="patch_207">
    <path d="M 332.541818 307.584 
L 333.81 307.584 
L 333.81 83.095011 
L 332.541818 83.095011 
z
" clip-path="url(#p7deefa7ff2)" style="fill: #808080"/>
   </g>
   <g id="patch_208">
    <path d="M 333.81 307.584 
L 335.078182 307.584 
L 335.078182 77.39973 
L 333.81 77.39973 
z
" clip-path="url(#p7deefa7ff2)" style="fill: #808080"/>
   </g>
   <g id="patch_209">
    <path d="M 335.078182 307.584 
L 336.346364 307.584 
L 336.346364 99.23164 
L 335.078182 99.23164 
z
" clip-path="url(#p7deefa7ff2)" style="fill: #808080"/>
   </g>
   <g id="patch_210">
    <path d="M 336.346364 307.584 
L 337.614545 307.584 
L 337.614545 101.604674 
L 336.346364 101.604674 
z
" clip-path="url(#p7deefa7ff2)" style="fill: #808080"/>
   </g>
   <g id="patch_211">
    <path d="M 337.614545 307.584 
L 338.882727 307.584 
L 338.882727 85.468045 
L 337.614545 85.468045 
z
" clip-path="url(#p7deefa7ff2)" style="fill: #808080"/>
   </g>
   <g id="patch_212">
    <path d="M 338.882727 307.584 
L 340.150909 307.584 
L 340.150909 81.671191 
L 338.882727 81.671191 
z
" clip-path="url(#p7deefa7ff2)" style="fill: #808080"/>
   </g>
   <g id="patch_213">
    <path d="M 340.150909 307.584 
L 341.419091 307.584 
L 341.419091 94.96018 
L 340.150909 94.96018 
z
" clip-path="url(#p7deefa7ff2)" style="fill: #808080"/>
   </g>
   <g id="patch_214">
    <path d="M 341.419091 307.584 
L 342.687273 307.584 
L 342.687273 78.823551 
L 341.419091 78.823551 
z
" clip-path="url(#p7deefa7ff2)" style="fill: #808080"/>
   </g>
   <g id="patch_215">
    <path d="M 342.687273 307.584 
L 343.955455 307.584 
L 343.955455 91.163326 
L 342.687273 91.163326 
z
" clip-path="url(#p7deefa7ff2)" style="fill: #808080"/>
   </g>
   <g id="patch_216">
    <path d="M 343.955455 307.584 
L 345.223636 307.584 
L 345.223636 84.044225 
L 343.955455 84.044225 
z
" clip-path="url(#p7deefa7ff2)" style="fill: #808080"/>
   </g>
   <g id="patch_217">
    <path d="M 345.223636 307.584 
L 346.491818 307.584 
L 346.491818 81.196584 
L 345.223636 81.196584 
z
" clip-path="url(#p7deefa7ff2)" style="fill: #808080"/>
   </g>
   <g id="patch_218">
    <path d="M 346.491818 307.584 
L 347.76 307.584 
L 347.76 63.636135 
L 346.491818 63.636135 
z
" clip-path="url(#p7deefa7ff2)" style="fill: #808080"/>
   </g>
   <g id="patch_219">
    <path d="M 347.76 307.584 
L 349.028182 307.584 
L 349.028182 74.55209 
L 347.76 74.55209 
z
" clip-path="url(#p7deefa7ff2)" style="fill: #808080"/>
   </g>
   <g id="patch_220">
    <path d="M 349.028182 307.584 
L 350.296364 307.584 
L 350.296364 96.858607 
L 349.028182 96.858607 
z
" clip-path="url(#p7deefa7ff2)" style="fill: #808080"/>
   </g>
   <g id="patch_221">
    <path d="M 350.296364 307.584 
L 351.564545 307.584 
L 351.564545 80.247371 
L 350.296364 80.247371 
z
" clip-path="url(#p7deefa7ff2)" style="fill: #808080"/>
   </g>
   <g id="patch_222">
    <path d="M 351.564545 307.584 
L 352.832727 307.584 
L 352.832727 82.620404 
L 351.564545 82.620404 
z
" clip-path="url(#p7deefa7ff2)" style="fill: #808080"/>
   </g>
   <g id="patch_223">
    <path d="M 352.832727 307.584 
L 354.100909 307.584 
L 354.100909 66.483775 
L 352.832727 66.483775 
z
" clip-path="url(#p7deefa7ff2)" style="fill: #808080"/>
   </g>
   <g id="patch_224">
    <path d="M 354.100909 307.584 
L 355.369091 307.584 
L 355.369091 85.468045 
L 354.100909 85.468045 
z
" clip-path="url(#p7deefa7ff2)" style="fill: #808080"/>
   </g>
   <g id="patch_225">
    <path d="M 355.369091 307.584 
L 356.637273 307.584 
L 356.637273 76.925124 
L 355.369091 76.925124 
z
" clip-path="url(#p7deefa7ff2)" style="fill: #808080"/>
   </g>
   <g id="patch_226">
    <path d="M 356.637273 307.584 
L 357.905455 307.584 
L 357.905455 74.077483 
L 356.637273 74.077483 
z
" clip-path="url(#p7deefa7ff2)" style="fill: #808080"/>
   </g>
   <g id="patch_227">
    <path d="M 357.905455 307.584 
L 359.173636 307.584 
L 359.173636 96.858607 
L 357.905455 96.858607 
z
" clip-path="url(#p7deefa7ff2)" style="fill: #808080"/>
   </g>
   <g id="patch_228">
    <path d="M 359.173636 307.584 
L 360.441818 307.584 
L 360.441818 85.942652 
L 359.173636 85.942652 
z
" clip-path="url(#p7deefa7ff2)" style="fill: #808080"/>
   </g>
   <g id="patch_229">
    <path d="M 360.441818 307.584 
L 361.71 307.584 
L 361.71 90.688719 
L 360.441818 90.688719 
z
" clip-path="url(#p7deefa7ff2)" style="fill: #808080"/>
   </g>
   <g id="patch_230">
    <path d="M 361.71 307.584 
L 362.978182 307.584 
L 362.978182 88.790292 
L 361.71 88.790292 
z
" clip-path="url(#p7deefa7ff2)" style="fill: #808080"/>
   </g>
   <g id="patch_231">
    <path d="M 362.978182 307.584 
L 364.246364 307.584 
L 364.246364 106.350742 
L 362.978182 106.350742 
z
" clip-path="url(#p7deefa7ff2)" style="fill: #808080"/>
   </g>
   <g id="patch_232">
    <path d="M 364.246364 307.584 
L 365.514545 307.584 
L 365.514545 83.095011 
L 364.246364 83.095011 
z
" clip-path="url(#p7deefa7ff2)" style="fill: #808080"/>
   </g>
   <g id="patch_233">
    <path d="M 365.514545 307.584 
L 366.782727 307.584 
L 366.782727 84.993438 
L 365.514545 84.993438 
z
" clip-path="url(#p7deefa7ff2)" style="fill: #808080"/>
   </g>
   <g id="patch_234">
    <path d="M 366.782727 307.584 
L 368.050909 307.584 
L 368.050909 88.790292 
L 366.782727 88.790292 
z
" clip-path="url(#p7deefa7ff2)" style="fill: #808080"/>
   </g>
   <g id="patch_235">
    <path d="M 368.050909 307.584 
L 369.319091 307.584 
L 369.319091 66.483775 
L 368.050909 66.483775 
z
" clip-path="url(#p7deefa7ff2)" style="fill: #808080"/>
   </g>
   <g id="patch_236">
    <path d="M 369.319091 307.584 
L 370.587273 307.584 
L 370.587273 97.80782 
L 369.319091 97.80782 
z
" clip-path="url(#p7deefa7ff2)" style="fill: #808080"/>
   </g>
   <g id="patch_237">
    <path d="M 370.587273 307.584 
L 371.855455 307.584 
L 371.855455 96.858607 
L 370.587273 96.858607 
z
" clip-path="url(#p7deefa7ff2)" style="fill: #808080"/>
   </g>
   <g id="patch_238">
    <path d="M 371.855455 307.584 
L 373.123636 307.584 
L 373.123636 80.247371 
L 371.855455 80.247371 
z
" clip-path="url(#p7deefa7ff2)" style="fill: #808080"/>
   </g>
   <g id="patch_239">
    <path d="M 373.123636 307.584 
L 374.391818 307.584 
L 374.391818 95.909393 
L 373.123636 95.909393 
z
" clip-path="url(#p7deefa7ff2)" style="fill: #808080"/>
   </g>
   <g id="patch_240">
    <path d="M 374.391818 307.584 
L 375.66 307.584 
L 375.66 76.450517 
L 374.391818 76.450517 
z
" clip-path="url(#p7deefa7ff2)" style="fill: #808080"/>
   </g>
   <g id="patch_241">
    <path d="M 375.66 307.584 
L 376.928182 307.584 
L 376.928182 83.569618 
L 375.66 83.569618 
z
" clip-path="url(#p7deefa7ff2)" style="fill: #808080"/>
   </g>
   <g id="patch_242">
    <path d="M 376.928182 307.584 
L 378.196364 307.584 
L 378.196364 82.620404 
L 376.928182 82.620404 
z
" clip-path="url(#p7deefa7ff2)" style="fill: #808080"/>
   </g>
   <g id="patch_243">
    <path d="M 378.196364 307.584 
L 379.464545 307.584 
L 379.464545 91.163326 
L 378.196364 91.163326 
z
" clip-path="url(#p7deefa7ff2)" style="fill: #808080"/>
   </g>
   <g id="patch_244">
    <path d="M 379.464545 307.584 
L 380.732727 307.584 
L 380.732727 88.790292 
L 379.464545 88.790292 
z
" clip-path="url(#p7deefa7ff2)" style="fill: #808080"/>
   </g>
   <g id="patch_245">
    <path d="M 380.732727 307.584 
L 382.000909 307.584 
L 382.000909 75.026697 
L 380.732727 75.026697 
z
" clip-path="url(#p7deefa7ff2)" style="fill: #808080"/>
   </g>
   <g id="patch_246">
    <path d="M 382.000909 307.584 
L 383.269091 307.584 
L 383.269091 95.909393 
L 382.000909 95.909393 
z
" clip-path="url(#p7deefa7ff2)" style="fill: #808080"/>
   </g>
   <g id="patch_247">
    <path d="M 383.269091 307.584 
L 384.537273 307.584 
L 384.537273 81.196584 
L 383.269091 81.196584 
z
" clip-path="url(#p7deefa7ff2)" style="fill: #808080"/>
   </g>
   <g id="patch_248">
    <path d="M 384.537273 307.584 
L 385.805455 307.584 
L 385.805455 86.891865 
L 384.537273 86.891865 
z
" clip-path="url(#p7deefa7ff2)" style="fill: #808080"/>
   </g>
   <g id="patch_249">
    <path d="M 385.805455 307.584 
L 387.073636 307.584 
L 387.073636 71.704449 
L 385.805455 71.704449 
z
" clip-path="url(#p7deefa7ff2)" style="fill: #808080"/>
   </g>
   <g id="patch_250">
    <path d="M 387.073636 307.584 
L 388.341818 307.584 
L 388.341818 70.755236 
L 387.073636 70.755236 
z
" clip-path="url(#p7deefa7ff2)" style="fill: #808080"/>
   </g>
   <g id="patch_251">
    <path d="M 388.341818 307.584 
L 389.61 307.584 
L 389.61 89.739506 
L 388.341818 89.739506 
z
" clip-path="url(#p7deefa7ff2)" style="fill: #808080"/>
   </g>
   <g id="patch_252">
    <path d="M 389.61 307.584 
L 390.878182 307.584 
L 390.878182 71.229843 
L 389.61 71.229843 
z
" clip-path="url(#p7deefa7ff2)" style="fill: #808080"/>
   </g>
   <g id="patch_253">
    <path d="M 390.878182 307.584 
L 392.146364 307.584 
L 392.146364 84.044225 
L 390.878182 84.044225 
z
" clip-path="url(#p7deefa7ff2)" style="fill: #808080"/>
   </g>
   <g id="patch_254">
    <path d="M 392.146364 307.584 
L 393.414545 307.584 
L 393.414545 99.23164 
L 392.146364 99.23164 
z
" clip-path="url(#p7deefa7ff2)" style="fill: #808080"/>
   </g>
   <g id="patch_255">
    <path d="M 393.414545 307.584 
L 394.682727 307.584 
L 394.682727 66.009169 
L 393.414545 66.009169 
z
" clip-path="url(#p7deefa7ff2)" style="fill: #808080"/>
   </g>
   <g id="patch_256">
    <path d="M 394.682727 307.584 
L 395.950909 307.584 
L 395.950909 78.823551 
L 394.682727 78.823551 
z
" clip-path="url(#p7deefa7ff2)" style="fill: #808080"/>
   </g>
   <g id="patch_257">
    <path d="M 395.950909 307.584 
L 397.219091 307.584 
L 397.219091 75.501303 
L 395.950909 75.501303 
z
" clip-path="url(#p7deefa7ff2)" style="fill: #808080"/>
   </g>
   <g id="patch_258">
    <path d="M 397.219091 307.584 
L 398.487273 307.584 
L 398.487273 81.671191 
L 397.219091 81.671191 
z
" clip-path="url(#p7deefa7ff2)" style="fill: #808080"/>
   </g>
   <g id="matplotlib.axis_1">
    <g id="xtick_1">
     <g id="line2d_1">
      <defs>
       <path id="m5a41b70241" d="M 0 0 
L 0 3.5 
" style="stroke: #000000; stroke-width: 0.8"/>
      </defs>
      <g>
       <use xlink:href="#m5a41b70241" x="73.832727" y="307.584" style="stroke: #000000; stroke-width: 0.8"/>
      </g>
     </g>
     <g id="text_1">
      <!-- 0 -->
      <g transform="translate(70.651477 322.182437) scale(0.1 -0.1)">
       <defs>
        <path id="DejaVuSans-30" d="M 2034 4250 
Q 1547 4250 1301 3770 
Q 1056 3291 1056 2328 
Q 1056 1369 1301 889 
Q 1547 409 2034 409 
Q 2525 409 2770 889 
Q 3016 1369 3016 2328 
Q 3016 3291 2770 3770 
Q 2525 4250 2034 4250 
z
M 2034 4750 
Q 2819 4750 3233 4129 
Q 3647 3509 3647 2328 
Q 3647 1150 3233 529 
Q 2819 -91 2034 -91 
Q 1250 -91 836 529 
Q 422 1150 422 2328 
Q 422 3509 836 4129 
Q 1250 4750 2034 4750 
z
" transform="scale(0.015625)"/>
       </defs>
       <use xlink:href="#DejaVuSans-30"/>
      </g>
     </g>
    </g>
    <g id="xtick_2">
     <g id="line2d_2">
      <g>
       <use xlink:href="#m5a41b70241" x="137.490481" y="307.584" style="stroke: #000000; stroke-width: 0.8"/>
      </g>
     </g>
     <g id="text_2">
      <!-- 50 -->
      <g transform="translate(131.127981 322.182437) scale(0.1 -0.1)">
       <defs>
        <path id="DejaVuSans-35" d="M 691 4666 
L 3169 4666 
L 3169 4134 
L 1269 4134 
L 1269 2991 
Q 1406 3038 1543 3061 
Q 1681 3084 1819 3084 
Q 2600 3084 3056 2656 
Q 3513 2228 3513 1497 
Q 3513 744 3044 326 
Q 2575 -91 1722 -91 
Q 1428 -91 1123 -41 
Q 819 9 494 109 
L 494 744 
Q 775 591 1075 516 
Q 1375 441 1709 441 
Q 2250 441 2565 725 
Q 2881 1009 2881 1497 
Q 2881 1984 2565 2268 
Q 2250 2553 1709 2553 
Q 1456 2553 1204 2497 
Q 953 2441 691 2322 
L 691 4666 
z
" transform="scale(0.015625)"/>
       </defs>
       <use xlink:href="#DejaVuSans-35"/>
       <use xlink:href="#DejaVuSans-30" x="63.623047"/>
      </g>
     </g>
    </g>
    <g id="xtick_3">
     <g id="line2d_3">
      <g>
       <use xlink:href="#m5a41b70241" x="201.148235" y="307.584" style="stroke: #000000; stroke-width: 0.8"/>
      </g>
     </g>
     <g id="text_3">
      <!-- 100 -->
      <g transform="translate(191.604485 322.182437) scale(0.1 -0.1)">
       <defs>
        <path id="DejaVuSans-31" d="M 794 531 
L 1825 531 
L 1825 4091 
L 703 3866 
L 703 4441 
L 1819 4666 
L 2450 4666 
L 2450 531 
L 3481 531 
L 3481 0 
L 794 0 
L 794 531 
z
" transform="scale(0.015625)"/>
       </defs>
       <use xlink:href="#DejaVuSans-31"/>
       <use xlink:href="#DejaVuSans-30" x="63.623047"/>
       <use xlink:href="#DejaVuSans-30" x="127.246094"/>
      </g>
     </g>
    </g>
    <g id="xtick_4">
     <g id="line2d_4">
      <g>
       <use xlink:href="#m5a41b70241" x="264.805989" y="307.584" style="stroke: #000000; stroke-width: 0.8"/>
      </g>
     </g>
     <g id="text_4">
      <!-- 150 -->
      <g transform="translate(255.262239 322.182437) scale(0.1 -0.1)">
       <use xlink:href="#DejaVuSans-31"/>
       <use xlink:href="#DejaVuSans-35" x="63.623047"/>
       <use xlink:href="#DejaVuSans-30" x="127.246094"/>
      </g>
     </g>
    </g>
    <g id="xtick_5">
     <g id="line2d_5">
      <g>
       <use xlink:href="#m5a41b70241" x="328.463743" y="307.584" style="stroke: #000000; stroke-width: 0.8"/>
      </g>
     </g>
     <g id="text_5">
      <!-- 200 -->
      <g transform="translate(318.919993 322.182437) scale(0.1 -0.1)">
       <defs>
        <path id="DejaVuSans-32" d="M 1228 531 
L 3431 531 
L 3431 0 
L 469 0 
L 469 531 
Q 828 903 1448 1529 
Q 2069 2156 2228 2338 
Q 2531 2678 2651 2914 
Q 2772 3150 2772 3378 
Q 2772 3750 2511 3984 
Q 2250 4219 1831 4219 
Q 1534 4219 1204 4116 
Q 875 4013 500 3803 
L 500 4441 
Q 881 4594 1212 4672 
Q 1544 4750 1819 4750 
Q 2544 4750 2975 4387 
Q 3406 4025 3406 3419 
Q 3406 3131 3298 2873 
Q 3191 2616 2906 2266 
Q 2828 2175 2409 1742 
Q 1991 1309 1228 531 
z
" transform="scale(0.015625)"/>
       </defs>
       <use xlink:href="#DejaVuSans-32"/>
       <use xlink:href="#DejaVuSans-30" x="63.623047"/>
       <use xlink:href="#DejaVuSans-30" x="127.246094"/>
      </g>
     </g>
    </g>
    <g id="xtick_6">
     <g id="line2d_6">
      <g>
       <use xlink:href="#m5a41b70241" x="392.121497" y="307.584" style="stroke: #000000; stroke-width: 0.8"/>
      </g>
     </g>
     <g id="text_6">
      <!-- 250 -->
      <g transform="translate(382.577747 322.182437) scale(0.1 -0.1)">
       <use xlink:href="#DejaVuSans-32"/>
       <use xlink:href="#DejaVuSans-35" x="63.623047"/>
       <use xlink:href="#DejaVuSans-30" x="127.246094"/>
      </g>
     </g>
    </g>
    <g id="text_7">
     <!-- Pixel Value -->
     <g transform="translate(209.279531 335.860562) scale(0.1 -0.1)">
      <defs>
       <path id="DejaVuSans-50" d="M 1259 4147 
L 1259 2394 
L 2053 2394 
Q 2494 2394 2734 2622 
Q 2975 2850 2975 3272 
Q 2975 3691 2734 3919 
Q 2494 4147 2053 4147 
L 1259 4147 
z
M 628 4666 
L 2053 4666 
Q 2838 4666 3239 4311 
Q 3641 3956 3641 3272 
Q 3641 2581 3239 2228 
Q 2838 1875 2053 1875 
L 1259 1875 
L 1259 0 
L 628 0 
L 628 4666 
z
" transform="scale(0.015625)"/>
       <path id="DejaVuSans-69" d="M 603 3500 
L 1178 3500 
L 1178 0 
L 603 0 
L 603 3500 
z
M 603 4863 
L 1178 4863 
L 1178 4134 
L 603 4134 
L 603 4863 
z
" transform="scale(0.015625)"/>
       <path id="DejaVuSans-78" d="M 3513 3500 
L 2247 1797 
L 3578 0 
L 2900 0 
L 1881 1375 
L 863 0 
L 184 0 
L 1544 1831 
L 300 3500 
L 978 3500 
L 1906 2253 
L 2834 3500 
L 3513 3500 
z
" transform="scale(0.015625)"/>
       <path id="DejaVuSans-65" d="M 3597 1894 
L 3597 1613 
L 953 1613 
Q 991 1019 1311 708 
Q 1631 397 2203 397 
Q 2534 397 2845 478 
Q 3156 559 3463 722 
L 3463 178 
Q 3153 47 2828 -22 
Q 2503 -91 2169 -91 
Q 1331 -91 842 396 
Q 353 884 353 1716 
Q 353 2575 817 3079 
Q 1281 3584 2069 3584 
Q 2775 3584 3186 3129 
Q 3597 2675 3597 1894 
z
M 3022 2063 
Q 3016 2534 2758 2815 
Q 2500 3097 2075 3097 
Q 1594 3097 1305 2825 
Q 1016 2553 972 2059 
L 3022 2063 
z
" transform="scale(0.015625)"/>
       <path id="DejaVuSans-6c" d="M 603 4863 
L 1178 4863 
L 1178 0 
L 603 0 
L 603 4863 
z
" transform="scale(0.015625)"/>
       <path id="DejaVuSans-20" transform="scale(0.015625)"/>
       <path id="DejaVuSans-56" d="M 1831 0 
L 50 4666 
L 709 4666 
L 2188 738 
L 3669 4666 
L 4325 4666 
L 2547 0 
L 1831 0 
z
" transform="scale(0.015625)"/>
       <path id="DejaVuSans-61" d="M 2194 1759 
Q 1497 1759 1228 1600 
Q 959 1441 959 1056 
Q 959 750 1161 570 
Q 1363 391 1709 391 
Q 2188 391 2477 730 
Q 2766 1069 2766 1631 
L 2766 1759 
L 2194 1759 
z
M 3341 1997 
L 3341 0 
L 2766 0 
L 2766 531 
Q 2569 213 2275 61 
Q 1981 -91 1556 -91 
Q 1019 -91 701 211 
Q 384 513 384 1019 
Q 384 1609 779 1909 
Q 1175 2209 1959 2209 
L 2766 2209 
L 2766 2266 
Q 2766 2663 2505 2880 
Q 2244 3097 1772 3097 
Q 1472 3097 1187 3025 
Q 903 2953 641 2809 
L 641 3341 
Q 956 3463 1253 3523 
Q 1550 3584 1831 3584 
Q 2591 3584 2966 3190 
Q 3341 2797 3341 1997 
z
" transform="scale(0.015625)"/>
       <path id="DejaVuSans-75" d="M 544 1381 
L 544 3500 
L 1119 3500 
L 1119 1403 
Q 1119 906 1312 657 
Q 1506 409 1894 409 
Q 2359 409 2629 706 
Q 2900 1003 2900 1516 
L 2900 3500 
L 3475 3500 
L 3475 0 
L 2900 0 
L 2900 538 
Q 2691 219 2414 64 
Q 2138 -91 1772 -91 
Q 1169 -91 856 284 
Q 544 659 544 1381 
z
M 1991 3584 
L 1991 3584 
z
" transform="scale(0.015625)"/>
      </defs>
      <use xlink:href="#DejaVuSans-50"/>
      <use xlink:href="#DejaVuSans-69" x="58.052734"/>
      <use xlink:href="#DejaVuSans-78" x="85.835938"/>
      <use xlink:href="#DejaVuSans-65" x="141.890625"/>
      <use xlink:href="#DejaVuSans-6c" x="203.414062"/>
      <use xlink:href="#DejaVuSans-20" x="231.197266"/>
      <use xlink:href="#DejaVuSans-56" x="262.984375"/>
      <use xlink:href="#DejaVuSans-61" x="323.642578"/>
      <use xlink:href="#DejaVuSans-6c" x="384.921875"/>
      <use xlink:href="#DejaVuSans-75" x="412.705078"/>
      <use xlink:href="#DejaVuSans-65" x="476.083984"/>
     </g>
    </g>
   </g>
   <g id="matplotlib.axis_2">
    <g id="ytick_1">
     <g id="line2d_7">
      <defs>
       <path id="m7ed82b0322" d="M 0 0 
L -3.5 0 
" style="stroke: #000000; stroke-width: 0.8"/>
      </defs>
      <g>
       <use xlink:href="#m7ed82b0322" x="57.6" y="307.584" style="stroke: #000000; stroke-width: 0.8"/>
      </g>
     </g>
     <g id="text_8">
      <!-- 0 -->
      <g transform="translate(44.2375 311.383219) scale(0.1 -0.1)">
       <use xlink:href="#DejaVuSans-30"/>
      </g>
     </g>
    </g>
    <g id="ytick_2">
     <g id="line2d_8">
      <g>
       <use xlink:href="#m7ed82b0322" x="57.6" y="260.123326" style="stroke: #000000; stroke-width: 0.8"/>
      </g>
     </g>
     <g id="text_9">
      <!-- 100 -->
      <g transform="translate(31.5125 263.922545) scale(0.1 -0.1)">
       <use xlink:href="#DejaVuSans-31"/>
       <use xlink:href="#DejaVuSans-30" x="63.623047"/>
       <use xlink:href="#DejaVuSans-30" x="127.246094"/>
      </g>
     </g>
    </g>
    <g id="ytick_3">
     <g id="line2d_9">
      <g>
       <use xlink:href="#m7ed82b0322" x="57.6" y="212.662652" style="stroke: #000000; stroke-width: 0.8"/>
      </g>
     </g>
     <g id="text_10">
      <!-- 200 -->
      <g transform="translate(31.5125 216.46187) scale(0.1 -0.1)">
       <use xlink:href="#DejaVuSans-32"/>
       <use xlink:href="#DejaVuSans-30" x="63.623047"/>
       <use xlink:href="#DejaVuSans-30" x="127.246094"/>
      </g>
     </g>
    </g>
    <g id="ytick_4">
     <g id="line2d_10">
      <g>
       <use xlink:href="#m7ed82b0322" x="57.6" y="165.201978" style="stroke: #000000; stroke-width: 0.8"/>
      </g>
     </g>
     <g id="text_11">
      <!-- 300 -->
      <g transform="translate(31.5125 169.001196) scale(0.1 -0.1)">
       <defs>
        <path id="DejaVuSans-33" d="M 2597 2516 
Q 3050 2419 3304 2112 
Q 3559 1806 3559 1356 
Q 3559 666 3084 287 
Q 2609 -91 1734 -91 
Q 1441 -91 1130 -33 
Q 819 25 488 141 
L 488 750 
Q 750 597 1062 519 
Q 1375 441 1716 441 
Q 2309 441 2620 675 
Q 2931 909 2931 1356 
Q 2931 1769 2642 2001 
Q 2353 2234 1838 2234 
L 1294 2234 
L 1294 2753 
L 1863 2753 
Q 2328 2753 2575 2939 
Q 2822 3125 2822 3475 
Q 2822 3834 2567 4026 
Q 2313 4219 1838 4219 
Q 1578 4219 1281 4162 
Q 984 4106 628 3988 
L 628 4550 
Q 988 4650 1302 4700 
Q 1616 4750 1894 4750 
Q 2613 4750 3031 4423 
Q 3450 4097 3450 3541 
Q 3450 3153 3228 2886 
Q 3006 2619 2597 2516 
z
" transform="scale(0.015625)"/>
       </defs>
       <use xlink:href="#DejaVuSans-33"/>
       <use xlink:href="#DejaVuSans-30" x="63.623047"/>
       <use xlink:href="#DejaVuSans-30" x="127.246094"/>
      </g>
     </g>
    </g>
    <g id="ytick_5">
     <g id="line2d_11">
      <g>
       <use xlink:href="#m7ed82b0322" x="57.6" y="117.741303" style="stroke: #000000; stroke-width: 0.8"/>
      </g>
     </g>
     <g id="text_12">
      <!-- 400 -->
      <g transform="translate(31.5125 121.540522) scale(0.1 -0.1)">
       <defs>
        <path id="DejaVuSans-34" d="M 2419 4116 
L 825 1625 
L 2419 1625 
L 2419 4116 
z
M 2253 4666 
L 3047 4666 
L 3047 1625 
L 3713 1625 
L 3713 1100 
L 3047 1100 
L 3047 0 
L 2419 0 
L 2419 1100 
L 313 1100 
L 313 1709 
L 2253 4666 
z
" transform="scale(0.015625)"/>
       </defs>
       <use xlink:href="#DejaVuSans-34"/>
       <use xlink:href="#DejaVuSans-30" x="63.623047"/>
       <use xlink:href="#DejaVuSans-30" x="127.246094"/>
      </g>
     </g>
    </g>
    <g id="ytick_6">
     <g id="line2d_12">
      <g>
       <use xlink:href="#m7ed82b0322" x="57.6" y="70.280629" style="stroke: #000000; stroke-width: 0.8"/>
      </g>
     </g>
     <g id="text_13">
      <!-- 500 -->
      <g transform="translate(31.5125 74.079848) scale(0.1 -0.1)">
       <use xlink:href="#DejaVuSans-35"/>
       <use xlink:href="#DejaVuSans-30" x="63.623047"/>
       <use xlink:href="#DejaVuSans-30" x="127.246094"/>
      </g>
     </g>
    </g>
    <g id="text_14">
     <!-- Frequency -->
     <g transform="translate(25.432812 200.357687) rotate(-90) scale(0.1 -0.1)">
      <defs>
       <path id="DejaVuSans-46" d="M 628 4666 
L 3309 4666 
L 3309 4134 
L 1259 4134 
L 1259 2759 
L 3109 2759 
L 3109 2228 
L 1259 2228 
L 1259 0 
L 628 0 
L 628 4666 
z
" transform="scale(0.015625)"/>
       <path id="DejaVuSans-72" d="M 2631 2963 
Q 2534 3019 2420 3045 
Q 2306 3072 2169 3072 
Q 1681 3072 1420 2755 
Q 1159 2438 1159 1844 
L 1159 0 
L 581 0 
L 581 3500 
L 1159 3500 
L 1159 2956 
Q 1341 3275 1631 3429 
Q 1922 3584 2338 3584 
Q 2397 3584 2469 3576 
Q 2541 3569 2628 3553 
L 2631 2963 
z
" transform="scale(0.015625)"/>
       <path id="DejaVuSans-71" d="M 947 1747 
Q 947 1113 1208 752 
Q 1469 391 1925 391 
Q 2381 391 2643 752 
Q 2906 1113 2906 1747 
Q 2906 2381 2643 2742 
Q 2381 3103 1925 3103 
Q 1469 3103 1208 2742 
Q 947 2381 947 1747 
z
M 2906 525 
Q 2725 213 2448 61 
Q 2172 -91 1784 -91 
Q 1150 -91 751 415 
Q 353 922 353 1747 
Q 353 2572 751 3078 
Q 1150 3584 1784 3584 
Q 2172 3584 2448 3432 
Q 2725 3281 2906 2969 
L 2906 3500 
L 3481 3500 
L 3481 -1331 
L 2906 -1331 
L 2906 525 
z
" transform="scale(0.015625)"/>
       <path id="DejaVuSans-6e" d="M 3513 2113 
L 3513 0 
L 2938 0 
L 2938 2094 
Q 2938 2591 2744 2837 
Q 2550 3084 2163 3084 
Q 1697 3084 1428 2787 
Q 1159 2491 1159 1978 
L 1159 0 
L 581 0 
L 581 3500 
L 1159 3500 
L 1159 2956 
Q 1366 3272 1645 3428 
Q 1925 3584 2291 3584 
Q 2894 3584 3203 3211 
Q 3513 2838 3513 2113 
z
" transform="scale(0.015625)"/>
       <path id="DejaVuSans-63" d="M 3122 3366 
L 3122 2828 
Q 2878 2963 2633 3030 
Q 2388 3097 2138 3097 
Q 1578 3097 1268 2742 
Q 959 2388 959 1747 
Q 959 1106 1268 751 
Q 1578 397 2138 397 
Q 2388 397 2633 464 
Q 2878 531 3122 666 
L 3122 134 
Q 2881 22 2623 -34 
Q 2366 -91 2075 -91 
Q 1284 -91 818 406 
Q 353 903 353 1747 
Q 353 2603 823 3093 
Q 1294 3584 2113 3584 
Q 2378 3584 2631 3529 
Q 2884 3475 3122 3366 
z
" transform="scale(0.015625)"/>
       <path id="DejaVuSans-79" d="M 2059 -325 
Q 1816 -950 1584 -1140 
Q 1353 -1331 966 -1331 
L 506 -1331 
L 506 -850 
L 844 -850 
Q 1081 -850 1212 -737 
Q 1344 -625 1503 -206 
L 1606 56 
L 191 3500 
L 800 3500 
L 1894 763 
L 2988 3500 
L 3597 3500 
L 2059 -325 
z
" transform="scale(0.015625)"/>
      </defs>
      <use xlink:href="#DejaVuSans-46"/>
      <use xlink:href="#DejaVuSans-72" x="50.269531"/>
      <use xlink:href="#DejaVuSans-65" x="89.132812"/>
      <use xlink:href="#DejaVuSans-71" x="150.65625"/>
      <use xlink:href="#DejaVuSans-75" x="214.132812"/>
      <use xlink:href="#DejaVuSans-65" x="277.511719"/>
      <use xlink:href="#DejaVuSans-6e" x="339.035156"/>
      <use xlink:href="#DejaVuSans-63" x="402.414062"/>
      <use xlink:href="#DejaVuSans-79" x="457.394531"/>
     </g>
    </g>
   </g>
   <g id="patch_259">
    <path d="M 57.6 307.584 
L 57.6 41.472 
" style="fill: none; stroke: #000000; stroke-width: 0.8; stroke-linejoin: miter; stroke-linecap: square"/>
   </g>
   <g id="patch_260">
    <path d="M 414.72 307.584 
L 414.72 41.472 
" style="fill: none; stroke: #000000; stroke-width: 0.8; stroke-linejoin: miter; stroke-linecap: square"/>
   </g>
   <g id="patch_261">
    <path d="M 57.6 307.584 
L 414.72 307.584 
" style="fill: none; stroke: #000000; stroke-width: 0.8; stroke-linejoin: miter; stroke-linecap: square"/>
   </g>
   <g id="patch_262">
    <path d="M 57.6 41.472 
L 414.72 41.472 
" style="fill: none; stroke: #000000; stroke-width: 0.8; stroke-linejoin: miter; stroke-linecap: square"/>
   </g>
  </g>
 </g>
 <defs>
  <clipPath id="p7deefa7ff2">
   <rect x="57.6" y="41.472" width="357.12" height="266.112"/>
  </clipPath>
 </defs>
</svg>
